<svg xmlns="http://www.w3.org/2000/svg" viewBox="0 0 332.28 57.7"><g id="Capa_2" data-name="Capa 2"><g id="Capa_1-2" data-name="Capa 1"><polygon points="34.34 0 56.94 22.61 44.38 35.17 29.31 35.17 41.84 22.61 19.26 0 34.34 0" style="fill:#00abc8;fill-rule:evenodd"/><polygon points="22.61 57.7 0 35.09 12.56 22.52 27.63 22.52 15.1 35.09 37.68 57.7 22.61 57.7" style="fill:#3f3f3e;fill-rule:evenodd"/><path d="M89.18,33.77c0,4.33-2.73,6.95-8.69,6.95H71.43V16.87h8.69c4.9,0,7.36,2.76,7.36,5.93a5,5,0,0,1-3.31,4.74A6.46,6.46,0,0,1,89.18,33.77Zm-13.29-13v5.42h3.85c2.25,0,3.31-1.13,3.31-2.73s-1.13-2.69-3.31-2.69Zm8.83,12.47c0-2-1.4-3.44-4.57-3.44H75.89v7h4.4C83.32,36.81,84.72,35.55,84.72,33.26Z" style="fill:#3f3f3e"/><path d="M105.6,25.32V23H110V40.72h-4.4V38.17c-.13.95-2,2.9-5.24,2.9a8.77,8.77,0,0,1-8.8-9.2,8.82,8.82,0,0,1,8.8-9.17C103.59,22.7,105.47,24.74,105.6,25.32Zm-9.78,6.55a5,5,0,0,0,5.11,5.31c2.56,0,4.88-1.77,4.88-5.31s-2.32-5.29-4.88-5.29A5,5,0,0,0,95.82,31.87Z" style="fill:#3f3f3e"/><path d="M119.64,33.43,118,35.14v5.58h-4.4V16.63H118V29.79l6.3-6.78h5.25l-7.19,7.56,8.79,10.15h-5Z" style="fill:#3f3f3e"/><path d="M144.89,25.32V23h4.4V40.72h-4.4V38.17c-.14.95-2,2.9-5.25,2.9a8.77,8.77,0,0,1-8.79-9.2,8.82,8.82,0,0,1,8.79-9.17C142.88,22.7,144.75,24.74,144.89,25.32Zm-9.78,6.55a5,5,0,0,0,5.11,5.31c2.56,0,4.87-1.77,4.87-5.31s-2.31-5.29-4.87-5.29A5,5,0,0,0,135.11,31.87Z" style="fill:#3f3f3e"/><path d="M162.74,36.67v3.65a7.84,7.84,0,0,1-3.47.61c-2.52,0-4.7-.92-4.7-5.49V26.62h-2.46V23h2.46V18.85H159V23h3.75v3.61H159v8.75c0,.89.28,1.71,1.43,1.71A6.28,6.28,0,0,0,162.74,36.67Z" style="fill:#3f3f3e"/><path d="M178.45,25.32V23h4.4V40.72h-4.4V38.17c-.13.95-2,2.9-5.24,2.9a8.77,8.77,0,0,1-8.8-9.2,8.82,8.82,0,0,1,8.8-9.17C176.44,22.7,178.32,24.74,178.45,25.32Zm-9.78,6.55a5,5,0,0,0,5.11,5.31c2.56,0,4.88-1.77,4.88-5.31s-2.32-5.29-4.88-5.29A5,5,0,0,0,168.67,31.87Z" style="fill:#3f3f3e"/><path d="M186.41,34.6h2.09V35a8.77,8.77,0,0,0,.26,2.48,1.85,1.85,0,0,0,.83,1.12,3.83,3.83,0,0,0,1.4.36c.63.07,1.93.11,3.9.11a11.38,11.38,0,0,0,2.49-.21,2.5,2.5,0,0,0,1.31-.67,1.78,1.78,0,0,0,.36-.86,10,10,0,0,0,.11-1.64,5.1,5.1,0,0,0-.42-2.64,2.31,2.31,0,0,0-1.68-.63l-5.79-.46a5.34,5.34,0,0,1-3.6-1.3,5.48,5.48,0,0,1-1-3.7,8.67,8.67,0,0,1,.33-2.64,3.77,3.77,0,0,1,1.06-1.65,3.35,3.35,0,0,1,1.59-.71,20.9,20.9,0,0,1,3.61-.21h.67A20,20,0,0,1,198,22a4.49,4.49,0,0,1,2,1,2.62,2.62,0,0,1,.8,1.29,7,7,0,0,1,.26,2.09v.56c0,.13,0,.25,0,.35h-2.1v-.47a7.82,7.82,0,0,0-.12-1.58,1.7,1.7,0,0,0-.38-.82,2.63,2.63,0,0,0-1.4-.55,31.15,31.15,0,0,0-3.81-.15c-1.93,0-3.15.21-3.64.65a3.47,3.47,0,0,0-.75,2.63,3.68,3.68,0,0,0,.49,2.23,2.55,2.55,0,0,0,1.87.72l5.91.49a4.75,4.75,0,0,1,3.26,1.29,5.51,5.51,0,0,1,.93,3.6A11.88,11.88,0,0,1,201,38a3.62,3.62,0,0,1-.79,1.55,3.72,3.72,0,0,1-1.84,1.08,19.35,19.35,0,0,1-4.21.31h-.94a17.23,17.23,0,0,1-3.68-.27,3.92,3.92,0,0,1-1.79-.92,3.51,3.51,0,0,1-1-1.64,8.83,8.83,0,0,1-.33-2.63Z" style="fill:#00abc8"/><path d="M204.77,28.14c0-2.4.49-4.07,1.49-5s2.75-1.42,5.29-1.42h2.37q3.84,0,5.31,1.4t1.47,5v6.37q0,3.62-1.5,5c-1,.94-2.76,1.41-5.28,1.41h-2.37q-3.81,0-5.29-1.41c-1-.94-1.49-2.62-1.49-5Zm8.53-4.48h-1.16a12.76,12.76,0,0,0-2.8.21,3.48,3.48,0,0,0-1.42.72,2.56,2.56,0,0,0-.78,1.29,11.92,11.92,0,0,0-.23,2.8V34a11.62,11.62,0,0,0,.23,2.77,2.57,2.57,0,0,0,.78,1.28,3.48,3.48,0,0,0,1.42.72,12.76,12.76,0,0,0,2.8.21h1.16a13.1,13.1,0,0,0,2.82-.21,3.41,3.41,0,0,0,1.42-.72,2.54,2.54,0,0,0,.77-1.25,12.35,12.35,0,0,0,.22-2.8V28.66a11.8,11.8,0,0,0-.23-2.8,2.59,2.59,0,0,0-.78-1.3,3.62,3.62,0,0,0-1.4-.7A13.15,13.15,0,0,0,213.3,23.66Z" style="fill:#00abc8"/><path d="M224.62,40.72V21.93h2V38.75h10.66v2Z" style="fill:#00abc8"/><path d="M239,21.93h2.09V34.26a11.1,11.1,0,0,0,.2,2.54,2.39,2.39,0,0,0,.67,1.16,2.88,2.88,0,0,0,1.21.64,11.08,11.08,0,0,0,2.42.18h2A11.19,11.19,0,0,0,250,38.6a2.82,2.82,0,0,0,1.21-.64,2.23,2.23,0,0,0,.66-1.15,11.3,11.3,0,0,0,.19-2.55V21.93h2.1V34.51c0,2.4-.48,4.07-1.42,5s-2.62,1.42-5,1.42h-2.27c-2.4,0-4.08-.47-5-1.42s-1.42-2.62-1.42-5Z" style="fill:#00abc8"/><path d="M255.92,23.92v-2H270v2h-6v16.8h-2.08V23.92Z" style="fill:#00abc8"/><path d="M272,40.72V21.93h2.1V40.72Z" style="fill:#00abc8"/><path d="M278,28.14q0-3.6,1.49-5t5.29-1.42h2.37q3.84,0,5.31,1.4t1.47,5v6.37q0,3.62-1.49,5T287.18,41h-2.37q-3.81,0-5.29-1.41t-1.49-5Zm8.53-4.48H285.4a12.82,12.82,0,0,0-2.8.21,3.48,3.48,0,0,0-1.42.72,2.56,2.56,0,0,0-.78,1.29,11.92,11.92,0,0,0-.23,2.8V34a11.62,11.62,0,0,0,.23,2.77,2.57,2.57,0,0,0,.78,1.28,3.48,3.48,0,0,0,1.42.72,12.82,12.82,0,0,0,2.8.21h1.16a13.1,13.1,0,0,0,2.82-.21,3.52,3.52,0,0,0,1.43-.72,2.52,2.52,0,0,0,.76-1.25,11.77,11.77,0,0,0,.22-2.8V28.66a11.8,11.8,0,0,0-.23-2.8,2.59,2.59,0,0,0-.78-1.3,3.55,3.55,0,0,0-1.4-.7A13.15,13.15,0,0,0,286.56,23.66Z" style="fill:#00abc8"/><path d="M297.89,40.72V21.93h3.2L311.28,38.7V21.93h2.07V40.72h-3.2L300,23.92v16.8Z" style="fill:#00abc8"/><path d="M317.41,34.6h2.09V35a9.25,9.25,0,0,0,.25,2.48,1.87,1.87,0,0,0,.84,1.12,3.83,3.83,0,0,0,1.4.36c.63.07,1.93.11,3.9.11a11.38,11.38,0,0,0,2.49-.21,2.54,2.54,0,0,0,1.31-.67,1.69,1.69,0,0,0,.35-.86,8.87,8.87,0,0,0,.12-1.64,5,5,0,0,0-.43-2.64,2.31,2.31,0,0,0-1.67-.63l-5.79-.46a5.3,5.3,0,0,1-3.6-1.3,5.43,5.43,0,0,1-1-3.7,8.67,8.67,0,0,1,.33-2.64,3.77,3.77,0,0,1,1.06-1.65,3.35,3.35,0,0,1,1.59-.71,20.82,20.82,0,0,1,3.61-.21h.67A19.89,19.89,0,0,1,329,22a4.48,4.48,0,0,1,2,1,2.62,2.62,0,0,1,.8,1.29,7.3,7.3,0,0,1,.26,2.09c0,.24,0,.43,0,.56a3.49,3.49,0,0,1,0,.35h-2.09v-.47a7.82,7.82,0,0,0-.12-1.58,1.61,1.61,0,0,0-.39-.82,2.55,2.55,0,0,0-1.39-.55,31.15,31.15,0,0,0-3.81-.15c-1.93,0-3.15.21-3.65.65a3.51,3.51,0,0,0-.74,2.63,3.77,3.77,0,0,0,.48,2.23,2.58,2.58,0,0,0,1.88.72l5.91.49a4.7,4.7,0,0,1,3.25,1.29,5.45,5.45,0,0,1,.94,3.6A11.88,11.88,0,0,1,332,38a3.49,3.49,0,0,1-2.63,2.63,19.41,19.41,0,0,1-4.21.31h-.94a17.23,17.23,0,0,1-3.68-.27,4,4,0,0,1-1.8-.92,3.49,3.49,0,0,1-1-1.64,8.83,8.83,0,0,1-.33-2.63Z" style="fill:#00abc8"/></g></g></svg>