<?xml version="1.0" encoding="utf-8"?>
<!-- Generator: Adobe Illustrator 16.0.3, SVG Export Plug-In . SVG Version: 6.00 Build 0)  -->
<!DOCTYPE svg PUBLIC "-//W3C//DTD SVG 1.1//EN" "http://www.w3.org/Graphics/SVG/1.1/DTD/svg11.dtd">
<svg version="1.1" id="Layer_1" xmlns="http://www.w3.org/2000/svg" xmlns:xlink="http://www.w3.org/1999/xlink" x="0px" y="0px"
	 width="130px" height="38.123px" viewBox="355.945 251.439 130 38.123" enable-background="new 355.945 251.439 130 38.123"
	 xml:space="preserve">
<g id="Layer_1_1_">
	<g>
		<path d="M368.273,251.439h-12.328v4.359c4.109,0.139,8.219,0.389,12.328,0.722V251.439z"/>
		<path d="M393.762,251.439h-21.241v5.47c8.635,0.833,17.159,2.083,25.406,3.637L393.762,251.439z"/>
		<path d="M424.277,260.879h1.083v5.997c4.304,1.194,8.413,2.444,12.328,3.721v-19.158h-21.213l-5.386,11.828
			c3.637,0.833,7.219,1.722,10.662,2.638L424.277,260.879z"/>
		<path d="M358.666,257.02c-0.944-0.028-1.833-0.056-2.721-0.111l0,0l0,0v0.833l0,0v31.82h12.328v-29.904
			c1.416,0.25,2.833,0.5,4.249,0.75v29.154h12.328v-26.627c0.194,0.028,0.361,0.083,0.556,0.111l15.021,26.517h9.44l8.552-17.048
			c2.332,0.833,4.637,1.666,6.913,2.554v14.494h12.328v-9.413c6.553,2.888,12.911,6.025,19.021,9.357l0,0v0.056h12.327v-0.056h0.028
			v-4.359c-17.215-10.663-63.695-26.045-110.258-28.127C358.75,257.02,358.694,257.02,358.666,257.02z M405.146,276.261v0.056
			l-4.276-9.329c2.527,0.722,5.026,1.444,7.497,2.221L405.146,276.261z"/>
		<path d="M469.036,251.439L469.036,251.439h-12.328l0,0h-16.909v9.44h16.909v16.909c4.97,2.166,9.163,4.304,12.328,6.248v-23.157
			h16.909v-9.44H469.036z"/>
	</g>
</g>
<g id="GUIAS">
</g>
<g id="Layer_2">
</g>
</svg>
