<svg id="Capa_1" data-name="Capa 1" xmlns="http://www.w3.org/2000/svg" viewBox="0 0 510.19 128.15"><defs><style>.cls-1{fill:#002a4b;}</style></defs><title>Logo itop POSITIVO</title><path class="cls-1" d="M209.46,31.3a37,37,0,0,0-37,36.56h0v64.22h8.32V91.4a36.91,36.91,0,1,0,28.65-60.1ZM180.81,68.36v-.43a28.56,28.56,0,1,1,0,.43Z" transform="translate(-15.65 -3.93)"/><path class="cls-1" d="M82.44,96.42A28.65,28.65,0,0,1,53.77,67.86h0V36.56H64V28.27H53.79V3.93H45.47V67.86A36.94,36.94,0,0,0,82.14,104.7h.58V96.42Z" transform="translate(-15.65 -3.93)"/><rect class="cls-1" y="47.15" width="8.32" height="53.63"/><rect class="cls-1" y="24.34" width="8.32" height="8.29"/><path class="cls-1" d="M95.46,71.38c0-.35-.06-.7-.09-1C95.4,70.68,95.42,71,95.46,71.38Z" transform="translate(-15.65 -3.93)"/><path class="cls-1" d="M95.7,73c-.06-.34-.11-.7-.16-1C95.59,72.31,95.64,72.67,95.7,73Z" transform="translate(-15.65 -3.93)"/><path class="cls-1" d="M96,74.7c-.08-.39-.17-.78-.24-1.17C95.86,73.92,96,74.31,96,74.7Z" transform="translate(-15.65 -3.93)"/><path class="cls-1" d="M98.37,81.12a28.77,28.77,0,0,1-2.25-6.06A28.77,28.77,0,0,0,98.37,81.12Z" transform="translate(-15.65 -3.93)"/><path class="cls-1" d="M98.4,81.16h0l0,0Z" transform="translate(-15.65 -3.93)"/><path class="cls-1" d="M95.54,72c0-.2-.06-.39-.08-.59C95.48,71.58,95.51,71.77,95.54,72Z" transform="translate(-15.65 -3.93)"/><path class="cls-1" d="M96.12,75.06c0-.12-.06-.25-.09-.36C96.06,74.81,96.09,74.94,96.12,75.06Z" transform="translate(-15.65 -3.93)"/><path class="cls-1" d="M124.21,31.57a36.57,36.57,0,1,0,36.68,36.58A36.63,36.63,0,0,0,124.21,31.57Zm0,65.41A28.91,28.91,0,0,1,98.4,81.16h0l0,0a28.77,28.77,0,0,1-2.25-6.06c0-.12-.06-.25-.09-.36-.08-.39-.17-.78-.24-1.17A5.16,5.16,0,0,1,95.7,73c-.06-.34-.11-.7-.16-1s-.06-.39-.08-.59-.06-.7-.09-1,0-.39-.06-.59c0-.45,0-.91,0-1.36v-.24a28.61,28.61,0,0,1,4.91-16.1,8.13,8.13,0,0,0-.43,2.62A8.23,8.23,0,0,0,108,62.9a8.39,8.39,0,0,0,1.82-.21,15.86,15.86,0,0,1-1.8-7.27s0-.07,0-.1a16.09,16.09,0,0,1,14.2-15.94c.65-.05,1.33-.08,2-.08a28.84,28.84,0,1,1,0,57.68Z" transform="translate(-15.65 -3.93)"/><path class="cls-1" d="M95.79,73.53A5.16,5.16,0,0,1,95.7,73,5.16,5.16,0,0,0,95.79,73.53Z" transform="translate(-15.65 -3.93)"/><path class="cls-1" d="M95.31,69.75c0-.44,0-.89,0-1.34a29.23,29.23,0,0,0,.17,3c0-.35-.06-.7-.09-1S95.33,70,95.31,69.75Z" transform="translate(-15.65 -3.93)"/><path class="cls-1" d="M95.54,72c0-.2-.06-.37-.07-.57.08.69.19,1.37.31,2,0-.15-.06-.29-.08-.44C95.64,72.67,95.59,72.31,95.54,72Z" transform="translate(-15.65 -3.93)"/><path class="cls-1" d="M95.46,71.38s0,0,0,0,0,0,0,0Z" transform="translate(-15.65 -3.93)"/><path class="cls-1" d="M95.79,73.53h0a.19.19,0,0,1,0-.08A.19.19,0,0,0,95.79,73.53Z" transform="translate(-15.65 -3.93)"/><rect class="cls-1" x="254.36" y="19.41" width="1.38" height="83.2"/><path class="cls-1" d="M323.37,23.91V25.8H312.51V54.72h-2.23V25.8H299.36V23.91Z" transform="translate(-15.65 -3.93)"/><path class="cls-1" d="M331.17,32.71a9,9,0,0,1,3.4.63,7.63,7.63,0,0,1,2.71,1.84,8.54,8.54,0,0,1,1.79,3,11.79,11.79,0,0,1,.64,4.05,1.15,1.15,0,0,1-.14.66.57.57,0,0,1-.45.17H323.43v.41a14.57,14.57,0,0,0,.57,4.29,8.82,8.82,0,0,0,1.62,3.11,6.69,6.69,0,0,0,2.53,1.88,8.43,8.43,0,0,0,3.32.63,9.91,9.91,0,0,0,2.84-.36,10.47,10.47,0,0,0,2-.8,12.88,12.88,0,0,0,1.3-.81,1.46,1.46,0,0,1,.7-.36.51.51,0,0,1,.43.22l.57.7A6,6,0,0,1,338,53.16a10.14,10.14,0,0,1-1.92,1,15,15,0,0,1-2.27.64,12.54,12.54,0,0,1-2.44.24,10.28,10.28,0,0,1-4.06-.78A8.44,8.44,0,0,1,324.11,52a10.17,10.17,0,0,1-2-3.63,15.38,15.38,0,0,1-.72-4.91,13.51,13.51,0,0,1,.66-4.3,10,10,0,0,1,1.93-3.4A8.79,8.79,0,0,1,327,33.51,10.23,10.23,0,0,1,331.17,32.71Zm0,1.54a8.16,8.16,0,0,0-3,.53,6.5,6.5,0,0,0-2.3,1.5,7.62,7.62,0,0,0-1.57,2.35,10.72,10.72,0,0,0-.8,3.07h14.31a9.46,9.46,0,0,0-.48-3.12A6.55,6.55,0,0,0,336,36.24a6,6,0,0,0-2.09-1.48A7,7,0,0,0,331.2,34.25Z" transform="translate(-15.65 -3.93)"/><path class="cls-1" d="M359.62,36l-.21.19a.47.47,0,0,1-.28.07,1.21,1.21,0,0,1-.6-.29,7.2,7.2,0,0,0-1-.64,8.14,8.14,0,0,0-1.59-.65,8.05,8.05,0,0,0-2.3-.29,8,8,0,0,0-3.33.66,6.65,6.65,0,0,0-2.45,1.91,8.79,8.79,0,0,0-1.52,3,13.81,13.81,0,0,0-.52,4,13.9,13.9,0,0,0,.53,4,8.49,8.49,0,0,0,1.52,3,6.46,6.46,0,0,0,2.38,1.84,7.47,7.47,0,0,0,3.1.63A8,8,0,0,0,356,53a8.13,8.13,0,0,0,1.74-.8,7.67,7.67,0,0,0,1.1-.81,1.17,1.17,0,0,1,.64-.37.52.52,0,0,1,.44.22l.57.7a6.74,6.74,0,0,1-1.27,1.22,9,9,0,0,1-1.73,1,10.76,10.76,0,0,1-2.08.64A12,12,0,0,1,353,55a9.32,9.32,0,0,1-3.79-.75,8.14,8.14,0,0,1-2.95-2.18,10.1,10.1,0,0,1-1.93-3.5,16.35,16.35,0,0,1,0-9.23,10.34,10.34,0,0,1,1.91-3.53,8.64,8.64,0,0,1,3.09-2.3,10.19,10.19,0,0,1,4.18-.81,9.9,9.9,0,0,1,3.77.67,9.15,9.15,0,0,1,2.87,1.83Z" transform="translate(-15.65 -3.93)"/><path class="cls-1" d="M365.19,54.72V33.06h1.13a.59.59,0,0,1,.66.54l.2,3.27a12.1,12.1,0,0,1,3.46-3,8.64,8.64,0,0,1,4.4-1.14,8.37,8.37,0,0,1,3.16.56,5.87,5.87,0,0,1,2.26,1.64,7,7,0,0,1,1.35,2.57,11.44,11.44,0,0,1,.46,3.39V54.72H380.2V40.87a7.43,7.43,0,0,0-1.4-4.78,5.18,5.18,0,0,0-4.28-1.73,7.62,7.62,0,0,0-4,1.1,11.65,11.65,0,0,0-3.28,3V54.72Z" transform="translate(-15.65 -3.93)"/><path class="cls-1" d="M397.11,32.71a10.46,10.46,0,0,1,4.18.79,8.53,8.53,0,0,1,3.12,2.26,9.94,9.94,0,0,1,1.93,3.51,14.79,14.79,0,0,1,.67,4.61,14.57,14.57,0,0,1-.67,4.59A9.94,9.94,0,0,1,404.41,52a8.48,8.48,0,0,1-3.12,2.24,11.45,11.45,0,0,1-8.36,0A8.44,8.44,0,0,1,389.8,52a9.8,9.8,0,0,1-1.94-3.51,14.57,14.57,0,0,1-.67-4.59,14.79,14.79,0,0,1,.67-4.61,9.8,9.8,0,0,1,1.94-3.51,8.49,8.49,0,0,1,3.13-2.26A10.46,10.46,0,0,1,397.11,32.71Zm0,20.66a8.15,8.15,0,0,0,3.4-.66,6.45,6.45,0,0,0,2.42-1.91,8.26,8.26,0,0,0,1.45-3,16,16,0,0,0,0-7.85,8.49,8.49,0,0,0-1.45-3A6.58,6.58,0,0,0,400.51,35a8.84,8.84,0,0,0-6.8,0,6.42,6.42,0,0,0-2.42,1.92,8.68,8.68,0,0,0-1.47,3,16,16,0,0,0,0,7.85,8.45,8.45,0,0,0,1.47,3,6.3,6.3,0,0,0,2.42,1.91A8.15,8.15,0,0,0,397.11,53.37Z" transform="translate(-15.65 -3.93)"/><path class="cls-1" d="M415.16,23V54.72h-2.08V23Z" transform="translate(-15.65 -3.93)"/><path class="cls-1" d="M431.13,32.71a10.46,10.46,0,0,1,4.18.79,8.53,8.53,0,0,1,3.12,2.26,10.1,10.1,0,0,1,1.93,3.51,15.09,15.09,0,0,1,.67,4.61,14.87,14.87,0,0,1-.67,4.59A10.1,10.1,0,0,1,438.43,52a8.48,8.48,0,0,1-3.12,2.24,11.48,11.48,0,0,1-8.37,0A8.48,8.48,0,0,1,423.82,52a10,10,0,0,1-1.95-3.51,14.87,14.87,0,0,1-.66-4.59,15.1,15.1,0,0,1,.66-4.61,10,10,0,0,1,1.95-3.51,8.53,8.53,0,0,1,3.12-2.26A10.51,10.51,0,0,1,431.13,32.71Zm0,20.66a8.18,8.18,0,0,0,3.4-.66A6.45,6.45,0,0,0,437,50.8a8.26,8.26,0,0,0,1.45-3,16.29,16.29,0,0,0,0-7.85,8.49,8.49,0,0,0-1.45-3A6.58,6.58,0,0,0,434.53,35a8.84,8.84,0,0,0-6.8,0,6.53,6.53,0,0,0-2.43,1.92,8.85,8.85,0,0,0-1.46,3,16,16,0,0,0,0,7.85,8.61,8.61,0,0,0,1.46,3,6.41,6.41,0,0,0,2.43,1.91A8.15,8.15,0,0,0,431.13,53.37Z" transform="translate(-15.65 -3.93)"/><path class="cls-1" d="M453.65,32.69a9.64,9.64,0,0,1,2.64.34,8.11,8.11,0,0,1,2.17,1H464v.72c0,.37-.2.56-.61.59l-3.3.24a6.26,6.26,0,0,1,.94,1.86,7.25,7.25,0,0,1,.33,2.21,6.83,6.83,0,0,1-.57,2.84,6.4,6.4,0,0,1-1.58,2.18,7.24,7.24,0,0,1-2.44,1.41,9.55,9.55,0,0,1-3.15.5,9.66,9.66,0,0,1-3.4-.57,4.47,4.47,0,0,0-1.45,1.24,2.39,2.39,0,0,0-.52,1.4,1.68,1.68,0,0,0,.66,1.43,4.11,4.11,0,0,0,1.73.73,15.31,15.31,0,0,0,2.47.3l2.82.14q1.43.08,2.82.27a8.93,8.93,0,0,1,2.47.69A4.22,4.22,0,0,1,463,53.56a3.82,3.82,0,0,1,.66,2.34,5.36,5.36,0,0,1-.68,2.59,6.85,6.85,0,0,1-1.95,2.2,10.57,10.57,0,0,1-3.1,1.54,13.5,13.5,0,0,1-4.06.57,15.54,15.54,0,0,1-4-.46,9.65,9.65,0,0,1-2.89-1.27,5.48,5.48,0,0,1-1.76-1.84,4.34,4.34,0,0,1-.59-2.22,4.21,4.21,0,0,1,1.13-3,7.32,7.32,0,0,1,3.13-1.92,4.08,4.08,0,0,1-1.74-1.06,2.76,2.76,0,0,1-.65-1.94,2.8,2.8,0,0,1,.18-1,4.29,4.29,0,0,1,.52-1,5.75,5.75,0,0,1,2-1.71,6.48,6.48,0,0,1-2.41-2.38,6.69,6.69,0,0,1-.87-3.46,7.06,7.06,0,0,1,.56-2.84A6.28,6.28,0,0,1,448,34.6a6.94,6.94,0,0,1,2.45-1.41A9.57,9.57,0,0,1,453.65,32.69Zm8.07,23.49a2.4,2.4,0,0,0-.54-1.64,3.56,3.56,0,0,0-1.43-1,9,9,0,0,0-2.06-.49c-.78-.09-1.6-.16-2.45-.21l-2.57-.13a19,19,0,0,1-2.4-.26,10.49,10.49,0,0,0-1.54.75,6,6,0,0,0-1.22,1,4.32,4.32,0,0,0-.78,1.18,3.46,3.46,0,0,0,.21,3.18A4.23,4.23,0,0,0,448.38,60a8,8,0,0,0,2.32.95,13.13,13.13,0,0,0,3.17.35,12.58,12.58,0,0,0,3.09-.37,8.57,8.57,0,0,0,2.49-1,5.37,5.37,0,0,0,1.67-1.61A3.72,3.72,0,0,0,461.72,56.18Zm-8.07-11a7.07,7.07,0,0,0,2.49-.4A5.22,5.22,0,0,0,458,43.62a4.82,4.82,0,0,0,1.13-1.72,6.31,6.31,0,0,0,.38-2.22,6.2,6.2,0,0,0-.39-2.24A4.9,4.9,0,0,0,458,35.71a5.15,5.15,0,0,0-1.84-1.11,8,8,0,0,0-4.92,0,5.11,5.11,0,0,0-1.85,1.11,4.77,4.77,0,0,0-1.15,1.73,6.2,6.2,0,0,0-.39,2.24,6.09,6.09,0,0,0,.39,2.22,4.73,4.73,0,0,0,1.15,1.72,5.27,5.27,0,0,0,1.85,1.12A7,7,0,0,0,453.65,45.14Z" transform="translate(-15.65 -3.93)"/><path class="cls-1" d="M475.15,23.56l-4.72,5.51a.8.8,0,0,1-.36.29,1.17,1.17,0,0,1-.45.08h-1.24l3.43-5.18a1.6,1.6,0,0,1,.5-.55,1.65,1.65,0,0,1,.79-.15Zm-3.93,9.5V54.72h-2.08V33.06Z" transform="translate(-15.65 -3.93)"/><path class="cls-1" d="M492.79,54.72a.74.74,0,0,1-.81-.61l-.31-2.76c-.6.58-1.19,1.1-1.78,1.57A10.65,10.65,0,0,1,488,54.09a8.75,8.75,0,0,1-2.07.73,11,11,0,0,1-2.45.25,7.48,7.48,0,0,1-2.16-.32,5.25,5.25,0,0,1-1.86-1A4.79,4.79,0,0,1,478.2,52a5.92,5.92,0,0,1-.49-2.53,4.44,4.44,0,0,1,.79-2.55,6.37,6.37,0,0,1,2.45-2,16.41,16.41,0,0,1,4.31-1.39,37.61,37.61,0,0,1,6.33-.61V40.61a7.31,7.31,0,0,0-1.3-4.63,4.67,4.67,0,0,0-3.86-1.62,7.34,7.34,0,0,0-2.68.44,9.57,9.57,0,0,0-1.87,1,10.66,10.66,0,0,0-1.24,1,1.36,1.36,0,0,1-.81.44.72.72,0,0,1-.66-.39l-.37-.63a12.45,12.45,0,0,1,3.59-2.57,10,10,0,0,1,4.26-.87,7.85,7.85,0,0,1,3.06.55,5.7,5.7,0,0,1,2.17,1.59,7,7,0,0,1,1.3,2.5,11.57,11.57,0,0,1,.44,3.28V54.72Zm-8.74-1.15a9.35,9.35,0,0,0,2.32-.27,8.76,8.76,0,0,0,2-.76A9.42,9.42,0,0,0,490,51.37c.53-.45,1-.94,1.56-1.46V44.27a40,40,0,0,0-5.35.47,15.56,15.56,0,0,0-3.69,1,5.48,5.48,0,0,0-2.14,1.56,3.3,3.3,0,0,0-.69,2.06,4.5,4.5,0,0,0,.36,1.88,3.61,3.61,0,0,0,2.33,2.06A5.56,5.56,0,0,0,484.05,53.57Z" transform="translate(-15.65 -3.93)"/><path class="cls-1" d="M513.35,61.69a1.57,1.57,0,0,1-.34.51.85.85,0,0,1-.6.19h-1.49l3.83-8.47-9.2-20.86h1.72a.77.77,0,0,1,.52.16,1.14,1.14,0,0,1,.27.36l7.32,16.85c.09.22.16.44.23.67s.13.45.18.68c.08-.23.15-.46.23-.68s.17-.45.26-.67l7.23-16.85a.88.88,0,0,1,.3-.38.7.7,0,0,1,.44-.14h1.6Z" transform="translate(-15.65 -3.93)"/><path class="cls-1" d="M304.75,76.25a1,1,0,0,1,.37.34l20,26.7a11,11,0,0,1-.07-1.26V76.18h2V107H326a.93.93,0,0,1-.81-.43l-20.1-26.75c0,.44.06.85.06,1.24V107h-1.94V76.18h1.09A1.28,1.28,0,0,1,304.75,76.25Z" transform="translate(-15.65 -3.93)"/><path class="cls-1" d="M343.36,85a9,9,0,0,1,3.4.63,7.63,7.63,0,0,1,2.71,1.84,8.45,8.45,0,0,1,1.79,3,11.79,11.79,0,0,1,.64,4,1,1,0,0,1-.14.65.53.53,0,0,1-.45.18H335.62v.41a14.57,14.57,0,0,0,.57,4.29,8.82,8.82,0,0,0,1.62,3.11,6.72,6.72,0,0,0,2.54,1.88,8.4,8.4,0,0,0,3.32.63,10,10,0,0,0,2.84-.36,11.32,11.32,0,0,0,2-.8,11.83,11.83,0,0,0,1.3-.81,1.46,1.46,0,0,1,.7-.36.48.48,0,0,1,.43.22l.57.7a6,6,0,0,1-1.39,1.22,9.56,9.56,0,0,1-1.92,1A13.68,13.68,0,0,1,346,107a12.54,12.54,0,0,1-2.44.24,10.28,10.28,0,0,1-4.06-.78,8.6,8.6,0,0,1-3.15-2.25,10.32,10.32,0,0,1-2-3.63,15.38,15.38,0,0,1-.72-4.91,13.19,13.19,0,0,1,.67-4.3,9.86,9.86,0,0,1,1.92-3.4,8.79,8.79,0,0,1,3.08-2.23A10.13,10.13,0,0,1,343.36,85Zm0,1.54a8.37,8.37,0,0,0-3,.52,6.53,6.53,0,0,0-2.3,1.51,7.5,7.5,0,0,0-1.57,2.35,10.64,10.64,0,0,0-.8,3.07H350a9.3,9.3,0,0,0-.49-3.13,6.72,6.72,0,0,0-1.35-2.34A6,6,0,0,0,346.1,87,7,7,0,0,0,343.39,86.52Z" transform="translate(-15.65 -3.93)"/><path class="cls-1" d="M364.66,85a9.63,9.63,0,0,1,2.64.35,7.81,7.81,0,0,1,2.17,1H375V87c0,.36-.2.56-.61.59l-3.3.24a6.26,6.26,0,0,1,.94,1.86,7.25,7.25,0,0,1,.33,2.21,6.86,6.86,0,0,1-.57,2.84,6.4,6.4,0,0,1-1.58,2.18,7.41,7.41,0,0,1-2.44,1.41,9.55,9.55,0,0,1-3.15.5,9.66,9.66,0,0,1-3.4-.57,4.47,4.47,0,0,0-1.45,1.24,2.39,2.39,0,0,0-.52,1.4,1.68,1.68,0,0,0,.66,1.43,4.11,4.11,0,0,0,1.73.73,15.31,15.31,0,0,0,2.47.3l2.82.14q1.42.07,2.82.27a8.93,8.93,0,0,1,2.47.69,4.22,4.22,0,0,1,1.73,1.37,3.82,3.82,0,0,1,.66,2.34,5.36,5.36,0,0,1-.68,2.59,6.85,6.85,0,0,1-2,2.2,10.57,10.57,0,0,1-3.1,1.54,13.5,13.5,0,0,1-4.06.57,15.09,15.09,0,0,1-4-.47,9.4,9.4,0,0,1-2.89-1.26,5.48,5.48,0,0,1-1.76-1.84,4.4,4.4,0,0,1-.59-2.22,4.21,4.21,0,0,1,1.13-3,7.32,7.32,0,0,1,3.13-1.92,4,4,0,0,1-1.74-1.07,2.73,2.73,0,0,1-.65-1.93,2.8,2.8,0,0,1,.18-1,3.93,3.93,0,0,1,.52-1,5.75,5.75,0,0,1,2-1.71,6.48,6.48,0,0,1-2.41-2.38,6.69,6.69,0,0,1-.87-3.46,7.06,7.06,0,0,1,.56-2.84A6.28,6.28,0,0,1,359,86.87a7.12,7.12,0,0,1,2.45-1.42A9.83,9.83,0,0,1,364.66,85Zm8.07,23.5a2.4,2.4,0,0,0-.54-1.64,3.46,3.46,0,0,0-1.43-1,8.53,8.53,0,0,0-2.06-.49c-.78-.09-1.6-.16-2.45-.21l-2.57-.13a19,19,0,0,1-2.4-.26,10.49,10.49,0,0,0-1.54.75,5.4,5.4,0,0,0-1.22,1,4.32,4.32,0,0,0-.78,1.18,3.46,3.46,0,0,0,.21,3.18,4.23,4.23,0,0,0,1.44,1.41,8,8,0,0,0,2.32,1,13.13,13.13,0,0,0,3.17.35,12.58,12.58,0,0,0,3.09-.37,8.57,8.57,0,0,0,2.49-1,5.33,5.33,0,0,0,1.66-1.61A3.65,3.65,0,0,0,372.73,108.45Zm-8.07-11a7.07,7.07,0,0,0,2.49-.4A5.22,5.22,0,0,0,369,95.89a4.9,4.9,0,0,0,1.13-1.72,6.32,6.32,0,0,0,.38-2.23,6.18,6.18,0,0,0-.39-2.23A4.9,4.9,0,0,0,369,88a5.24,5.24,0,0,0-1.84-1.11,8,8,0,0,0-4.92,0A5.11,5.11,0,0,0,360.35,88a4.77,4.77,0,0,0-1.15,1.73,6.18,6.18,0,0,0-.39,2.23,6.1,6.1,0,0,0,.39,2.23,4.82,4.82,0,0,0,1.15,1.72A5.27,5.27,0,0,0,362.2,97,7,7,0,0,0,364.66,97.41Z" transform="translate(-15.65 -3.93)"/><path class="cls-1" d="M387.82,85a10.51,10.51,0,0,1,4.19.79A8.5,8.5,0,0,1,395.12,88a10.09,10.09,0,0,1,1.94,3.52,15.05,15.05,0,0,1,.66,4.61,14.87,14.87,0,0,1-.66,4.59,10,10,0,0,1-1.94,3.51,8.37,8.37,0,0,1-3.11,2.24,11.48,11.48,0,0,1-8.37,0,8.48,8.48,0,0,1-3.12-2.24,9.82,9.82,0,0,1-1.95-3.51,14.87,14.87,0,0,1-.67-4.59,15,15,0,0,1,.67-4.61A10,10,0,0,1,380.52,88a8.62,8.62,0,0,1,3.12-2.25A10.49,10.49,0,0,1,387.82,85Zm0,20.66a8.15,8.15,0,0,0,3.4-.66,6.41,6.41,0,0,0,2.43-1.91,8.42,8.42,0,0,0,1.45-3,16.29,16.29,0,0,0,0-7.85,8.66,8.66,0,0,0-1.45-3,6.56,6.56,0,0,0-2.43-1.93,8.94,8.94,0,0,0-6.79,0A6.56,6.56,0,0,0,382,89.21a8.67,8.67,0,0,0-1.46,3,15.66,15.66,0,0,0,0,7.85,8.44,8.44,0,0,0,1.46,3,6.41,6.41,0,0,0,2.43,1.91A8.1,8.1,0,0,0,387.82,105.64Z" transform="translate(-15.65 -3.93)"/><path class="cls-1" d="M417.5,88.22l-.21.19a.45.45,0,0,1-.27.07,1.2,1.2,0,0,1-.61-.29,7.2,7.2,0,0,0-1-.64,8.41,8.41,0,0,0-1.59-.65,8.05,8.05,0,0,0-2.3-.29,8,8,0,0,0-3.33.66,6.65,6.65,0,0,0-2.45,1.91,8.83,8.83,0,0,0-1.52,3,13.93,13.93,0,0,0-.52,4,14.25,14.25,0,0,0,.53,4,8.58,8.58,0,0,0,1.52,3,6.46,6.46,0,0,0,2.38,1.84,7.47,7.47,0,0,0,3.1.63,8,8,0,0,0,2.64-.37,8.47,8.47,0,0,0,1.75-.8,8.11,8.11,0,0,0,1.09-.81,1.11,1.11,0,0,1,.64-.37.5.5,0,0,1,.44.22l.57.7a6.74,6.74,0,0,1-1.27,1.22,9.28,9.28,0,0,1-1.73,1,10.76,10.76,0,0,1-2.08.64,12,12,0,0,1-2.35.23,9.36,9.36,0,0,1-3.79-.75,8.26,8.26,0,0,1-2.95-2.18,10.09,10.09,0,0,1-1.92-3.5,16.23,16.23,0,0,1,0-9.23,10.34,10.34,0,0,1,1.91-3.53,8.69,8.69,0,0,1,3.08-2.3A10.27,10.27,0,0,1,411.4,85a9.9,9.9,0,0,1,3.77.67A9.15,9.15,0,0,1,418,87.48Z" transform="translate(-15.65 -3.93)"/><path class="cls-1" d="M426.67,77.85a1.6,1.6,0,0,1-.16.73,2.15,2.15,0,0,1-1,1,1.85,1.85,0,0,1-.74.15,1.9,1.9,0,0,1-.75-.15,2.14,2.14,0,0,1-.61-.42,1.94,1.94,0,0,1-.41-.6,1.74,1.74,0,0,1-.16-.73,1.94,1.94,0,0,1,.16-.75,2,2,0,0,1,.41-.62,2.11,2.11,0,0,1,.61-.41,1.9,1.9,0,0,1,.75-.15,1.85,1.85,0,0,1,.74.15,2,2,0,0,1,.61.41,2.09,2.09,0,0,1,.43.62A1.78,1.78,0,0,1,426.67,77.85Zm-.92,7.47V107h-2.07V85.32Z" transform="translate(-15.65 -3.93)"/><path class="cls-1" d="M441.72,85a10.51,10.51,0,0,1,4.19.79A8.5,8.5,0,0,1,449,88,10.09,10.09,0,0,1,451,91.54a15.05,15.05,0,0,1,.66,4.61,14.87,14.87,0,0,1-.66,4.59,10,10,0,0,1-1.94,3.51,8.37,8.37,0,0,1-3.11,2.24,11.48,11.48,0,0,1-8.37,0,8.48,8.48,0,0,1-3.12-2.24,9.82,9.82,0,0,1-1.95-3.51,14.87,14.87,0,0,1-.66-4.59,15.05,15.05,0,0,1,.66-4.61A10,10,0,0,1,434.42,88a8.62,8.62,0,0,1,3.12-2.25A10.49,10.49,0,0,1,441.72,85Zm0,20.66a8.15,8.15,0,0,0,3.4-.66,6.41,6.41,0,0,0,2.43-1.91,8.26,8.26,0,0,0,1.45-3,16.29,16.29,0,0,0,0-7.85,8.49,8.49,0,0,0-1.45-3,6.56,6.56,0,0,0-2.43-1.93,8.94,8.94,0,0,0-6.79,0,6.56,6.56,0,0,0-2.43,1.93,8.67,8.67,0,0,0-1.46,3,16,16,0,0,0,0,7.85,8.44,8.44,0,0,0,1.46,3,6.41,6.41,0,0,0,2.43,1.91A8.14,8.14,0,0,0,441.72,105.64Z" transform="translate(-15.65 -3.93)"/></svg>