<?xml version="1.0" encoding="utf-8"?>
<!-- Generator: Adobe Illustrator 16.0.0, SVG Export Plug-In . SVG Version: 6.00 Build 0)  -->
<!DOCTYPE svg PUBLIC "-//W3C//DTD SVG 1.1//EN" "http://www.w3.org/Graphics/SVG/1.1/DTD/svg11.dtd">
<svg version="1.1" id="Capa_1" xmlns="http://www.w3.org/2000/svg" xmlns:xlink="http://www.w3.org/1999/xlink" x="0px" y="0px"
	 width="208px" height="90px" viewBox="0 0 208 90" enable-background="new 0 0 208 90" xml:space="preserve">
<g>
	<g>
		<path fill="#052851" d="M68.367,42.288H53.545V28.76c0-1.101-0.096-2.199-0.285-3.292c-0.195-1.092-0.521-1.897-0.989-2.416
			c-0.547-0.6-1.349-1.037-2.399-1.312c-1.059-0.275-2.528-0.414-4.419-0.414c-1.338,0-2.705,0.13-4.083,0.389
			c-1.385,0.258-2.883,0.672-4.497,1.239v19.333H22.047V15.012h14.827v3.013c2.622-1.215,5.144-2.146,7.562-2.793
			c2.421-0.648,5.11-0.973,8.062-0.973c4.977,0,8.864,0.859,11.667,2.575c2.804,1.717,4.203,4.284,4.203,7.701V42.288z"/>
		<path fill="#052851" d="M139.834,42.288h-19.201l-5.021-8.446H88.934l-5.027,8.446h-18.73L91.806,0.5h21.401L139.834,42.288z
			 M111.141,26.178l-8.866-14.97l-8.872,14.97H111.141z"/>
		<path fill="#052851" d="M172.168,24.43h-1.447c-0.691-0.121-1.803-0.214-3.342-0.273c-1.535-0.062-2.814-0.092-3.842-0.092
			c-2.316,0-4.365,0.076-6.145,0.229c-1.773,0.151-3.688,0.412-5.734,0.778v17.216h-16.348v-25.71h16.348v3.778
			c3.58-1.558,6.701-2.591,9.348-3.102c2.652-0.512,5.09-0.768,7.322-0.768c0.572,0,1.223,0.007,1.947,0.024
			c0.721,0.015,1.35,0.038,1.893,0.067V24.43z"/>
		<path fill="#052851" d="M38.206,73.085c-3.04,0.992-4.828,1.184-6.719,1.323c-1.885,0.139-4.199,0.208-6.933,0.208
			c-6.108,0-10.648-0.697-13.631-2.088c-2.976-1.393-4.468-3.771-4.468-7.146V52.49H0v-5.991h6.454v-7.884h15.744v7.884h14.655
			v5.991H22.198v9.788c0,0.968,0.015,1.812,0.043,2.534c0.029,0.719,0.263,1.367,0.693,1.941c0.407,0.573,1.126,1.029,2.154,1.365
			c1.03,0.336,2.531,0.504,4.502,0.504c0.807,0,1.873-0.099,3.192-0.295c1.325-0.195,2.238-0.377,2.764-0.539l2.658-0.748V73.085z"
			/>
		<path fill="#052851" d="M97.619,65.832h-44.03c0.285,2.615,2.073,4.62,5.369,6.005c3.298,1.387,8.147,2.082,14.558,2.082
			c4.061,0,10.467-0.772,14.281-1.585c3.809-0.813,10.481-2.641,15.029-4.363l-2.655,9.802l-3.676,0.904
			c-4.346,0.973-8.441,1.678-12.286,2.11c-3.852,0.438-8.111,0.657-12.777,0.657c-12.039,0-21.265-1.509-27.676-4.52
			c-6.409-3.016-9.618-7.305-9.618-12.879c0-5.511,3.037-9.876,9.112-13.099c6.071-3.22,14.402-4.831,24.982-4.831
			c9.755,0,17.099,1.371,22.014,4.118c4.917,2.746,7.375,6.696,7.375,11.851V65.832z M78.487,59.558
			c-0.106-2.241-1.101-3.925-2.994-5.055c-1.883-1.132-4.824-1.698-8.816-1.698c-3.705,0-6.748,0.537-9.133,1.607
			c-2.39,1.071-3.728,2.785-4.008,5.146H78.487z"/>
		<path fill="#052851" d="M163.641,77.893h-22.66L126.574,65.65l-14.697,12.242H90.121l22.688-18.785l-22.194-18.51h22.606
			l13.93,11.615l14.326-11.615h21.805l-22.305,18.116L163.641,77.893z"/>
	</g>
	<path fill="#FE6612" d="M184.807,78.723h-21.752l22.686-19.206l-22.195-18.919h22.607l21.555,18.52L184.807,78.723z"/>
	<g>
		<path fill="#052851" d="M105.24,86.665c0,0.842-0.38,1.518-1.135,2.033c-0.756,0.516-1.785,0.772-3.097,0.772
			c-0.723,0-1.381-0.067-1.969-0.202c-0.587-0.136-1.064-0.286-1.419-0.45v-2.144h0.237c0.133,0.09,0.284,0.188,0.454,0.297
			c0.17,0.11,0.417,0.226,0.729,0.354c0.272,0.112,0.579,0.207,0.921,0.284c0.343,0.083,0.71,0.121,1.103,0.121
			c0.51,0,0.893-0.056,1.136-0.172c0.246-0.111,0.373-0.279,0.373-0.502c0-0.199-0.075-0.342-0.22-0.431
			c-0.146-0.091-0.422-0.176-0.825-0.259c-0.196-0.042-0.456-0.091-0.787-0.141c-0.33-0.053-0.633-0.112-0.904-0.184
			c-0.74-0.195-1.288-0.495-1.646-0.904c-0.356-0.407-0.539-0.917-0.539-1.525c0-0.782,0.37-1.436,1.115-1.953
			c0.741-0.521,1.756-0.782,3.038-0.782c0.612,0,1.196,0.063,1.753,0.188c0.56,0.124,0.992,0.255,1.31,0.396v2.058h-0.225
			c-0.385-0.265-0.829-0.483-1.324-0.649c-0.494-0.166-0.997-0.249-1.506-0.249c-0.418,0-0.772,0.058-1.059,0.174
			c-0.289,0.116-0.43,0.282-0.43,0.492c0,0.193,0.064,0.341,0.197,0.442c0.126,0.103,0.433,0.203,0.919,0.306
			c0.265,0.052,0.55,0.104,0.856,0.156c0.308,0.051,0.615,0.116,0.926,0.191c0.688,0.178,1.191,0.46,1.523,0.844
			C105.072,85.61,105.24,86.093,105.24,86.665z"/>
		<path fill="#052851" d="M115.586,85.18c0,1.338-0.387,2.393-1.168,3.163c-0.777,0.771-1.877,1.157-3.285,1.157
			c-1.412,0-2.514-0.387-3.289-1.157c-0.783-0.771-1.172-1.825-1.172-3.163c0-1.349,0.393-2.407,1.178-3.176
			s1.877-1.154,3.283-1.154c1.418,0,2.518,0.388,3.293,1.16C115.205,82.784,115.586,83.841,115.586,85.18z M112.377,87.157
			c0.17-0.207,0.295-0.458,0.381-0.749c0.084-0.292,0.125-0.697,0.125-1.215c0-0.478-0.041-0.879-0.127-1.202
			c-0.088-0.326-0.209-0.585-0.361-0.778c-0.156-0.196-0.344-0.336-0.561-0.419c-0.219-0.083-0.453-0.123-0.701-0.123
			c-0.254,0-0.479,0.034-0.67,0.102c-0.201,0.068-0.387,0.203-0.566,0.404c-0.156,0.189-0.285,0.448-0.381,0.778
			c-0.096,0.328-0.141,0.741-0.141,1.238c0,0.445,0.043,0.83,0.125,1.156c0.078,0.326,0.201,0.589,0.365,0.786
			c0.148,0.189,0.334,0.326,0.549,0.413s0.461,0.13,0.734,0.13c0.24,0,0.467-0.039,0.682-0.12
			C112.045,87.481,112.227,87.347,112.377,87.157z"/>
		<path fill="#052851" d="M123.031,79.88h-0.193c-0.117-0.033-0.268-0.071-0.449-0.116c-0.191-0.042-0.385-0.065-0.6-0.065
			c-0.508,0-0.855,0.093-1.033,0.276c-0.184,0.183-0.275,0.538-0.275,1.065v0.064h2.01v1.769h-1.924v6.374h-2.615v-6.374h-1.117
			v-1.769h1.117v-0.227c0-0.994,0.264-1.738,0.793-2.238c0.527-0.496,1.332-0.747,2.404-0.747c0.385,0,0.736,0.013,1.049,0.04
			s0.594,0.062,0.834,0.106V79.88z"/>
		<path fill="#052851" d="M129.527,89.176c-0.279,0.071-0.58,0.125-0.891,0.168c-0.312,0.04-0.701,0.062-1.154,0.062
			c-1.012,0-1.768-0.207-2.262-0.616c-0.494-0.411-0.744-1.114-0.744-2.111v-3.805h-1.074v-1.769h1.074v-2.326h2.613v2.326h2.438
			v1.769h-2.438v2.892c0,0.284,0.004,0.535,0.008,0.747c0.004,0.213,0.047,0.404,0.119,0.572c0.068,0.172,0.184,0.303,0.355,0.403
			s0.42,0.148,0.752,0.148c0.131,0,0.309-0.028,0.527-0.087c0.217-0.058,0.373-0.109,0.459-0.158h0.217V89.176z"/>
		<path fill="#052851" d="M144.365,81.104l-2.521,8.143h-2.77l-1.658-5.489l-1.641,5.489h-2.797l-2.5-8.143h2.736l1.398,5.61
			l1.736-5.61h2.312l1.652,5.61l1.375-5.61H144.365z"/>
		<path fill="#052851" d="M151.154,88.384c-0.141,0.106-0.316,0.233-0.523,0.384c-0.211,0.151-0.402,0.269-0.588,0.354
			c-0.258,0.118-0.521,0.203-0.795,0.259c-0.277,0.057-0.58,0.083-0.908,0.083c-0.773,0-1.422-0.239-1.945-0.718
			c-0.52-0.479-0.779-1.088-0.779-1.833c0-0.595,0.131-1.08,0.395-1.456c0.271-0.379,0.646-0.677,1.133-0.891
			c0.486-0.221,1.086-0.375,1.799-0.466c0.717-0.093,1.457-0.16,2.229-0.205v-0.042c0-0.45-0.186-0.761-0.553-0.931
			c-0.373-0.174-0.908-0.259-1.625-0.259c-0.43,0-0.889,0.075-1.375,0.229c-0.492,0.15-0.838,0.269-1.053,0.352h-0.242V81.28
			c0.279-0.074,0.727-0.161,1.346-0.257c0.625-0.101,1.244-0.151,1.869-0.151c1.484,0,2.553,0.229,3.213,0.686
			c0.662,0.456,0.988,1.175,0.988,2.148v5.541h-2.584V88.384z M151.154,87.116v-1.689c-0.355,0.029-0.736,0.067-1.148,0.118
			c-0.408,0.05-0.721,0.107-0.93,0.177c-0.262,0.082-0.461,0.201-0.604,0.357c-0.137,0.157-0.203,0.361-0.203,0.618
			c0,0.168,0.012,0.306,0.043,0.412c0.027,0.105,0.1,0.208,0.219,0.303c0.107,0.097,0.238,0.168,0.396,0.215
			c0.156,0.044,0.393,0.067,0.723,0.067c0.26,0,0.529-0.055,0.799-0.158C150.715,87.43,150.949,87.29,151.154,87.116z"/>
		<path fill="#052851" d="M162.338,83.592h-0.23c-0.113-0.039-0.291-0.067-0.537-0.087s-0.449-0.029-0.613-0.029
			c-0.371,0-0.701,0.023-0.984,0.071c-0.283,0.049-0.592,0.132-0.922,0.248v5.452h-2.617v-8.143h2.617v1.197
			c0.576-0.494,1.074-0.823,1.5-0.983c0.424-0.16,0.816-0.243,1.17-0.243c0.092,0,0.197,0.004,0.316,0.008
			c0.111,0.004,0.215,0.012,0.301,0.021V83.592z"/>
		<path fill="#052851" d="M172.133,85.658h-5.975c0.039,0.638,0.285,1.124,0.73,1.464c0.443,0.338,1.105,0.509,1.973,0.509
			c0.553,0,1.088-0.101,1.605-0.298c0.518-0.199,0.924-0.413,1.223-0.638h0.291v2.094c-0.59,0.237-1.145,0.409-1.67,0.514
			c-0.52,0.106-1.098,0.16-1.73,0.16c-1.633,0-2.887-0.366-3.756-1.103c-0.869-0.733-1.307-1.78-1.307-3.137
			c0-1.344,0.414-2.41,1.238-3.194s1.955-1.18,3.389-1.18c1.322,0,2.322,0.338,2.984,1.006c0.668,0.668,1.004,1.632,1.004,2.888
			V85.658z M169.539,84.129c-0.014-0.547-0.152-0.958-0.408-1.234c-0.258-0.274-0.654-0.413-1.193-0.413
			c-0.508,0-0.918,0.131-1.244,0.392c-0.324,0.261-0.504,0.68-0.545,1.256H169.539z"/>
	</g>
</g>
</svg>
