<!DOCTYPE svg PUBLIC "-//W3C//DTD SVG 20010904//EN" "http://www.w3.org/TR/2001/REC-SVG-20010904/DTD/svg10.dtd">
<svg version="1.0" xmlns="http://www.w3.org/2000/svg" width="93px" height="93px" viewBox="0 0 930 930" preserveAspectRatio="xMidYMid meet">
<g id="layer101" fill="#990608" stroke="none">
 <path d="M182 900 c-73 -31 -158 -177 -168 -285 -13 -144 23 -222 132 -287 45 -28 55 -38 60 -68 10 -66 13 -76 31 -97 10 -11 35 -26 56 -34 21 -7 50 -29 64 -47 39 -52 79 -72 146 -72 65 0 98 14 142 59 l29 31 13 -22 c7 -13 12 -35 13 -50 0 -25 4 -28 35 -28 34 0 35 1 36 38 l1 37 9 -33 c9 -30 13 -33 42 -30 29 3 32 6 32 36 0 27 4 32 22 32 19 0 23 6 23 30 0 40 -34 110 -71 146 -16 15 -55 42 -86 59 -74 39 -79 55 -18 55 40 0 52 5 76 31 23 25 29 40 29 75 0 40 2 44 24 44 13 0 35 9 50 21 22 17 26 29 26 68 0 36 -5 53 -21 67 -25 23 -92 24 -117 1 -11 -10 -24 -12 -37 -7 -37 15 -109 11 -141 -9 -17 -10 -42 -36 -55 -57 l-24 -39 -7 60 c-19 146 -60 215 -154 260 -44 21 -158 30 -192 15z m167 -121 c17 -17 31 -36 31 -42 0 -6 -6 -4 -12 5 -25 30 -63 48 -108 49 -41 1 -42 2 -15 9 55 14 73 10 104 -21z m-31 -115 c30 -34 28 -47 -10 -83 -39 -36 -65 -39 -102 -10 -37 29 -36 80 1 109 35 27 79 21 111 -16z m5 -425 c-6 -6 -7 3 -4 23 4 28 6 29 9 9 2 -13 0 -27 -5 -32z m221 -15 c-14 -20 -19 -22 -31 -12 -13 11 -12 15 7 30 29 24 44 13 24 -18z m-81 -91 c15 -17 32 -23 61 -24 35 0 38 -2 18 -9 -13 -6 -32 -6 -47 0 -32 12 -75 58 -75 79 1 12 3 12 12 -4 6 -11 20 -30 31 -42z"/>
 </g>
<g id="layer102" fill="#f7f3f3" stroke="none">
 <path d="M182 900 c-73 -31 -158 -177 -168 -285 -13 -144 23 -222 132 -287 45 -28 55 -38 60 -68 10 -66 13 -76 31 -97 10 -11 35 -26 56 -34 21 -7 50 -29 64 -47 39 -52 79 -72 146 -72 65 0 98 14 142 59 l29 31 13 -22 c7 -13 12 -35 13 -50 0 -25 4 -28 35 -28 34 0 35 1 36 38 l1 37 9 -33 c9 -30 13 -33 42 -30 29 3 32 6 32 36 0 27 4 32 22 32 19 0 23 6 23 30 0 40 -34 110 -71 146 -16 15 -55 42 -86 59 -74 39 -79 55 -18 55 40 0 52 5 76 31 23 25 29 40 29 75 0 40 2 44 24 44 13 0 35 9 50 21 22 17 26 29 26 68 0 36 -5 53 -21 67 -25 23 -92 24 -117 1 -11 -10 -24 -12 -37 -7 -37 15 -109 11 -141 -9 -17 -10 -42 -36 -55 -57 l-24 -39 -7 60 c-19 146 -60 215 -154 260 -44 21 -158 30 -192 15z m177 -35 c47 -24 91 -65 110 -104 16 -33 30 -101 47 -236 7 -60 29 -115 45 -115 8 0 10 16 5 56 -8 72 6 123 45 159 26 26 37 30 83 29 29 -1 62 -6 73 -12 16 -9 23 -7 36 9 23 26 83 26 97 0 26 -50 -1 -101 -56 -101 -26 0 -36 7 -54 34 -14 23 -32 37 -53 42 -64 15 -107 -6 -131 -67 -25 -61 -21 -109 13 -149 15 -19 36 -49 45 -67 11 -22 32 -39 64 -53 62 -27 116 -81 137 -137 31 -80 1 -66 -58 27 -23 35 -94 83 -109 74 -5 -3 17 -31 49 -62 58 -57 104 -144 82 -157 -15 -10 -29 5 -29 32 0 19 -15 41 -52 77 -58 56 -73 49 -32 -15 33 -53 44 -119 20 -119 -12 0 -16 9 -16 34 0 32 -31 86 -50 86 -5 0 -29 -21 -54 -47 -44 -47 -45 -48 -111 -48 l-66 0 -50 53 c-28 28 -55 52 -60 52 -6 0 -23 7 -39 15 -35 18 -60 62 -60 106 0 33 -14 48 -100 112 -60 44 -87 87 -95 152 -12 96 16 190 84 283 49 66 85 84 154 78 32 -3 70 -12 86 -21z m424 -316 c36 -39 36 -86 1 -128 -21 -26 -33 -31 -68 -31 -53 0 -82 21 -97 70 -14 46 1 78 54 111 40 24 73 18 110 -22z"/>
 <path d="M230 823 c-35 -7 -65 -37 -105 -109 -42 -75 -43 -95 -8 -165 34 -66 80 -99 137 -99 77 0 112 17 152 71 35 48 36 53 30 110 -6 65 -34 129 -74 172 -26 27 -61 33 -132 20z m119 -44 c17 -17 31 -36 31 -42 0 -6 -6 -4 -12 5 -25 30 -63 48 -108 49 -41 1 -42 2 -15 9 55 14 73 10 104 -21z m-28 -32 c19 -12 45 -44 58 -70 21 -43 22 -53 12 -87 -6 -21 -27 -52 -46 -69 -85 -74 -227 -11 -229 102 -1 49 37 116 77 135 37 18 92 14 128 -11z"/>
 <path d="M181 691 c-31 -29 -33 -35 -28 -74 8 -57 43 -87 102 -87 38 0 47 5 78 41 31 36 34 44 26 72 -14 48 -41 69 -96 74 -44 5 -52 2 -82 -26z m137 -27 c30 -34 28 -47 -10 -83 -39 -36 -65 -39 -102 -10 -37 29 -36 80 1 109 35 27 79 21 111 -16z"/>
 <path d="M819 624 c-17 -21 0 -49 31 -49 27 0 46 25 37 49 -8 21 -51 21 -68 0z"/>
 <path d="M70 515 c0 -60 58 -129 129 -153 50 -17 61 -15 61 13 0 14 -5 25 -11 25 -6 0 -37 12 -69 26 -47 21 -62 34 -84 72 -25 46 -26 46 -26 17z"/>
 <path d="M435 450 c-3 -5 -1 -19 5 -31 15 -27 35 -10 25 20 -7 22 -20 27 -30 11z"/>
 <path d="M382 419 c2 -7 10 -15 17 -17 8 -3 12 1 9 9 -2 7 -10 15 -17 17 -8 3 -12 -1 -9 -9z"/>
 <path d="M326 403 c-9 -9 -7 -41 3 -47 14 -9 41 4 41 20 0 15 -34 37 -44 27z"/>
 <path d="M492 351 c-63 -20 -91 -46 -101 -92 -18 -86 37 -175 116 -186 32 -4 44 0 71 22 38 32 72 93 72 130 0 34 -45 122 -69 135 -24 12 -23 12 -89 -9z m99 -50 c34 -35 36 -63 8 -111 -38 -65 -79 -78 -116 -37 -56 61 -53 102 9 147 51 37 62 37 99 1z m-128 -168 c15 -17 32 -23 61 -24 35 0 38 -2 18 -9 -13 -6 -32 -6 -47 0 -32 12 -75 58 -75 79 1 12 3 12 12 -4 6 -11 20 -30 31 -42z"/>
 <path d="M500 260 c-28 -28 -22 -62 12 -74 23 -8 30 -6 47 15 12 13 20 35 18 49 -3 34 -47 40 -77 10z m44 -36 c-14 -20 -19 -22 -31 -12 -13 11 -12 15 7 30 29 24 44 13 24 -18z"/>
 <path d="M295 264 c-7 -49 -2 -60 30 -66 16 -2 20 5 27 46 8 58 5 66 -26 66 -20 0 -25 -6 -31 -46z m28 -25 c-6 -6 -7 3 -4 23 4 28 6 29 9 9 2 -13 0 -27 -5 -32z"/>
 <path d="M676 538 c-51 -47 -30 -118 35 -118 63 0 90 70 44 115 -30 31 -47 31 -79 3z m62 -10 c17 -17 15 -58 -4 -65 -36 -13 -68 33 -44 62 15 18 32 19 48 3z"/>
 <path d="M705 510 c-7 -12 2 -30 16 -30 12 0 12 27 0 35 -5 3 -12 1 -16 -5z"/>
 </g>

</svg>