<?xml version="1.0" standalone="no"?>
<!DOCTYPE svg PUBLIC "-//W3C//DTD SVG 20010904//EN"
 "http://www.w3.org/TR/2001/REC-SVG-20010904/DTD/svg10.dtd">
<svg version="1.0" xmlns="http://www.w3.org/2000/svg"
 width="1024.000000pt" height="768.000000pt" viewBox="0 0 1024.000000 768.000000"
 preserveAspectRatio="xMidYMid meet">
<metadata>
Created by potrace 1.16, written by Peter Selinger 2001-2019
</metadata>
<g transform="translate(0.000000,768.000000) scale(0.100000,-0.100000)"
fill="#000000" stroke="none">
<path d="M6423 7663 c-13 -36 -35 -63 -46 -56 -6 4 -31 7 -55 8 -24 0 -47 6
-51 13 -6 10 -12 4 -21 -18 -8 -19 -18 -29 -26 -26 -8 3 -14 1 -14 -3 0 -5 5
-11 10 -13 12 -4 -16 -68 -30 -68 -5 0 -10 -10 -12 -22 -2 -13 -9 -22 -16 -20
-13 2 -15 -7 -14 -90 0 -57 -12 -85 -22 -51 -9 30 2 133 15 149 7 9 12 31 12
50 -1 36 5 41 26 22 11 -11 13 -10 7 5 -3 10 -6 24 -6 31 0 7 -13 11 -32 11
-18 -1 -64 -3 -103 -5 -63 -3 -66 -4 -30 -10 22 -4 31 -8 21 -9 -11 0 -16 -4
-13 -8 4 -3 -1 -12 -11 -19 -16 -13 -16 -13 1 -14 21 0 23 -18 2 -26 -8 -4
-15 -12 -15 -20 0 -8 -6 -14 -14 -14 -7 0 -21 -11 -30 -25 -9 -14 -23 -25 -31
-25 -8 0 -22 -11 -31 -25 -9 -14 -25 -25 -35 -25 -12 0 -19 -7 -19 -19 0 -10
-7 -21 -15 -25 -8 -3 -15 -12 -15 -20 0 -9 -20 -17 -62 -25 -34 -6 -65 -16
-69 -23 -7 -10 -104 -13 -447 -13 l-440 0 27 -32 c14 -17 30 -32 36 -32 5 -1
4 4 -3 11 -7 7 -12 17 -12 22 1 6 10 0 22 -14 15 -17 19 -19 15 -7 -7 17 10
18 365 16 298 -1 375 -5 386 -15 7 -8 24 -14 36 -14 50 0 156 -46 156 -67 0
-7 17 -21 38 -29 20 -9 44 -20 53 -24 9 -5 28 -7 42 -6 34 4 37 -4 47 -159 5
-71 9 -131 10 -132 0 -2 24 -3 54 -3 52 0 56 -2 107 -55 30 -31 58 -64 63 -74
4 -10 19 -24 32 -30 13 -6 24 -15 24 -21 0 -6 4 -9 9 -6 5 4 7 60 4 129 -3 67
-2 119 2 115 4 -4 11 -69 15 -145 8 -144 15 -177 34 -170 6 3 25 -22 41 -56
l29 -60 -22 -17 c-12 -10 -22 -23 -22 -28 0 -5 -9 -21 -21 -36 -12 -16 -21
-41 -21 -62 0 -53 17 -61 18 -8 1 61 20 94 55 94 25 0 28 -4 35 -52 5 -29 7
-64 6 -77 -2 -13 3 -31 11 -40 16 -18 21 -118 6 -127 -5 -3 -9 -25 -9 -49 0
-38 -12 -136 -26 -212 -5 -24 -34 -33 -34 -10 0 8 -4 7 -10 -3 -8 -13 -10 -12
-10 3 0 9 -4 17 -10 17 -5 0 -10 -7 -10 -16 0 -9 -6 -14 -12 -11 -14 4 -15 43
-3 95 5 20 4 32 -3 32 -6 0 -14 -29 -17 -64 -7 -61 -9 -65 -34 -68 -23 -3 -26
-7 -26 -45 0 -23 -6 -48 -12 -54 -19 -19 -16 -29 7 -29 11 0 20 -3 20 -8 0
-14 -45 -36 -67 -33 -20 2 -23 -2 -23 -33 0 -35 0 -35 30 -25 17 6 30 16 30
23 0 16 39 38 53 29 6 -4 24 -6 40 -5 22 2 30 -3 34 -18 7 -27 23 -25 24 3 1
21 1 21 9 -3 4 -14 15 -38 24 -55 9 -16 16 -36 16 -42 0 -27 30 -13 30 15 l1
27 14 -25 c20 -35 19 -40 -11 -40 -14 0 -23 -4 -20 -9 6 -9 -224 -26 -260 -19
-10 2 -19 8 -19 15 0 6 -2 14 -5 16 -7 7 -268 16 -274 10 -2 -3 -61 -7 -129
-9 l-125 -5 -10 28 -10 28 -1 -27 c-1 -23 -7 -28 -37 -34 -19 -3 -54 -3 -77 1
-47 9 -122 10 -277 4 -89 -3 -105 -2 -105 11 0 13 34 15 233 18 l232 2 0 100
0 100 -242 -2 -243 -3 -2 -90 c-1 -49 -2 -96 -2 -104 -1 -11 -4 -11 -16 -1 -9
8 -15 8 -15 2 0 -6 -28 -29 -61 -51 l-61 -41 -142 0 c-79 0 -145 -2 -147 -4
-2 -2 -1 -78 4 -168 4 -89 6 -197 5 -238 l-3 -75 -16 31 c-28 54 -98 142 -136
171 -20 15 -56 47 -81 71 -24 23 -50 42 -57 42 -7 0 -43 15 -81 34 -106 53
-123 59 -239 82 -315 63 -617 -26 -835 -245 -19 -20 -38 -35 -41 -34 -6 2
-109 -104 -134 -138 -51 -68 -99 -164 -134 -267 -35 -103 -41 -134 -41 -203 0
-84 26 -266 41 -284 5 -7 0 -16 -12 -23 -12 -8 -19 -23 -19 -43 l0 -31 -34 22
c-41 25 -202 58 -324 66 -48 3 -108 10 -133 15 -42 10 -54 7 -123 -21 -47 -20
-83 -29 -94 -25 -9 4 -28 9 -42 10 -14 2 -54 8 -90 13 -107 16 -314 5 -365
-18 -24 -11 -52 -20 -62 -20 -26 0 -42 63 -48 190 l-5 105 35 40 c20 22 41 54
49 70 7 17 27 45 45 62 17 18 34 44 37 60 7 39 -26 87 -75 113 -43 22 -93 69
-85 81 6 10 -47 47 -77 53 -13 2 -89 48 -169 101 -159 106 -229 145 -259 145
-11 0 -35 7 -53 15 -20 9 -90 18 -178 23 -107 7 -154 14 -180 27 -32 17 -45
17 -170 6 -74 -7 -151 -19 -169 -27 -33 -14 -40 -13 -135 25 -56 22 -120 47
-143 55 l-43 15 0 -79 0 -78 53 -17 c28 -10 55 -21 60 -24 4 -4 -6 -20 -23
-36 -16 -16 -30 -36 -30 -45 0 -9 -13 -31 -30 -50 l-29 -35 -1 -554 c0 -473 2
-566 16 -634 15 -74 15 -81 0 -92 -14 -11 -16 -52 -16 -374 l0 -361 41 0 c22
0 50 5 62 12 15 8 73 11 187 10 175 -3 273 -13 356 -37 84 -24 226 -94 264
-129 19 -18 50 -39 68 -46 18 -7 30 -15 28 -18 -8 -8 -67 20 -93 44 -14 13
-31 20 -39 17 -7 -3 -17 2 -20 11 -4 11 -13 15 -26 10 -12 -3 -24 -1 -28 6 -4
7 -22 13 -39 14 -34 1 -37 6 -19 24 9 9 8 12 -8 13 -10 1 -22 1 -26 0 -5 0 -8
3 -8 9 0 5 -7 10 -15 10 -8 0 -15 -9 -15 -20 0 -24 -8 -25 -37 -5 -15 10 -24
12 -28 5 -5 -8 -14 -6 -29 4 -12 8 -39 14 -59 13 -34 -1 -36 -3 -30 -26 6 -24
5 -25 -11 -12 -13 11 -20 11 -28 3 -7 -7 -18 -12 -26 -12 -12 0 -12 3 -2 15
19 22 10 25 -40 13 -25 -5 -57 -10 -72 -10 -21 1 -28 -4 -28 -18 0 -17 -3 -17
-52 -3 -39 12 -56 13 -70 4 -22 -14 -48 -14 -48 -1 0 11 -33 13 -79 4 l-31 -7
0 -1378 0 -1379 5120 0 5120 0 0 2214 -1 2213 -62 -12 c-34 -7 -102 -19 -151
-26 l-88 -14 7 -67 c7 -78 5 -79 -65 -47 -64 29 -113 33 -215 16 -110 -18
-172 -46 -247 -110 -45 -39 -58 -56 -58 -78 0 -16 3 -29 8 -29 19 0 33 -63 29
-127 -4 -66 -4 -68 -36 -77 -17 -5 -30 -12 -29 -15 2 -3 12 -23 22 -43 11 -20
26 -40 33 -43 9 -3 7 5 -6 21 -28 36 -27 62 3 70 36 9 46 -2 46 -50 0 -45 33
-151 71 -229 24 -49 56 -67 120 -67 36 0 64 -32 50 -58 -10 -20 -74 -78 -107
-99 -18 -12 -18 -13 5 -32 l25 -19 -39 -49 c-21 -26 -55 -66 -76 -88 -102
-108 -150 -334 -167 -783 -7 -180 -9 -195 -28 -210 -12 -9 -29 -40 -38 -69
-10 -29 -28 -68 -41 -88 -14 -19 -28 -50 -33 -68 -5 -22 -17 -36 -40 -46 -18
-8 -32 -20 -32 -27 0 -22 -28 -35 -246 -109 -250 -86 -329 -121 -384 -174 -48
-46 -50 -65 -19 -251 38 -233 45 -281 40 -285 -8 -4 -108 -13 -236 -21 -55 -3
-118 -9 -141 -13 -22 -4 -75 -7 -117 -6 -60 2 -77 -1 -77 -11 0 -8 -7 -14 -15
-14 -8 0 -15 6 -15 14 0 17 -62 15 -84 -3 -13 -11 -20 -11 -38 3 -13 9 -34 24
-48 33 -29 20 -193 145 -200 153 -3 3 -21 16 -40 30 -19 13 -39 28 -45 32 -5
4 -61 47 -123 94 -62 47 -120 97 -129 111 -13 20 -18 62 -23 213 -3 104 -8
191 -10 193 -3 2 -15 9 -26 15 -17 9 -24 26 -32 82 -14 95 3 302 32 390 19 58
21 86 19 250 0 102 -7 212 -13 245 -7 33 -13 78 -14 100 -1 22 -8 53 -14 69
-7 15 -12 65 -12 110 1 44 0 116 0 159 -1 72 0 77 20 77 53 0 194 113 205 165
22 108 11 190 -36 286 -16 32 -29 61 -29 64 0 18 -117 248 -156 306 -33 50
-44 76 -44 106 0 21 4 43 9 48 6 6 1 11 -14 11 -26 2 -26 -1 -9 -66 8 -31 -9
-40 -55 -28 -31 8 -45 18 -52 35 -9 24 -11 24 -32 10 -31 -20 -53 -7 -61 36
-7 38 -22 53 -79 82 -21 11 -41 24 -44 29 -4 5 -1 6 5 2 8 -5 10 -2 6 9 -4 8
-1 22 6 30 7 9 10 18 7 21 -10 10 -27 -6 -27 -26 0 -26 -24 -31 -39 -8 -9 15
-19 18 -39 14 -15 -3 -21 -3 -14 0 6 3 12 14 12 25 0 19 8 32 41 67 37 38 -16
83 -79 67 -15 -4 -47 -8 -72 -10 -25 -1 -55 -6 -67 -10 -41 -13 -26 20 17 39
43 19 45 36 4 36 -14 0 -24 6 -24 14 0 15 107 46 159 46 35 0 61 -23 61 -53 1
-29 36 -107 50 -107 15 0 12 68 -6 135 -28 105 -22 561 12 770 13 84 17 324 6
380 -2 14 -9 25 -14 25 -5 0 -7 -8 -3 -19 3 -10 -1 -23 -8 -30 -12 -9 -16 -6
-20 17 -10 50 -8 524 2 536 6 7 12 33 14 59 2 26 7 50 11 54 3 3 6 21 6 40 0
18 4 33 9 33 8 0 19 38 37 129 4 24 9 30 15 20 10 -16 13 36 9 145 -1 43 1 66
8 63 12 -8 26 -305 16 -332 -8 -19 -8 -18 -14 5 -4 14 -5 -13 -4 -60 3 -112 3
-112 13 -106 11 7 20 -27 22 -79 l1 -40 10 35 c7 23 7 76 2 150 -11 152 -11
395 0 552 8 114 11 126 27 125 11 -1 19 -7 19 -14 0 -7 4 -13 9 -13 11 0 20
-69 10 -75 -15 -10 -16 -71 -1 -93 11 -17 18 -20 28 -11 11 9 14 7 14 -7 1
-12 6 -6 16 15 10 24 11 38 4 45 -5 5 -10 50 -10 98 l0 88 38 0 c56 0 102 -46
102 -102 0 -16 4 -36 9 -46 6 -9 12 -29 15 -43 16 -76 128 -166 181 -145 10 4
15 20 15 51 l0 46 -44 -6 c-39 -6 -45 -4 -66 22 -18 23 -21 37 -17 83 2 30 0
62 -6 70 -7 12 -1 24 23 50 31 33 33 34 46 15 8 -11 19 -21 24 -21 6 -1 14 -2
19 -3 5 0 12 -38 16 -84 8 -96 15 -115 36 -95 9 8 45 14 94 16 59 2 83 7 92
19 7 9 10 20 7 25 -17 27 -12 114 5 103 13 -7 32 -120 25 -140 -4 -10 -1 -21
7 -26 10 -6 13 -26 10 -75 -5 -101 -7 -103 -120 -100 -53 2 -104 6 -113 10
-14 6 -18 3 -18 -10 -1 -18 -1 -18 -14 -1 -10 13 -29 18 -65 19 -77 2 -87 -18
-15 -29 22 -3 50 -16 64 -28 14 -12 37 -25 52 -29 15 -3 32 -15 38 -26 15 -29
30 -25 30 8 0 37 8 44 32 31 14 -8 28 -7 49 1 20 9 37 9 58 2 44 -16 55 3 47
85 -3 38 -2 82 2 98 l9 30 8 -25 c5 -14 8 -52 7 -85 l-1 -60 64 -1 c36 0 65 3
65 7 0 14 -37 29 -68 29 -24 0 -31 5 -36 26 -5 17 -1 35 9 50 8 13 15 32 15
43 0 10 6 34 14 52 l14 33 16 -30 c23 -42 73 -100 81 -92 3 3 0 16 -7 27 -11
18 -11 23 0 30 10 6 10 10 -3 21 -17 14 -20 36 -4 45 12 8 59 -40 60 -63 1 -9
3 -27 4 -39 1 -13 -2 -20 -7 -16 -11 6 -28 -14 -28 -32 0 -5 4 -4 9 3 10 17
24 -18 43 -103 l13 -60 3 53 c2 37 -2 62 -13 79 -26 40 -13 44 37 13 55 -34
70 -37 67 -12 -3 18 21 62 34 62 10 0 29 16 72 59 44 44 65 32 58 -33 -4 -32
-1 -51 12 -68 17 -23 17 -22 11 26 -3 27 -6 75 -6 107 l0 58 -52 -6 c-31 -3
-62 -14 -74 -24 -11 -11 -25 -19 -31 -19 -6 0 -13 -4 -15 -9 -1 -4 -13 -11
-25 -15 -16 -5 -21 -3 -19 9 1 8 8 21 14 27 7 7 12 22 12 35 0 26 14 54 48 96
14 19 22 42 22 68 0 32 3 39 18 37 23 -4 32 -18 32 -53 1 -34 24 -82 37 -75 4
3 9 -10 11 -27 2 -18 8 -33 14 -33 6 0 9 31 7 85 -3 54 0 84 6 82 11 -4 22
-89 24 -179 1 -43 5 -58 15 -58 10 0 15 21 20 83 12 185 27 225 62 172 l17
-26 21 33 c11 18 35 51 53 72 18 22 33 48 33 58 0 23 -6 23 -38 -3 l-27 -20
-17 21 -18 22 -71 -71 c-40 -39 -76 -71 -80 -71 -5 0 -9 26 -9 58 0 67 8 80
102 177 37 37 64 73 61 78 -4 6 3 8 18 4 13 -4 27 -7 32 -7 17 0 5 -20 -13
-20 -12 0 -17 -5 -14 -14 3 -8 13 -12 25 -9 12 4 26 -3 38 -18 18 -22 19 -22
24 -3 3 10 8 40 12 66 l6 47 -455 1 c-360 0 -455 -2 -459 -12 -4 -10 -7 -11
-18 0 -8 7 -42 12 -91 12 -67 0 -78 -2 -78 -17 -1 -17 -1 -17 -14 0 -11 13
-29 17 -90 17 -66 0 -76 -2 -76 -17 -1 -17 -1 -17 -14 0 -11 13 -29 17 -90 17
-66 0 -76 -2 -76 -17 -1 -17 -1 -17 -14 0 -18 23 -166 26 -166 2 0 -8 -4 -15
-10 -15 -5 0 -10 7 -10 15 0 12 -16 15 -80 15 -64 0 -80 -3 -80 -15 0 -8 -5
-15 -10 -15 -6 0 -13 7 -16 15 -5 12 -25 15 -90 15 -71 0 -86 -3 -91 -17z
m987 -305 c0 -17 -40 -62 -58 -64 -9 -1 -31 -7 -48 -12 -17 -5 -37 -6 -45 -2
-7 5 -17 6 -23 3 -5 -3 -16 3 -24 13 -14 18 -14 18 -9 -5 4 -15 2 -20 -4 -14
-18 18 1 71 30 81 37 12 181 13 181 0z m-2172 -2059 l-3 -44 -185 -5 c-118 -3
-188 -1 -193 5 -4 6 -6 28 -5 50 l3 40 179 2 c98 1 181 5 184 8 13 13 23 -15
20 -56z m1245 -96 c2 -5 8 -87 11 -183 l7 -175 -48 -23 c-85 -40 -127 -130
-103 -218 13 -44 7 -71 -9 -45 -10 16 -31 6 -31 -13 0 -8 7 -20 17 -27 9 -8
22 -29 30 -46 7 -18 19 -33 27 -33 13 0 26 -20 26 -41 0 -5 -11 -9 -24 -9 -31
0 -76 -36 -76 -61 0 -48 -50 -106 -119 -139 -68 -32 -97 -68 -133 -160 -34
-86 -84 -269 -98 -355 -6 -38 -16 -75 -22 -82 -15 -18 0 -120 24 -164 28 -51
99 -91 157 -89 98 4 90 12 90 -92 -1 -51 0 -129 1 -173 1 -86 -18 -281 -30
-304 -6 -11 -9 -9 -14 7 -4 12 -12 22 -17 22 -5 0 -9 19 -9 43 0 31 -3 38 -10
27 -5 -8 -10 -28 -10 -45 0 -23 -3 -27 -10 -15 -6 10 -10 11 -10 3 0 -7 -10
-13 -23 -13 -17 0 -23 -6 -25 -25 -1 -16 3 -25 13 -25 8 0 15 -7 15 -15 0 -11
12 -15 45 -15 38 0 43 3 38 18 -4 11 -3 14 4 7 6 -6 7 -29 3 -60 -4 -27 -8
-42 -9 -32 -1 14 -11 17 -65 17 -46 0 -65 -4 -69 -14 -4 -10 2 -16 16 -19 19
-4 18 -4 -5 -6 -23 -1 -30 6 -46 42 -25 56 -49 75 -112 92 -57 15 -114 68
-103 95 3 8 5 28 4 43 -1 20 6 35 25 49 22 18 25 27 21 62 -2 24 4 67 15 102
23 79 33 152 30 234 -2 36 5 95 14 133 33 138 6 259 -88 392 -19 28 -38 61
-41 75 -7 28 -58 64 -105 75 -18 4 -45 17 -60 29 -61 50 -150 65 -317 54 -110
-8 -204 -46 -284 -117 -33 -28 -35 -29 -57 -13 -21 16 -23 26 -26 130 -2 63 1
121 6 129 5 10 4 18 -4 23 -9 6 -11 27 -8 74 4 46 2 69 -7 76 -7 6 -11 21 -9
33 2 12 2 16 -2 10 -13 -28 -70 -9 -111 36 -14 16 -22 40 -25 73 -1 27 -1 51
0 53 14 13 122 -81 134 -117 13 -36 15 16 7 227 -4 127 -8 275 -8 331 l-1 101
203 6 c111 3 353 11 537 17 184 6 448 15 585 19 138 4 255 9 262 9 6 1 14 -1
16 -5z m-3781 -2300 c-3 -172 -7 -221 -18 -234 -13 -15 -12 -17 10 -21 23 -5
55 6 66 23 3 4 34 21 70 38 36 17 90 44 120 61 30 16 75 32 99 36 53 8 78 -3
211 -92 54 -35 104 -64 113 -64 8 0 77 16 154 35 76 20 190 47 253 60 156 33
217 49 226 58 4 4 19 7 33 7 14 0 62 9 106 20 144 36 410 38 498 5 12 -5 17
-2 17 11 0 16 -2 17 -11 4 -8 -12 -9 -10 -5 10 3 14 6 41 7 60 1 26 5 17 15
-35 8 -43 21 -76 32 -85 10 -8 32 -25 49 -38 17 -13 39 -38 49 -57 13 -25 28
-36 59 -44 85 -21 204 -144 224 -231 15 -64 14 -97 -1 -82 -17 17 -45 15 -52
-3 -3 -9 -18 -15 -36 -15 -18 0 -29 -4 -25 -10 3 -5 1 -10 -5 -10 -18 0 -60
-36 -52 -45 4 -4 -3 -6 -15 -3 -14 4 -21 2 -20 -6 1 -6 -7 -10 -19 -8 -13 2
-24 -4 -28 -14 -4 -11 -13 -14 -30 -10 -25 6 -63 -25 -52 -43 4 -5 1 -13 -5
-17 -6 -3 -15 -1 -19 7 -11 17 -41 -6 -33 -26 5 -14 -6 -18 -62 -27 -12 -2
-19 -11 -19 -21 1 -10 -5 -17 -17 -17 -10 0 -20 -6 -20 -12 -3 -29 -4 -33 -14
-33 -5 0 -9 3 -7 8 5 15 -16 6 -38 -18 -13 -14 -29 -25 -37 -25 -7 0 -13 -8
-13 -19 0 -10 -14 -30 -32 -44 -33 -28 -50 -29 -28 -2 7 8 8 15 2 15 -18 0
-31 -26 -26 -51 l6 -24 -20 24 c-22 27 -46 20 -37 -10 7 -22 -2 -59 -15 -59
-5 0 -7 6 -4 13 2 7 -4 22 -16 32 -11 10 -20 13 -20 7 0 -7 5 -12 10 -12 6 0
10 -7 10 -15 0 -8 -4 -15 -10 -15 -5 0 -10 -7 -10 -15 0 -9 -6 -15 -12 -13
-27 5 -87 -34 -97 -63 -5 -16 -16 -29 -23 -29 -11 0 -11 2 0 8 9 7 10 15 3 35
-6 15 -8 33 -5 40 3 8 0 26 -6 41 -8 21 -15 26 -30 21 -24 -8 -25 -1 -3 25 12
14 24 18 41 13 18 -4 23 -2 20 7 -7 22 31 54 47 40 10 -8 13 -7 11 7 -1 12 5
17 18 15 11 -2 17 1 14 9 -5 16 31 59 49 59 7 0 13 4 13 9 0 5 21 19 46 31 25
12 58 33 73 46 15 12 39 26 54 29 17 5 27 14 27 26 0 12 5 16 14 13 8 -3 21 4
29 16 9 12 20 20 25 16 5 -3 7 6 4 20 -4 23 -2 25 17 19 15 -5 21 -2 21 9 0 9
5 17 10 17 6 1 15 2 22 3 15 1 23 26 8 26 -6 0 -8 5 -5 11 5 7 14 4 26 -7 17
-16 19 -16 19 -1 0 10 -4 17 -10 17 -5 0 -10 5 -10 10 0 6 7 10 15 10 8 0 15
4 15 10 0 15 -124 1 -133 -16 -10 -17 -50 -18 -78 -1 -17 10 -23 10 -26 0 -3
-7 -18 -13 -35 -13 -23 0 -29 -4 -24 -15 3 -9 0 -15 -10 -15 -8 0 -12 5 -9 10
3 6 5 10 3 10 -9 -1 -76 -27 -96 -38 -21 -12 -22 -12 -11 5 12 19 54 43 76 43
7 0 13 4 13 9 0 5 17 15 38 22 20 6 42 15 47 19 16 11 112 40 133 40 11 0 22
7 26 15 4 11 -1 15 -17 15 -13 0 -27 -4 -33 -9 -5 -4 -38 -14 -74 -21 -35 -6
-73 -18 -84 -26 -11 -7 -30 -11 -43 -8 -14 4 -23 2 -23 -6 0 -6 -5 -8 -10 -5
-6 4 -17 2 -24 -5 -8 -6 -25 -13 -37 -15 -13 -3 -25 -9 -27 -15 -4 -12 -22 -3
-22 11 0 5 5 9 12 9 6 0 19 6 27 14 9 8 76 34 149 60 225 78 452 95 565 43 37
-18 57 -23 57 -14 -1 12 -66 47 -89 47 -6 0 -14 6 -17 14 -5 14 -60 19 -187
17 -38 0 -78 4 -89 10 -15 8 -19 8 -14 0 4 -6 1 -11 -8 -11 -8 0 -18 5 -21 10
-4 7 -24 8 -53 4 -48 -7 -73 -8 -127 -1 -16 3 -20 2 -7 0 12 -2 22 -9 22 -15
0 -5 -7 -7 -15 -4 -9 3 -18 -1 -21 -9 -4 -10 -14 -13 -29 -9 -13 3 -25 2 -28
-3 -6 -10 -98 -10 -115 1 -7 4 -15 1 -18 -9 -4 -8 -12 -14 -18 -13 -6 2 -12
-1 -13 -6 -2 -11 -24 -26 -41 -26 -7 0 -10 5 -7 10 4 6 11 7 17 4 6 -4 8 1 6
12 -5 29 -36 29 -49 0 -15 -32 -39 -35 -33 -3 l5 22 -10 -22 c-6 -13 -15 -23
-21 -23 -6 0 -9 4 -6 9 3 5 -1 15 -10 22 -13 10 -17 10 -24 -1 -4 -7 -15 -10
-25 -6 -20 7 -49 -19 -39 -35 5 -9 -3 -10 -30 -5 -21 4 -43 3 -49 -2 -7 -6
-32 -15 -57 -22 -25 -7 -48 -17 -52 -24 -6 -8 -8 -8 -8 0 0 7 -10 9 -25 6 -14
-2 -22 -8 -19 -13 6 -10 -44 -24 -53 -15 -3 3 -11 -2 -18 -10 -6 -9 -23 -17
-38 -16 -14 0 -35 -9 -46 -19 -11 -11 -27 -19 -35 -19 -9 0 -30 -6 -48 -14
-18 -8 -50 -22 -70 -31 -21 -9 -38 -20 -38 -25 0 -5 -7 -7 -15 -4 -8 4 -15 1
-15 -6 0 -7 -7 -10 -15 -7 -8 4 -17 2 -20 -3 -4 -6 -20 -10 -36 -10 -17 0 -32
-6 -35 -15 -4 -10 -13 -13 -26 -9 -14 4 -18 2 -14 -5 4 -6 4 -11 -1 -10 -16 2
-53 -13 -53 -23 0 -5 -6 -8 -12 -5 -7 2 -25 -4 -40 -15 -16 -11 -32 -17 -36
-14 -5 3 -23 -5 -41 -18 -19 -14 -40 -22 -51 -19 -12 3 -22 -1 -26 -11 -3 -9
-16 -16 -29 -16 -12 0 -34 -9 -48 -20 -14 -11 -39 -20 -55 -20 -17 0 -34 -4
-37 -10 -3 -5 -15 -10 -25 -10 -10 0 -26 -7 -34 -16 -9 -9 -33 -20 -54 -25
-50 -13 -144 -50 -161 -63 -7 -6 -29 -11 -48 -12 -19 0 -38 -5 -41 -11 -4 -6
-25 -13 -47 -17 -22 -4 -44 -11 -50 -16 -26 -22 -181 -82 -220 -85 -24 -3 -63
-12 -87 -21 -25 -9 -86 -17 -144 -20 -133 -5 -137 -1 -93 98 42 96 67 135 126
194 44 45 270 204 290 204 12 0 60 41 156 134 45 43 111 101 147 128 36 26 70
53 77 58 7 6 16 10 20 10 4 1 23 14 42 29 l33 29 -48 159 c-26 87 -47 169 -46
183 1 15 16 37 37 55 21 18 41 49 51 78 12 37 21 47 38 47 l21 0 -3 -217z
m-1399 -608 c47 -20 94 -45 104 -55 11 -10 34 -25 50 -34 27 -13 46 -38 105
-131 7 -11 20 -31 29 -45 9 -14 22 -43 29 -65 7 -22 19 -50 27 -62 8 -12 13
-30 12 -40 -1 -10 3 -31 9 -46 17 -40 15 -52 -5 -36 -9 8 -14 9 -10 3 7 -12
-27 -27 -37 -16 -3 3 -6 19 -6 36 0 28 -5 33 -40 44 -22 6 -44 12 -48 12 -5 0
27 -37 70 -82 55 -57 81 -79 87 -70 5 9 11 6 18 -11 9 -18 8 -28 0 -36 -8 -8
-4 -25 15 -64 15 -28 32 -72 39 -97 7 -25 22 -65 35 -90 22 -46 48 -149 40
-158 -3 -2 0 -14 6 -25 11 -21 11 -21 -16 -4 -15 10 -30 15 -35 12 -16 -10
-23 29 -7 41 20 14 10 24 -25 24 -15 0 -31 5 -34 10 -3 5 -14 10 -24 10 -12 0
-18 7 -17 17 0 12 -7 19 -21 21 -25 4 -30 21 -11 40 17 17 3 26 -20 13 -12 -6
-31 -11 -44 -11 -18 0 -23 6 -23 25 0 18 4 24 15 20 9 -3 8 0 -4 9 -10 8 -15
19 -11 25 3 7 -2 11 -14 11 -12 0 -21 -4 -21 -10 0 -5 -6 -10 -13 -10 -16 0
-49 38 -42 49 2 5 -5 11 -17 15 -17 4 -20 8 -12 16 16 16 157 -58 273 -144 28
-21 54 -36 57 -33 3 3 -3 22 -13 44 -14 29 -24 38 -43 38 -20 0 -25 5 -24 24
1 36 -29 62 -66 55 -19 -4 -30 -2 -30 5 0 6 7 11 15 11 8 0 15 5 15 10 0 6 -6
10 -14 10 -8 0 -24 12 -35 26 -14 17 -26 24 -37 20 -22 -9 -80 54 -62 66 9 5
5 7 -9 5 -11 -2 -28 -9 -36 -15 -16 -14 -33 0 -23 17 3 5 -5 12 -18 15 -21 5
-34 26 -40 61 -2 16 -40 5 -57 -17 -14 -18 -17 -18 -28 -4 -7 9 -23 14 -35 12
-11 -2 -15 -1 -8 1 10 4 10 8 2 18 -6 8 -18 11 -26 8 -11 -4 -15 0 -12 12 2
15 -5 19 -37 21 -118 9 -145 16 -104 29 22 7 22 8 3 22 -18 14 -16 15 19 10
21 -3 57 -15 80 -26 23 -11 71 -27 107 -36 36 -10 84 -26 107 -36 24 -10 47
-19 52 -19 5 0 16 -6 23 -12 14 -14 34 -26 108 -67 25 -13 63 -40 86 -58 52
-42 71 -43 48 -4 -10 17 -20 28 -23 27 -3 -2 -16 0 -28 5 -17 6 -23 16 -23 39
0 20 -5 30 -15 30 -8 0 -15 4 -15 9 0 5 -11 11 -25 13 -14 3 -25 1 -25 -4 0
-5 -9 -4 -20 2 -16 9 -18 15 -10 31 13 24 4 42 -18 34 -10 -4 -23 3 -34 17
-14 18 -20 20 -27 9 -5 -8 -16 -11 -31 -6 -12 4 -19 10 -14 14 5 3 10 11 10
16 1 6 5 21 9 34 6 20 4 23 -10 17 -10 -3 -23 -2 -29 3 -13 11 -66 10 -66 -1
0 -5 -7 -8 -15 -8 -8 0 -15 5 -15 11 0 6 -7 9 -15 5 -11 -4 -15 2 -15 20 0 17
-4 23 -12 18 -19 -12 -139 -33 -155 -27 -27 10 -12 31 27 37 22 3 40 11 40 17
0 7 -11 9 -31 5 -30 -6 -31 -5 -25 22 4 15 3 23 -1 17 -20 -26 -43 -35 -67
-29 -14 3 -26 12 -26 19 0 7 -14 27 -32 44 l-32 31 29 0 c24 0 206 -54 270
-80 11 -4 49 -18 85 -30 36 -12 69 -26 75 -31 14 -14 35 -11 35 5 0 8 -7 17
-16 20 -11 4 -14 13 -10 31 4 14 3 25 -1 26 -38 5 -93 4 -93 -2 0 -4 -12 -4
-27 0 -20 5 -29 15 -31 32 -3 23 -7 26 -50 26 -26 0 -52 -4 -59 -9 -18 -14
-37 0 -23 17 8 9 8 15 0 20 -5 3 -10 14 -10 23 0 14 -10 17 -65 16 -36 0 -71
-6 -77 -12 -19 -19 -33 -14 -15 6 10 10 17 27 17 37 0 14 -6 16 -27 12 -16 -3
-39 1 -53 8 -16 8 -29 10 -36 4 -7 -5 -21 -6 -34 -1 -23 8 -23 9 11 34 41 30
107 52 209 69 41 6 84 15 95 20 35 15 111 1 198 -36z m4000 7 c27 -12 71 -40
98 -63 40 -33 63 -44 117 -54 38 -7 97 -25 132 -39 72 -29 83 -30 177 -15 62
10 77 9 163 -14 140 -38 219 -68 270 -103 25 -17 72 -45 105 -63 67 -36 203
-168 225 -217 9 -20 26 -36 47 -43 34 -13 98 -79 106 -112 8 -29 0 -23 -19 14
-20 37 -34 49 -89 78 l-40 21 24 -26 c14 -14 30 -26 37 -26 6 0 17 -6 23 -14
9 -11 8 -15 -5 -20 -9 -3 -20 -4 -25 0 -5 3 -9 -2 -9 -10 0 -10 -6 -13 -15
-10 -15 6 -18 -6 -17 -96 1 -55 -6 -67 -24 -42 -8 12 -12 27 -8 33 4 7 0 9
-13 5 -12 -4 -29 1 -46 14 -14 11 -31 20 -38 20 -7 0 -9 3 -6 6 7 7 -36 44
-51 44 -6 0 -13 -6 -15 -12 -3 -7 -6 2 -6 21 -1 29 -3 32 -17 20 -9 -7 -18 -9
-22 -3 -4 5 -17 15 -29 22 -19 10 -23 10 -23 -1 0 -7 15 -20 33 -30 33 -18 66
-57 47 -57 -5 0 -10 5 -10 11 0 7 -11 9 -29 6 -25 -5 -28 -3 -24 13 6 21 -30
45 -54 36 -29 -12 -62 5 -68 35 -4 19 -13 29 -25 29 -10 0 -20 5 -22 11 -4 12
-38 1 -38 -12 0 -5 16 -9 36 -9 24 0 34 -4 32 -12 -3 -7 -17 -13 -31 -12 -75
3 -79 4 -73 19 8 23 -4 18 -26 -10 -11 -14 -24 -22 -29 -19 -6 4 -6 11 2 20 8
10 8 14 0 14 -6 0 -11 -5 -11 -11 0 -13 -52 -3 -61 12 -7 11 -39 1 -39 -12 0
-5 8 -9 18 -9 10 0 22 -4 27 -9 6 -5 21 -11 35 -14 21 -4 21 -4 -7 -6 -17 0
-34 -7 -36 -13 -9 -22 -46 34 -48 72 -1 25 -3 28 -6 12 -3 -13 -11 -26 -19
-29 -16 -6 -19 -33 -3 -33 6 0 17 -7 26 -15 13 -14 9 -15 -43 -9 -42 5 -55 4
-50 -4 4 -7 1 -12 -8 -12 -9 0 -16 4 -16 10 0 12 -65 24 -81 14 -9 -5 -5 -10
11 -16 28 -10 17 -23 -27 -31 -24 -5 -33 -3 -33 7 0 19 -48 49 -66 42 -20 -8
-8 -26 16 -26 10 0 21 -7 24 -16 8 -22 0 -30 -16 -17 -7 6 -24 9 -38 8 -14 -1
-29 1 -35 4 -9 7 -20 7 -67 3 -22 -2 -24 -22 -3 -22 8 0 15 -4 15 -10 0 -14
-4 -13 -45 10 -20 11 -46 20 -58 20 -12 0 -31 7 -41 15 -11 8 -30 15 -43 15
-13 0 -36 8 -51 17 -26 17 -27 17 -11 -2 9 -11 19 -28 22 -37 4 -10 13 -18 22
-18 8 0 15 -7 15 -15 0 -8 -4 -15 -10 -15 -5 0 -10 -14 -10 -32 0 -17 -3 -28
-7 -24 -4 4 -8 15 -8 24 0 13 -8 17 -33 16 -25 -2 -32 2 -30 15 2 9 -3 15 -9
13 -7 -1 -13 5 -13 13 0 8 -4 15 -10 15 -5 0 -10 -7 -10 -15 0 -9 -6 -12 -17
-8 -11 4 -14 3 -9 -5 4 -7 16 -12 27 -12 10 0 19 -4 19 -10 0 -13 -27 -13 -36
1 -3 6 -14 9 -24 6 -9 -2 -22 4 -29 14 -6 11 -22 19 -35 19 -27 0 -42 -15 -26
-25 5 -3 10 -1 10 4 0 6 4 11 9 11 16 0 -1 -40 -18 -41 -10 0 -11 -2 -3 -6 6
-2 12 -9 12 -15 0 -6 -8 -4 -18 5 -10 10 -25 17 -32 17 -9 0 -8 6 5 20 16 18
16 20 2 20 -9 0 -22 -6 -29 -13 -7 -8 -20 -12 -30 -9 -12 3 -18 -1 -18 -12 0
-9 5 -16 10 -16 6 0 10 -6 10 -14 0 -8 6 -17 13 -19 6 -3 0 -6 -15 -6 -14 -1
-28 5 -31 12 -3 9 -7 9 -19 -1 -10 -8 -19 -9 -22 -3 -3 5 0 12 6 14 8 3 6 6
-4 6 -10 1 -18 -3 -18 -8 0 -5 -12 -12 -26 -15 -19 -5 -33 -1 -48 13 -16 15
-36 21 -67 21 -25 0 -50 5 -57 12 -8 8 -14 5 -21 -15 -15 -38 -23 -33 -15 8 5
31 4 35 -20 41 -34 8 -34 34 0 34 23 0 25 2 14 15 -10 13 -10 19 5 35 10 11
25 20 34 20 13 0 13 2 3 9 -15 9 -11 15 126 154 185 187 386 367 411 367 6 0
12 4 16 9 9 15 -34 4 -90 -23 -91 -45 -212 -143 -418 -338 -51 -48 -98 -88
-105 -88 -7 0 -10 -5 -7 -10 3 -6 -1 -13 -9 -16 -9 -3 -16 -12 -16 -20 0 -8
-7 -14 -15 -14 -8 0 -15 -4 -15 -10 0 -5 -15 -25 -32 -43 -59 -61 -116 -126
-120 -136 -4 -13 -55 -76 -100 -125 -21 -22 -38 -46 -38 -53 0 -12 -24 -43
-70 -93 -8 -8 -21 -27 -29 -42 -7 -14 -26 -40 -42 -57 -15 -17 -25 -31 -21
-31 3 0 -4 -7 -16 -16 -12 -8 -20 -20 -16 -25 3 -5 -10 -16 -28 -24 -18 -8
-27 -14 -20 -15 20 0 14 -17 -10 -25 -14 -4 -18 -8 -10 -12 17 -7 5 -23 -19
-23 -21 0 -27 -19 -6 -21 6 0 -3 -7 -22 -16 -27 -11 -31 -17 -20 -24 11 -7 10
-9 -4 -9 -11 0 -21 -9 -24 -20 -3 -11 -9 -20 -14 -20 -16 0 -10 16 22 60 17
24 45 66 61 94 17 28 33 53 37 56 3 3 31 41 61 85 30 44 79 114 110 156 30 42
77 106 103 143 160 221 357 435 568 620 63 55 128 111 145 124 20 15 15 13
-16 -5 -25 -16 -58 -40 -73 -55 -16 -16 -31 -28 -36 -28 -4 0 -17 -9 -28 -20
-12 -11 -36 -29 -55 -40 -18 -11 -30 -20 -26 -20 4 0 0 -9 -9 -20 -10 -11 -23
-20 -30 -20 -6 0 -32 -19 -57 -42 -25 -24 -63 -59 -85 -78 -22 -19 -41 -39
-41 -44 0 -5 -18 -26 -40 -47 -22 -21 -40 -43 -40 -49 0 -5 -7 -10 -15 -10 -8
0 -14 -4 -12 -9 1 -5 -10 -20 -25 -34 -16 -14 -28 -31 -28 -37 0 -5 -4 -10 -9
-10 -4 0 -21 -19 -36 -42 -44 -67 -89 -118 -104 -118 -7 0 -11 -6 -7 -15 4
-10 -1 -15 -15 -15 -16 0 -19 -4 -14 -20 5 -16 2 -20 -14 -20 -14 0 -21 -6
-21 -20 0 -11 -4 -20 -10 -20 -5 0 -10 -7 -10 -15 0 -8 -5 -15 -11 -15 -6 0
-8 -9 -4 -22 7 -22 7 -22 -8 -4 -14 19 -14 17 -12 -17 2 -20 0 -36 -3 -36 -4
1 -14 1 -22 0 -13 -1 -13 -2 0 -12 12 -8 10 -9 -7 -4 -17 5 -23 2 -23 -9 0 -9
-4 -16 -10 -16 -15 0 -15 2 22 73 87 169 150 261 293 436 144 175 400 427 539
531 140 103 182 120 296 116 61 -2 99 -8 133 -24z m-3960 -878 c34 -14 78 -32
97 -40 19 -9 53 -23 75 -32 98 -42 233 -116 263 -145 25 -24 35 -28 44 -19 7
7 15 12 19 12 9 0 27 -50 27 -75 0 -11 4 -40 8 -64 5 -32 4 -42 -4 -37 -7 4
-12 16 -12 27 0 11 -4 17 -10 14 -5 -3 -10 2 -10 13 0 18 -36 42 -65 42 -7 0
-17 10 -21 22 -3 12 -13 28 -20 36 -8 7 -12 18 -8 23 3 6 -4 7 -18 4 -15 -4
-30 0 -43 12 -11 10 -38 31 -60 48 -22 16 -47 37 -55 46 -17 19 -70 34 -70 20
0 -5 3 -11 8 -14 4 -2 1 -2 -5 -1 -7 2 -13 -1 -13 -5 0 -14 -49 -7 -55 8 -3 7
0 20 7 28 9 11 9 16 -2 23 -8 5 -18 6 -22 4 -4 -3 -8 0 -8 6 0 8 -9 10 -25 6
-14 -4 -25 -2 -25 4 0 5 -9 10 -19 10 -11 0 -23 5 -26 10 -4 6 -9 9 -13 7 -4
-2 -15 4 -24 15 -17 17 -17 18 2 18 11 0 49 -12 83 -26z m8391 -161 c19 -27
53 -79 76 -117 45 -75 151 -307 145 -317 -6 -9 -145 -20 -305 -24 -74 -3 -202
-9 -284 -16 -157 -11 -206 -8 -226 16 -11 13 -121 81 -225 139 -36 20 -45 40
-22 49 9 4 9 7 0 14 -8 6 -13 39 -14 91 -1 45 -5 84 -8 87 -4 2 -5 20 -3 39 3
29 8 35 26 34 11 -1 39 4 61 10 25 7 131 12 280 13 132 0 285 6 340 13 55 7
106 14 112 15 7 0 28 -20 47 -46z m-2692 -467 c50 -23 218 -170 218 -191 0 -5
18 -30 40 -56 51 -61 52 -82 0 -35 -22 20 -46 33 -54 30 -9 -3 -22 9 -37 35
-21 38 -49 55 -49 31 0 -18 -26 -11 -67 19 -23 16 -53 31 -68 33 -16 2 -35 14
-43 27 -16 23 -15 23 5 17 32 -10 40 26 14 63 -20 27 -27 51 -16 51 2 0 28
-11 57 -24z m2846 -223 c40 -21 82 -46 93 -56 11 -10 41 -22 67 -26 44 -6 45
-7 17 -13 -40 -8 -254 -3 -282 7 -26 8 -31 35 -8 35 8 0 15 4 15 9 0 5 -7 14
-15 21 -8 7 -15 18 -15 24 0 8 2 8 8 -1 8 -12 68 -11 80 2 4 5 1 5 -5 1 -7 -4
-13 -3 -13 2 0 5 -10 14 -22 20 -14 6 -17 11 -8 11 8 1 47 -16 88 -36z"/>
<path d="M2830 2418 c0 -12 -7 -18 -21 -18 -11 0 -17 5 -14 10 8 13 -1 13 -25
0 -12 -7 -17 -16 -13 -27 5 -13 2 -15 -15 -11 -13 4 -23 0 -26 -9 -3 -8 -12
-13 -19 -10 -6 2 -27 -5 -45 -15 -18 -10 -39 -18 -47 -18 -8 0 -15 -6 -15 -13
0 -8 -12 -14 -29 -14 -19 0 -43 -11 -66 -31 -19 -18 -40 -32 -45 -32 -6 0 -10
-6 -10 -13 0 -7 -16 -21 -35 -30 -19 -9 -35 -21 -35 -26 0 -5 -18 -27 -40 -49
-22 -21 -40 -42 -40 -46 0 -4 -10 -20 -21 -36 -12 -16 -19 -35 -16 -44 4 -10
1 -13 -9 -9 -21 8 -17 -25 5 -39 10 -6 17 -18 14 -25 -21 -54 85 74 122 147 5
11 14 20 18 20 5 0 23 11 41 26 17 14 69 53 115 87 47 34 100 77 119 95 19 17
39 32 45 32 5 0 25 14 44 30 18 17 40 30 48 30 8 0 20 8 27 19 7 10 22 21 33
23 15 3 11 6 -12 9 -27 5 -33 2 -33 -13z"/>
<path d="M2993 2274 c-10 -7 -30 -14 -45 -14 -15 0 -30 -4 -33 -10 -3 -5 -1
-10 4 -10 6 0 11 -11 11 -25 0 -15 -6 -25 -15 -25 -8 0 -12 6 -9 14 7 19 -32
27 -47 10 -6 -8 -19 -14 -27 -14 -14 0 -14 -3 2 -17 13 -13 20 -15 23 -5 3 6
12 12 21 12 16 -1 16 -2 0 -14 -10 -7 -16 -15 -14 -17 2 -2 -10 -5 -27 -5 -17
-1 -33 -6 -35 -12 -1 -5 -12 -7 -24 -4 -18 4 -20 2 -14 -21 4 -19 2 -27 -6
-27 -10 0 -10 -2 -1 -8 8 -5 9 -12 2 -22 -8 -11 -12 -12 -16 -2 -2 6 -9 12
-15 12 -6 0 -17 8 -25 18 -12 15 -13 14 -11 -15 2 -23 -3 -37 -17 -47 -20 -15
-20 -15 3 -16 12 0 25 6 28 14 3 8 11 13 18 10 7 -3 25 0 40 6 23 8 27 15 22
35 -3 13 -2 27 4 30 5 3 10 1 10 -4 0 -6 15 -12 33 -12 l32 -1 -29 -7 c-16 -3
-31 -12 -33 -18 -5 -13 48 2 112 31 96 45 144 66 150 66 4 0 38 16 76 35 39
19 77 35 85 35 7 0 14 7 14 15 0 18 -22 19 -68 3 -27 -10 -36 -10 -39 -1 -3 9
-12 9 -30 2 -27 -10 -63 -4 -63 11 0 5 6 10 13 13 6 2 0 6 -15 9 -16 3 -36 -1
-45 -8z"/>
<path d="M9125 7443 c-147 -131 -272 -239 -279 -241 -8 -2 -17 -12 -22 -22 -5
-11 -52 -57 -105 -102 -313 -270 -360 -314 -352 -333 3 -8 0 -15 -6 -15 -6 0
-11 5 -11 10 0 6 -13 1 -29 -11 -37 -27 -66 -14 -75 36 -6 31 -26 51 -26 25 0
-18 -17 -10 -28 13 l-11 22 0 -22 c-1 -28 53 -106 84 -123 34 -18 87 -5 128
33 20 17 53 46 74 64 20 18 34 35 30 40 -5 4 -12 1 -17 -7 -6 -9 -10 -10 -10
-3 0 12 58 72 142 144 29 26 84 74 122 107 59 52 71 59 87 49 15 -9 23 -7 49
18 22 21 27 31 18 37 -9 6 16 36 87 104 134 127 299 267 319 270 9 1 14 -2 10
-7 -3 -5 -1 -9 4 -9 9 0 36 23 140 118 l46 42 -51 0 -51 0 -267 -237z"/>
<path d="M4045 7263 c-16 -20 -34 -44 -40 -53 -10 -18 -70 -92 -92 -115 -9 -9
-13 -51 -13 -133 0 -99 3 -121 15 -126 12 -4 14 -10 5 -25 -14 -27 -13 -29 15
-23 20 3 25 0 25 -17 0 -11 -4 -21 -10 -21 -5 0 -10 -7 -10 -15 0 -12 3 -12
20 2 10 9 28 18 39 20 22 3 39 -15 25 -26 -5 -3 -15 -17 -23 -30 l-13 -24 27
21 c37 29 45 28 45 -8 0 -16 5 -30 10 -30 6 0 10 4 10 9 0 5 9 11 21 14 18 5
20 2 14 -24 -4 -17 -2 -29 3 -29 22 0 42 13 42 27 0 8 5 11 11 8 6 -4 8 -13 5
-21 -3 -8 -1 -24 3 -36 8 -20 10 -21 16 -5 10 23 19 21 35 -8 10 -18 17 -22
26 -14 9 8 16 5 24 -11 9 -16 18 -20 36 -16 17 5 24 2 24 -8 0 -21 21 -31 31
-15 7 12 9 11 9 -1 0 -10 23 -22 63 -34 34 -11 64 -22 67 -25 3 -4 27 -12 54
-19 27 -7 62 -22 79 -34 27 -19 30 -20 39 -5 21 38 107 -41 111 -103 1 -16 8
-30 15 -30 13 0 16 6 26 52 4 15 12 32 19 37 55 45 66 58 56 68 -11 11 2 50
15 46 3 -1 14 1 25 4 17 4 20 14 19 79 0 80 -7 85 -38 24 -39 -77 -197 -169
-214 -125 -5 13 12 27 69 53 11 5 29 19 39 31 19 21 19 21 -3 21 -12 0 -19 -4
-16 -10 3 -5 2 -10 -4 -10 -5 0 -11 5 -13 12 -3 9 -22 4 -65 -15 -69 -31 -83
-33 -83 -13 0 8 -19 23 -42 35 -54 26 -78 45 -78 61 0 7 -8 10 -19 7 -14 -3
-17 0 -14 14 4 14 1 16 -17 12 -12 -3 -25 -2 -29 3 -3 5 -16 17 -28 28 -18 15
-26 16 -37 7 -9 -7 -24 -10 -37 -6 -17 6 -19 9 -8 16 11 7 9 9 -6 9 -32 0 -47
20 -29 37 8 8 14 19 14 24 0 13 -28 11 -37 -3 -9 -15 -43 -20 -43 -6 0 5 -15
6 -32 3 -20 -4 -40 -1 -51 7 -15 11 -7 13 53 13 38 0 70 3 70 7 0 8 -16 12
-38 9 -10 -2 -12 4 -7 18 5 16 2 21 -13 21 -11 0 -25 7 -32 15 -7 8 -15 13
-19 11 -4 -3 -13 -1 -20 4 -10 6 -7 12 13 25 27 18 133 27 142 13 3 -5 1 -8
-5 -8 -14 0 -41 -29 -41 -46 0 -20 17 -18 47 6 48 37 61 17 16 -25 -31 -28
-20 -33 23 -10 34 17 123 114 124 133 0 8 -15 1 -39 -17 -21 -17 -42 -31 -45
-31 -3 0 5 18 20 41 29 47 26 59 -10 35 -38 -24 -46 -20 -29 15 21 41 4 60
-26 28 -28 -30 -39 -16 -17 22 10 17 16 33 13 36 -8 7 -47 -7 -47 -18 0 -5 -9
-9 -21 -9 l-20 0 20 26 c22 28 20 44 -5 44 -8 0 -19 11 -24 25 -5 14 -17 25
-26 25 -18 0 -53 38 -54 59 0 8 -6 11 -15 7 -10 -4 -20 3 -27 19 -15 34 -28
31 -63 -12z m6 -108 c-33 -42 -61 -81 -61 -86 0 -5 10 -8 23 -5 43 8 67 18 67
29 0 6 3 7 7 4 3 -4 -4 -19 -18 -33 -23 -25 -23 -26 -5 -39 13 -10 24 -11 37
-5 14 8 18 6 21 -13 2 -15 10 -22 25 -21 39 1 19 -50 -25 -67 -20 -8 -29 -7
-37 4 -5 8 -20 17 -33 21 -13 5 -22 15 -22 28 0 16 -5 19 -21 15 -16 -4 -20
-2 -17 11 7 25 -14 41 -45 35 -25 -5 -27 -3 -27 26 0 23 5 31 18 32 30 1 76
34 92 66 14 29 71 85 79 78 2 -2 -24 -38 -58 -80z"/>
<path d="M8770 6656 c-19 -8 -62 -24 -95 -36 -33 -12 -65 -26 -70 -30 -12 -10
-49 -18 -113 -25 -24 -3 -52 -9 -62 -15 -10 -5 -32 -10 -49 -10 -16 0 -33 -5
-37 -11 -3 -6 -19 -9 -34 -5 -18 3 -33 0 -39 -8 -7 -8 -25 -19 -41 -26 -17 -7
-30 -18 -30 -25 0 -31 188 -152 324 -209 l38 -16 -6 26 c-5 18 -3 24 5 19 6
-5 30 13 58 42 25 27 54 54 63 59 9 5 40 32 70 59 29 28 72 65 96 84 42 33 55
61 28 61 -23 0 -31 22 -11 32 14 8 15 12 4 19 -10 6 -11 9 -1 9 6 0 12 5 12
10 0 14 -69 12 -110 -4z"/>
<path d="M4012 6440 c-34 -55 -46 -60 -64 -30 -7 11 -16 20 -20 20 -12 0 -10
-248 2 -255 5 -3 7 -12 4 -19 -3 -8 -1 -17 5 -21 6 -3 11 2 11 12 0 36 27 -20
33 -70 4 -27 9 -53 12 -57 6 -10 56 9 67 25 6 10 243 13 253 3 3 -2 10 -43 16
-89 6 -46 15 -89 20 -95 5 -6 13 -127 19 -269 6 -142 12 -261 15 -263 6 -6 8
12 5 57 -1 20 2 31 8 27 13 -8 36 59 29 85 -3 10 -2 19 3 19 4 0 10 18 14 40
3 22 10 40 15 40 5 0 12 11 15 25 4 14 11 25 16 25 5 0 16 14 25 30 9 17 20
30 26 30 17 0 51 38 44 49 -3 7 2 11 14 11 11 0 23 5 26 10 3 6 -2 10 -12 10
-32 1 7 17 62 25 l50 8 -32 9 c-38 10 -37 8 -18 54 8 20 12 41 9 46 -4 6 2 7
17 3 22 -7 23 -7 9 11 -8 10 -18 21 -22 24 -4 3 13 25 37 49 41 40 55 61 39
61 -3 0 -24 -16 -46 -35 -23 -19 -45 -32 -50 -29 -5 3 -15 0 -23 -6 -8 -6 -23
-9 -35 -5 -14 5 -20 2 -20 -9 0 -31 -115 -15 -145 21 -5 6 -37 26 -70 43 -33
18 -67 37 -75 44 -8 7 -28 17 -43 24 -15 6 -30 19 -33 27 -4 8 -14 15 -24 15
-32 0 -31 16 4 54 l33 37 13 -30 c10 -25 15 -29 31 -21 14 8 20 6 29 -10 6
-11 20 -20 31 -20 11 0 27 -7 36 -15 14 -14 17 -14 34 1 18 16 19 16 25 -15 6
-30 7 -31 25 -15 11 10 25 30 33 45 14 28 14 28 -16 22 -28 -5 -29 -4 -22 22
7 27 5 27 -25 23 -30 -4 -32 -3 -26 22 5 25 3 27 -22 26 -15 0 -30 4 -33 9 -2
6 -15 16 -29 23 -23 12 -27 11 -44 -10 -18 -22 -18 -22 -8 -1 16 31 14 43 -6
36 -12 -5 -15 -2 -10 10 3 9 2 19 -3 22 -6 4 -10 1 -10 -4 0 -14 -41 8 -53 27
-7 10 -18 0 -44 -38 -28 -42 -34 -58 -29 -83 3 -17 3 -28 0 -24 -4 4 -13 2
-21 -5 -19 -15 -27 -4 -14 20 6 12 11 30 11 42 0 12 9 33 19 47 11 13 18 30
15 38 -3 7 -1 23 5 34 7 12 7 22 2 26 -5 3 -27 -22 -48 -55 -41 -65 -41 -64
-63 -50 -13 8 -11 17 13 60 15 27 27 55 27 60 0 23 -19 7 -48 -40z"/>
<path d="M8171 6381 c-11 -11 -23 -15 -28 -10 -5 5 -25 -9 -47 -31 -21 -22
-45 -40 -52 -40 -8 0 -14 -6 -14 -12 0 -8 16 -13 43 -14 63 -2 172 -31 214
-57 61 -37 73 -43 187 -102 84 -43 111 -53 118 -43 6 10 14 6 33 -15 l25 -28
0 35 c0 19 6 37 13 40 13 5 -29 45 -72 68 -14 7 -77 43 -138 80 -62 38 -117
68 -122 68 -5 0 -11 3 -13 8 -1 4 -31 22 -65 40 -62 33 -62 33 -82 13z"/>
<path d="M6230 6099 c-126 -6 -932 -20 -1314 -23 l-129 -1 -18 -33 -19 -32 27
17 c25 17 78 18 788 18 418 0 765 3 772 8 6 4 13 2 15 -5 2 -6 25 -12 51 -13
42 -2 47 0 47 19 -1 50 -18 53 -220 45z"/>
<path d="M5902 5662 l-233 -2 3 -103 3 -102 43 0 c23 1 132 2 242 3 l201 2 -3
102 c-2 58 -7 102 -13 102 -5 1 -115 0 -243 -2z"/>
<path d="M7535 5291 l-160 -6 -1 -98 c-1 -56 3 -100 9 -104 16 -10 381 -3 391
7 5 5 5 49 0 107 l-9 98 -35 1 c-19 0 -107 -2 -195 -5z"/>
<path d="M8825 5085 c7 -221 14 -474 15 -502 0 -16 6 -23 19 -23 16 0 17 5 9
53 -4 28 -8 84 -9 122 0 108 0 108 -16 315 -8 107 -17 197 -19 200 -3 2 -2
-72 1 -165z"/>
<path d="M9993 5232 c-111 -3 -126 -22 -18 -22 63 0 76 -3 85 -19 12 -23 -10
-51 -41 -51 -10 0 -19 -4 -19 -9 0 -10 19 -9 83 4 48 9 130 -2 124 -18 -2 -7
-14 -14 -28 -16 -13 -1 -26 -7 -29 -11 -3 -4 -39 -4 -80 -1 -81 8 -160 -3
-160 -22 0 -7 12 -20 25 -30 31 -22 86 -21 180 4 39 10 82 20 96 23 26 6 27 7
27 89 l1 83 -77 0 c-42 -1 -119 -2 -169 -4z"/>
<path d="M8542 4949 c-1 -28 -5 -56 -11 -62 -5 -7 -10 -15 -10 -19 -1 -5 -2
-11 -2 -15 -1 -5 -2 -17 -3 -28 -1 -11 -5 -20 -11 -20 -5 0 -10 23 -10 52 0
57 -6 70 -24 50 -8 -11 -8 -38 -1 -108 22 -190 25 -251 15 -259 -5 -4 -149
-10 -320 -12 l-309 -3 -1 22 c0 13 -3 23 -7 23 -5 0 -12 0 -18 0 -5 0 -10 -9
-10 -19 0 -17 -11 -19 -147 -25 -82 -3 -185 -8 -230 -11 -76 -4 -83 -2 -83 14
0 24 -30 36 -45 19 -6 -7 -16 -25 -23 -40 -12 -30 -8 -33 58 -42 66 -9 295
-20 370 -18 238 7 280 7 280 0 0 -5 17 -8 38 -9 20 -1 48 -4 62 -8 24 -7 23
-8 -10 -14 -19 -3 -70 -9 -112 -13 -49 -4 -76 -10 -75 -18 1 -6 -13 -12 -33
-13 -195 -14 -201 -15 -227 -38 -27 -22 -27 -22 -6 -33 16 -9 24 -8 33 3 19
23 103 34 350 45 265 11 295 12 289 5 -7 -7 -105 -14 -330 -25 -174 -8 -259
-19 -259 -32 0 -2 120 -3 267 -3 321 0 399 -11 309 -43 -30 -11 -36 -19 -46
-62 -6 -27 -9 -62 -6 -77 3 -15 7 -52 8 -81 1 -29 6 -56 11 -59 5 -3 7 36 5
96 -4 94 -3 103 18 122 13 12 40 22 66 25 37 4 40 3 18 -6 -41 -18 -60 -41
-59 -74 0 -27 1 -28 9 -10 5 12 20 24 34 28 40 10 137 -5 157 -25 16 -16 17
-16 22 3 10 37 25 9 32 -60 11 -110 36 -126 43 -29 2 29 9 58 15 65 15 19 75
42 108 42 15 0 35 8 44 17 13 12 35 17 84 17 49 1 66 4 66 15 0 18 -143 16
-258 -5 -45 -8 -83 -14 -84 -14 -2 0 -3 6 -3 14 0 17 -22 26 -61 26 -40 0 -36
16 6 24 24 5 35 12 35 25 0 15 -7 17 -57 13 -69 -5 -66 6 4 16 39 6 48 11 48
27 0 16 -8 21 -40 23 -66 5 -74 16 -15 22 43 4 54 8 51 20 -15 54 4 109 44
126 19 7 38 22 44 31 8 16 10 14 16 -10 4 -15 10 -27 14 -25 3 2 23 14 43 28
32 21 38 30 38 63 0 20 -9 54 -20 75 -12 21 -16 38 -10 40 5 2 10 8 10 13 0 5
-3 8 -7 7 -5 -2 -8 2 -8 7 0 6 3 9 8 8 4 -2 7 2 7 7 0 6 11 22 25 35 27 24 30
37 27 119 -2 40 -4 47 -16 37 -10 -8 -16 -9 -21 -1 -3 5 -14 10 -25 10 -10 0
-21 8 -25 18 -10 21 -24 -40 -24 -109 -1 -30 -8 -55 -20 -70 -17 -21 -21 -22
-44 -10 -23 12 -26 23 -37 112 -13 106 -28 131 -28 48z"/>
<path d="M7700 4735 c-14 -17 -7 -132 8 -147 10 -10 120 -13 129 -4 7 7 5 100
-3 139 -5 26 -8 27 -64 27 -39 0 -62 -5 -70 -15z"/>
<path d="M7353 4734 c-9 -4 -13 -29 -13 -74 0 -77 3 -80 81 -80 60 0 64 7 52
92 l-8 63 -50 2 c-27 1 -56 0 -62 -3z"/>
<path d="M8732 3982 c-34 -3 -45 -8 -52 -26 -10 -26 -32 -38 -55 -30 -13 5
-15 -3 -11 -57 3 -35 8 -111 11 -169 3 -58 8 -124 11 -147 5 -40 3 -43 -18
-43 -13 -1 -57 -3 -98 -5 -41 -2 -157 -7 -257 -10 -214 -8 -202 -14 -204 117
-1 46 -4 108 -7 138 -6 50 -9 55 -32 55 l-25 0 -1 -115 c-1 -180 3 -212 37
-251 16 -18 38 -57 50 -86 17 -43 20 -61 13 -100 -7 -39 -14 -48 -34 -53 -24
-6 -25 -9 -25 -88 1 -72 3 -84 25 -107 l25 -26 155 6 c366 14 345 11 355 56 8
37 -2 54 -22 38 -8 -7 -34 -12 -59 -10 -25 1 -52 -3 -60 -9 -11 -10 -14 -8
-14 12 0 14 -3 46 -6 71 -6 42 -5 46 15 44 21 -1 31 -17 11 -17 -5 0 -10 -6
-10 -14 0 -11 7 -13 23 -9 12 4 41 7 65 7 37 1 42 4 42 24 0 13 -6 22 -12 21
-7 -1 -24 2 -38 8 -44 18 -99 23 -112 10 -14 -13 -47 -16 -63 -6 -18 11 -88 4
-92 -8 -3 -7 2 -13 11 -13 9 0 16 -7 16 -15 0 -9 14 -16 38 -20 63 -11 70 -15
75 -43 7 -33 -3 -44 -38 -44 -15 0 -29 -7 -32 -14 -7 -19 -59 -18 -67 2 -3 9
-6 39 -6 67 0 66 -6 75 -55 79 -33 2 -41 7 -43 26 -2 12 -8 22 -13 22 -11 0
-10 74 1 110 l7 25 6 -25 c6 -22 16 -91 17 -113 0 -4 46 -6 103 -5 l102 3 5
65 5 65 43 1 c23 0 42 -3 42 -8 0 -4 19 -8 43 -8 63 0 111 -16 122 -42 19 -41
31 -30 44 39 11 65 9 261 -5 389 -5 50 -4 52 30 72 19 11 43 36 53 54 l18 33
3 -37 c3 -33 7 -38 28 -38 14 0 23 4 20 8 -3 5 6 15 19 22 14 7 27 21 30 30 3
10 14 25 25 35 11 10 20 29 20 42 0 23 -2 23 -77 21 -43 -2 -97 -4 -121 -6z"/>
<path d="M8373 3879 c-26 -9 25 -20 56 -12 17 4 22 2 19 -8 -3 -8 -16 -13 -32
-11 -14 1 -26 -2 -26 -8 0 -6 7 -10 16 -8 10 2 19 -2 21 -8 4 -12 -54 -23 -76
-16 -6 2 -11 19 -11 38 0 27 -4 34 -19 34 -18 0 -19 -2 -5 -30 9 -16 14 -44
12 -62 -3 -31 -6 -33 -45 -36 l-42 -3 -4 53 -3 53 -2 -52 -2 -53 -41 0 c-36 0
-40 -2 -37 -22 2 -13 9 -22 15 -21 43 8 407 3 416 -6 18 -18 29 -13 25 12 -2
15 -9 22 -25 21 -25 -1 -30 17 -35 106 l-3 45 -77 0 c-43 0 -85 -3 -95 -6z"/>
<path d="M7840 3856 c0 -8 -12 -17 -26 -20 -20 -5 -25 -12 -21 -26 3 -13 0
-20 -9 -20 -8 0 -14 -4 -14 -10 0 -5 7 -10 15 -10 8 0 15 -4 15 -10 0 -5 -9
-10 -20 -10 -11 0 -20 6 -20 14 0 8 -14 15 -35 18 -33 4 -35 2 -35 -25 0 -28
-1 -28 -50 -26 -27 2 -53 0 -56 -4 -4 -4 -20 -7 -36 -7 -18 0 -28 -5 -28 -14
0 -12 30 -15 163 -18 89 -2 167 0 172 3 6 4 29 10 53 14 43 7 59 25 22 25 -11
0 -21 6 -22 13 -3 23 -5 52 -7 90 -1 34 -3 37 -31 37 -19 0 -30 -5 -30 -14z"/>
<path d="M8786 3381 c-4 -5 -3 -73 0 -152 l7 -141 31 -13 c25 -11 34 -23 44
-59 14 -55 38 -61 76 -19 46 49 49 71 40 236 l-9 152 -92 3 c-51 1 -94 -1 -97
-7z"/>
<path d="M7410 2977 c0 -17 65 -109 72 -102 3 3 83 6 179 7 l174 1 53 44 c28
25 52 49 52 54 0 7 -75 8 -217 3 -267 -10 -263 -10 -290 0 -17 5 -23 4 -23 -7z"/>
</g>
</svg>
