<?xml version="1.0" standalone="no"?>
<!DOCTYPE svg PUBLIC "-//W3C//DTD SVG 20010904//EN"
 "http://www.w3.org/TR/2001/REC-SVG-20010904/DTD/svg10.dtd">
<svg version="1.0" xmlns="http://www.w3.org/2000/svg"
 width="1024.000000pt" height="768.000000pt" viewBox="0 0 1024.000000 768.000000"
 preserveAspectRatio="xMidYMid meet">
<metadata>
Created by potrace 1.16, written by Peter Selinger 2001-2019
</metadata>
<g transform="translate(0.000000,768.000000) scale(0.100000,-0.100000)"
fill="#000000" stroke="none">
<path d="M0 6403 c0 -1125 2 -1275 15 -1257 13 18 14 15 15 -30 0 -39 -3 -47
-15 -42 -12 4 -15 -6 -15 -63 0 -46 4 -71 13 -74 9 -4 9 -6 0 -6 -7 -1 -13
-13 -13 -27 0 -33 -49 -49 424 137 55 21 101 37 103 36 4 -5 -165 -76 -272
-116 -44 -16 -118 -45 -165 -64 l-85 -35 -3 -2431 -2 -2431 1272 0 1272 0 112
70 c132 83 219 124 241 116 8 -4 22 -1 29 5 7 6 18 8 24 4 16 -10 12 15 -10
64 -25 54 -25 59 0 36 11 -10 20 -22 20 -27 0 -5 13 -36 29 -69 17 -32 26 -59
21 -59 -5 0 -12 4 -15 10 -11 18 -117 11 -164 -10 -44 -20 -221 -129 -221
-136 0 -2 27 -4 60 -4 36 0 60 4 60 11 0 5 -5 7 -11 3 -19 -11 7 29 31 49 24
20 44 23 75 13 l20 -8 -20 17 c-20 17 -20 17 2 12 13 -3 26 -1 29 4 3 5 11 9
17 9 7 0 6 -4 -3 -10 -14 -9 -7 -14 13 -11 5 1 6 -3 2 -9 -3 -5 -2 -10 4 -10
6 0 6 -11 1 -30 -10 -35 4 -51 15 -17 l8 22 4 -22 4 -23 3620 0 3619 0 6 40
c8 46 29 53 46 15 6 -14 15 -25 20 -25 4 0 8 454 8 1010 l0 1009 -45 27 c-56
32 -59 42 -5 14 21 -11 42 -20 45 -20 3 0 5 51 5 114 l0 114 -31 6 c-17 3 -46
6 -63 6 -32 1 -213 93 -209 107 5 18 42 11 98 -20 33 -18 59 -39 57 -45 -1 -7
3 -12 10 -11 26 3 39 -1 33 -11 -3 -5 -2 -10 4 -10 5 0 13 5 16 10 4 6 11 8
16 4 5 -3 23 -9 39 -14 l30 -9 0 117 0 117 -200 98 c-110 54 -200 100 -200
102 0 7 37 -9 220 -98 161 -79 215 -99 165 -60 -11 9 -144 76 -295 150 -151
74 -276 136 -277 137 -5 5 119 236 127 236 16 0 12 -14 -30 -105 -22 -48 -40
-88 -40 -90 0 -1 39 -5 88 -8 48 -4 129 -16 181 -27 52 -11 106 -20 121 -20
15 0 35 -9 44 -19 10 -11 25 -17 37 -14 10 3 19 1 19 -5 0 -5 9 -12 20 -15 20
-5 20 0 20 658 l0 664 -35 12 c-25 10 -34 18 -30 29 17 42 17 70 1 70 -9 0
-16 -5 -16 -10 0 -6 -6 -10 -12 -9 -7 2 -41 -1 -75 -5 -67 -9 -133 -44 -154
-82 -6 -13 -15 -21 -19 -19 -8 5 -45 -35 -102 -106 -22 -26 -27 -41 -22 -63 4
-20 3 -26 -5 -22 -6 4 -8 12 -5 18 5 7 2 8 -5 3 -7 -4 -22 -21 -33 -39 -20
-31 -20 -31 -14 -4 10 45 25 78 35 78 6 0 27 26 47 58 56 89 121 151 192 183
35 16 70 29 78 29 8 0 14 5 14 10 0 6 -4 10 -8 10 -5 0 -17 7 -28 16 -14 11
-15 14 -3 11 9 -3 22 -1 29 3 10 6 7 10 -13 15 -32 8 -34 16 -9 38 23 21 70
21 140 3 79 -21 62 -2 -20 24 -40 12 -77 24 -83 26 -5 2 26 3 70 2 l80 -1 3
100 3 101 -41 7 c-38 6 -44 4 -89 -37 -54 -48 -59 -56 -67 -107 -3 -20 -13
-47 -21 -61 -16 -23 -17 -23 -24 -5 -12 30 -10 110 2 122 19 19 6 29 -26 22
-23 -5 -25 -7 -7 -8 26 -1 25 1 11 -40 -12 -34 -29 -42 -29 -13 0 14 -2 15
-10 2 -18 -27 -11 30 11 105 12 39 23 89 24 113 l3 42 -37 -7 c-20 -4 -53 -7
-73 -6 -24 0 -36 -3 -32 -9 4 -6 26 -8 53 -5 50 6 90 -6 55 -16 -90 -26 -184
-14 -222 26 -22 23 -22 64 0 51 6 -4 6 -9 -2 -14 -9 -6 -7 -11 9 -19 15 -8 21
-9 21 -1 0 6 4 9 9 5 5 -3 -1 15 -15 40 -27 52 -28 56 -13 53 6 -2 14 3 17 11
3 10 0 12 -12 8 -14 -6 -17 -2 -14 21 2 21 8 27 26 25 12 -2 22 2 22 7 0 6 -9
10 -19 10 -11 0 -23 5 -26 10 -10 16 -25 1 -42 -38 -9 -23 -18 -31 -24 -25 -7
7 -2 26 15 56 29 51 24 57 -40 57 -30 0 -37 -5 -48 -31 -10 -24 -15 -27 -19
-15 -7 18 -53 22 -59 5 -4 -12 -356 36 -372 51 -4 4 -6 13 -2 18 9 14 59 22
72 11 7 -6 27 -6 51 -1 23 5 62 6 89 1 27 -5 79 -11 116 -15 67 -6 67 -5 74
21 8 32 -7 45 -54 45 -20 0 -35 6 -39 16 -9 24 12 37 60 36 45 -1 45 -1 51 36
9 50 46 363 46 383 0 14 -19 18 -120 24 -94 5 -120 10 -120 21 0 12 22 14 122
12 l123 -3 13 110 c7 61 14 116 17 123 7 20 30 13 32 -10 1 -13 5 -58 9 -100
7 -80 1 -149 -42 -507 -14 -112 -23 -205 -21 -208 8 -7 37 9 37 21 0 6 7 65
15 131 8 66 20 161 25 210 6 50 17 122 26 161 15 67 17 72 45 76 48 7 46 12
63 -165 2 -15 11 -34 22 -42 15 -10 16 -16 7 -26 -9 -9 -8 -15 3 -26 8 -8 14
-28 14 -44 0 -18 6 -32 16 -36 11 -4 14 -14 11 -32 -3 -14 -2 -44 2 -66 l6
-40 58 -1 c52 -2 58 0 63 21 5 21 10 23 52 19 29 -2 52 -11 60 -21 6 -9 12
-12 12 -5 0 8 7 9 25 2 19 -7 25 -6 25 4 0 8 -9 16 -20 19 -11 3 -20 12 -20
21 0 19 36 40 45 26 3 -5 13 -10 21 -10 10 0 14 14 14 54 l0 53 -47 6 c-27 4
-83 9 -125 13 -73 6 -78 8 -78 30 0 12 5 26 11 30 6 3 56 8 112 10 82 2 104 6
114 20 9 13 13 68 13 201 0 192 0 191 -43 184 -37 -6 -186 0 -236 10 -55 10
-81 27 -48 31 36 4 -136 16 -249 17 l-132 1 -4 43 c-3 23 -1 51 3 62 11 30
157 175 176 175 3 0 13 10 24 23 l18 22 1 -26 c0 -25 30 -46 44 -31 11 10 6
35 -9 46 -19 14 -6 65 24 95 l21 21 0 -85 0 -85 44 0 c24 0 57 7 72 15 24 12
54 14 162 8 l132 -6 0 69 0 69 -79 58 c-100 72 -343 296 -335 309 3 5 12 7 20
4 8 -3 14 -3 14 -1 0 9 -61 36 -112 49 -45 13 -48 15 -21 15 39 1 121 -30 188
-71 28 -18 57 -31 65 -31 9 1 16 -7 16 -18 0 -19 -12 -26 -18 -10 -5 13 -48
24 -48 12 0 -6 7 -11 15 -11 9 0 18 -8 22 -17 9 -26 54 -73 70 -73 7 0 13 -4
13 -10 0 -17 113 -115 178 -154 9 -6 12 131 12 668 l0 676 -1290 0 c-1003 0
-1295 -3 -1316 -12 -22 -10 -28 -10 -32 0 -6 19 -30 14 -42 -8 -9 -17 -18 -19
-62 -15 -30 3 -54 1 -58 -5 -3 -5 -44 -18 -91 -27 -46 -9 -87 -21 -91 -27 -4
-6 -11 -6 -21 2 -12 10 -16 9 -21 -3 -4 -11 -13 -14 -26 -10 -28 9 -60 -3 -61
-23 0 -10 -3 -12 -5 -5 -4 9 -13 9 -30 2 -14 -5 -34 -9 -46 -9 -11 0 -27 -9
-36 -20 -12 -15 -33 -22 -77 -25 -36 -4 -64 -12 -71 -20 -6 -8 -27 -15 -47
-15 -31 0 -38 -5 -52 -34 -11 -22 -26 -37 -43 -41 -15 -4 -30 -12 -34 -18 -6
-9 -12 -9 -28 1 -16 10 -20 10 -20 -2 0 -8 -15 -17 -37 -21 -21 -4 -42 -10
-48 -15 -5 -4 -34 -13 -63 -21 -32 -8 -58 -21 -64 -32 -6 -12 -16 -16 -26 -12
-14 5 -15 4 -4 -6 19 -20 15 -29 -13 -29 -25 0 -37 -20 -12 -20 19 -1 -24 -30
-45 -30 -11 0 -15 -5 -12 -15 4 -10 0 -15 -12 -15 -11 0 -28 -7 -38 -15 -18
-13 -18 -15 -2 -21 10 -4 22 -2 29 5 13 13 31 15 22 2 -3 -5 -1 -12 4 -15 12
-8 97 -27 131 -30 34 -3 114 -15 175 -26 28 -5 109 -12 180 -16 72 -3 157 -8
190 -11 33 -3 361 -6 729 -7 526 -1 670 -4 673 -13 5 -15 33 -17 33 -3 0 6 26
10 58 10 40 0 53 -3 42 -10 -13 -8 -12 -10 5 -11 24 -2 -119 -19 -155 -19 -14
0 -108 -7 -210 -16 -102 -8 -203 -17 -225 -19 l-40 -3 -7 -53 c-3 -30 -6 -82
-7 -115 -1 -43 -6 -65 -17 -75 -9 -7 -20 -24 -26 -38 -7 -20 -11 -22 -18 -11
-6 9 -5 17 3 22 7 5 -1 6 -18 4 -134 -21 -158 -26 -163 -31 -3 -3 2 -5 10 -5
9 0 21 -6 27 -13 16 -20 -20 -51 -48 -42 -15 4 -21 2 -21 -8 0 -20 -44 -39
-59 -24 -8 8 -15 6 -28 -6 -10 -9 -23 -13 -28 -9 -13 9 -35 72 -35 100 0 13
-6 22 -15 22 -8 0 -15 -4 -15 -9 0 -8 -66 -26 -82 -23 -5 1 -8 -2 -8 -7 0 -5
-15 -12 -34 -15 -18 -4 -44 -16 -57 -27 -72 -61 -80 -71 -75 -86 5 -13 0 -14
-29 -9 -29 6 -34 4 -29 -9 5 -11 2 -14 -10 -9 -9 3 -16 1 -16 -5 0 -6 -17 -11
-39 -11 -22 0 -43 -5 -46 -11 -5 -7 5 -8 32 -3 21 4 36 4 33 1 -3 -3 -61 -15
-130 -27 -138 -24 -147 -29 -141 -92 1 -10 -3 -18 -9 -18 -8 0 -10 15 -7 45 4
39 3 45 -11 41 -10 -3 -61 -10 -114 -17 -54 -7 -98 -16 -98 -21 0 -4 -14 -8
-31 -8 -31 0 -31 1 -24 38 8 44 8 41 5 72 -1 23 -2 23 -10 5 -5 -11 -9 -41 -9
-67 -1 -52 0 -51 -69 -48 -24 1 -49 -3 -56 -9 -12 -10 -126 -29 -181 -31 -17
-1 -18 -2 -4 -10 11 -6 15 -18 12 -34 -5 -25 -34 -36 -94 -36 -15 0 -30 -4
-34 -10 -8 -13 -37 0 -31 15 3 8 -2 16 -10 19 -11 4 -14 1 -9 -13 7 -24 -11
-37 -30 -21 -10 9 -14 7 -18 -7 -4 -14 -5 -15 -6 -2 -1 12 -8 15 -26 11 -23
-4 -25 -1 -25 32 0 41 -3 39 124 56 44 6 82 13 85 16 3 3 8 28 11 57 l5 51 90
18 c50 10 128 24 175 31 l84 12 3 43 3 42 -97 0 c-105 0 -220 -16 -242 -34
-10 -7 -102 -12 -285 -13 -276 -2 -619 -10 -691 -18 -22 -2 -68 -6 -103 -10
-66 -6 -105 -19 -134 -43 -15 -12 -18 -10 -27 25 -6 21 -11 50 -11 64 0 54
-18 63 -136 65 -147 2 -127 2 -329 3 -415 2 -770 13 -777 25 -6 8 -8 7 -8 -2
0 -10 -31 -13 -135 -11 -127 1 -136 2 -160 25 -14 13 -23 29 -20 34 3 6 2 10
-3 10 -16 0 -9 30 7 31 9 1 5 5 -9 9 -14 4 -20 8 -13 9 6 1 9 11 7 24 -2 12
-2 17 1 11 6 -11 65 -6 65 6 0 9 -101 20 -181 20 -54 0 -77 -12 -46 -23 9 -3
9 -8 1 -16 -7 -8 -50 -11 -135 -9 -115 3 -124 4 -127 23 -7 34 -21 40 -31 12
-8 -20 -18 -27 -38 -28 -63 -1 -204 3 -288 9 -79 6 -91 10 -99 28 -12 26 -70
34 -242 34 -112 0 -129 -5 -99 -30 8 -7 15 -17 15 -23 0 -7 -4 -7 -12 1 -16
16 -55 15 -61 0 -6 -19 24 -101 42 -116 13 -11 -26 -12 -223 -6 -131 3 -252
10 -270 15 -17 5 -48 9 -69 9 -36 0 -74 15 -89 35 -5 6 -11 5 -17 -3 -9 -15
-52 0 -269 97 -140 62 -144 65 -129 98 8 18 8 29 -1 44 -13 21 -9 23 35 19 12
-1 31 4 42 9 11 6 51 14 88 17 37 3 95 9 128 14 67 11 343 15 353 6 3 -3 16 1
29 9 16 11 29 13 41 6 37 -20 128 -84 154 -108 14 -14 32 -23 38 -21 11 3 -64
74 -174 164 -21 17 -34 34 -29 37 12 7 172 -121 210 -167 15 -19 31 -32 35
-30 4 3 8 25 8 49 0 38 -3 45 -23 50 -14 4 -23 14 -24 27 -2 19 -1 19 18 2 10
-9 22 -14 26 -11 3 4 1 7 -5 7 -7 0 -12 4 -12 10 0 6 15 8 35 4 25 -4 35 -2
33 7 -2 6 3 14 10 16 6 3 12 0 12 -6 0 -6 5 -11 10 -11 6 0 10 9 10 20 0 11 5
20 10 20 14 0 12 27 -2 37 -7 4 -13 19 -13 33 0 20 -5 25 -24 25 -14 0 -26 6
-29 13 -6 18 -20 15 -25 -5 -4 -17 -5 -17 -6 0 -1 18 -26 23 -36 7 -4 -6 -11
-8 -16 -4 -5 3 -7 9 -4 14 6 9 -18 20 -43 20 -9 0 -30 11 -46 25 -21 18 -39
24 -67 23 -22 -1 -39 -5 -39 -10 0 -4 -4 -8 -10 -8 -5 0 -10 7 -10 15 0 8 5
15 10 15 6 0 10 9 10 20 0 11 -4 20 -9 20 -5 0 -13 -9 -16 -20 -10 -31 -33
-25 -29 8 2 15 1 21 -2 15 -9 -20 -23 -15 -36 12 -6 14 -15 25 -20 25 -5 0
-44 35 -87 77 -74 72 -78 78 -69 105 7 20 17 28 34 28 14 0 24 6 24 14 0 23
20 30 34 11 12 -16 15 -17 48 -1 28 14 46 15 94 8 61 -10 104 -2 104 20 0 8 5
6 11 -4 5 -10 17 -18 24 -18 8 0 15 -8 16 -17 0 -15 2 -15 8 2 5 11 7 23 4 28
-2 4 5 7 17 7 13 0 19 -4 14 -11 -4 -7 0 -9 14 -5 33 11 142 14 142 5 0 -5 10
-9 22 -9 17 0 19 3 10 12 -18 18 -15 36 8 43 37 12 21 25 -30 25 -44 0 -52 -3
-62 -25 -11 -25 -28 -34 -28 -15 0 6 5 10 10 10 6 0 10 7 10 15 0 13 -126 15
-1000 15 l-1000 0 0 -1277z m1047 1222 c7 -5 28 -23 47 -40 19 -16 57 -50 85
-74 28 -25 51 -50 51 -57 0 -6 15 -19 33 -27 71 -35 158 -137 115 -137 -6 0
-8 6 -5 13 3 9 -17 12 -82 12 -155 1 -281 7 -281 14 0 3 -4 33 -10 66 -5 33
-11 101 -14 150 l-6 91 28 -1 c15 0 33 -4 39 -10z m-276 -697 c7 -24 11 -51
10 -60 -1 -10 3 -18 8 -18 6 0 11 -7 11 -15 0 -10 10 -15 29 -15 31 0 66 -30
44 -37 -18 -6 -16 -32 2 -39 8 -4 22 -1 30 6 18 15 20 46 3 53 -8 4 -7 6 3 6
9 1 27 -7 39 -17 l23 -19 -24 -21 c-21 -21 -22 -23 -7 -39 15 -14 18 -14 31
-1 11 11 13 25 7 56 -4 23 -5 43 -1 43 3 1 20 2 38 3 l32 1 -27 -22 -27 -23
24 3 c13 1 26 -4 29 -12 3 -9 0 -11 -8 -6 -9 5 -11 4 -6 -4 4 -6 11 -9 16 -6
5 3 57 -14 117 -37 l108 -43 -120 -5 c-66 -4 -115 -7 -109 -8 7 -1 15 -17 18
-36 4 -19 12 -38 19 -44 18 -14 107 -22 342 -31 202 -7 212 -8 270 -35 33 -16
71 -30 85 -32 14 -2 43 -10 65 -18 38 -14 32 -15 -123 -15 -159 -1 -163 -2
-157 -21 6 -17 2 -20 -30 -20 -22 0 -34 -4 -30 -10 7 -12 85 -14 85 -2 0 4 30
5 68 1 37 -5 149 -8 249 -8 100 -1 188 -4 197 -7 9 -3 16 -17 16 -30 l0 -24
-406 0 c-252 0 -412 4 -424 10 -13 7 -21 7 -25 0 -3 -5 -42 -10 -86 -10 -47 0
-79 -4 -79 -10 0 -6 6 -12 13 -15 23 -7 819 -19 1060 -15 29 0 40 29 12 31 -8
1 -19 3 -25 4 -5 1 -14 3 -20 4 -12 1 -14 41 -2 41 4 0 17 -7 28 -15 28 -19
33 -12 23 38 -4 23 -8 45 -9 48 0 12 -49 28 -55 19 -4 -6 -11 -10 -18 -10 -21
0 28 29 53 31 14 1 0 5 -30 8 -30 3 -57 3 -58 -2 -2 -4 -13 3 -24 15 l-20 23
5 -22 c6 -26 -8 -39 -26 -25 -7 5 -25 12 -42 15 -32 6 -129 47 -123 52 2 1 30
-1 63 -6 33 -4 61 -6 63 -5 2 2 -21 16 -50 31 l-53 26 467 -3 c258 -2 468 -5
468 -8 0 -3 85 -4 190 -2 162 2 193 0 214 -14 42 -27 138 -4 151 36 9 29 26
24 19 -6 l-7 -25 637 3 c393 2 636 7 636 12 0 6 5 5 12 -2 7 -7 42 -12 87 -12
63 0 78 -3 98 -22 13 -12 23 -28 23 -36 0 -9 6 -12 15 -8 20 7 32 -21 16 -37
-8 -8 -11 -6 -11 8 0 27 -12 10 -16 -23 -2 -22 2 -32 19 -40 21 -10 20 -11
-10 -11 -17 -1 -35 -5 -38 -11 -3 -5 -17 -10 -30 -10 -28 0 -55 -9 -55 -20 0
-7 266 -19 493 -22 70 0 127 -5 127 -10 0 -5 9 -7 19 -3 15 4 20 0 23 -17 3
-21 8 -23 71 -23 49 0 70 -4 77 -15 7 -12 31 -15 105 -15 l95 0 0 -27 c0 -20
-4 -26 -15 -22 -9 4 -15 0 -15 -8 0 -8 -9 -24 -21 -37 l-21 -22 -21 22 c-13
14 -22 18 -25 11 -2 -7 -10 -12 -18 -12 -9 0 -13 4 -10 8 6 11 -31 9 -41 -2
-5 -4 -10 -143 -13 -309 l-5 -301 -67 -2 c-94 -3 -141 -31 -180 -107 -17 -31
-34 -81 -38 -110 -5 -34 -6 -4 -4 83 2 74 6 298 9 497 l5 363 -24 6 c-46 11
-60 2 -70 -46 -14 -68 -19 -1290 -6 -1290 6 0 29 9 50 20 l40 20 1 73 c1 66 2
70 13 44 7 -16 18 -32 24 -36 6 -3 17 -28 24 -55 10 -39 10 -50 1 -53 -7 -3
-13 -11 -13 -19 0 -9 4 -12 10 -9 6 3 10 -1 10 -9 0 -10 -9 -16 -24 -16 -18 0
-25 7 -31 33 -5 22 -9 27 -12 14 -3 -9 -9 -15 -14 -12 -5 4 -9 -1 -9 -10 0
-11 -7 -16 -22 -14 -28 4 -51 -9 -42 -23 5 -8 -4 -9 -27 -5 -19 3 -28 3 -21 0
6 -2 9 -9 6 -15 -3 -5 2 -16 12 -24 16 -12 12 -12 -21 1 -37 15 -42 15 -76 -2
-20 -9 -40 -26 -45 -38 -5 -11 -18 -20 -29 -20 -11 0 -25 -11 -32 -25 l-13
-25 6 25 c3 14 14 37 25 52 10 15 19 30 19 33 0 3 -21 5 -46 5 -27 0 -43 -4
-39 -10 3 -5 -4 -10 -15 -10 -15 0 -20 -5 -17 -14 6 -16 -19 -30 -35 -20 -5 3
-7 11 -5 18 2 6 -6 22 -19 35 -20 22 -24 23 -30 8 -3 -9 -10 -17 -15 -17 -5 0
1 16 12 36 l20 37 -50 -5 c-28 -3 -51 -1 -51 3 0 5 8 9 18 10 13 0 14 2 2 6
-15 6 -30 23 -30 34 0 19 54 18 86 0 l34 -20 35 20 c26 16 33 25 25 34 -13 15
-1 75 16 82 7 2 10 11 7 19 -3 8 0 14 6 14 6 0 11 15 11 33 0 50 -49 113 -100
128 l-40 12 -2 206 c-1 124 -4 178 -7 135 -5 -61 -8 -71 -24 -68 -50 7 -49 3
-44 179 3 95 1 165 -4 165 -5 0 -9 -121 -9 -281 0 -221 -3 -280 -12 -276 -7 3
-21 8 -30 12 -25 10 -23 -17 1 -32 11 -7 25 -29 31 -49 12 -36 11 -39 -14 -59
-30 -24 -96 -33 -96 -13 0 7 4 29 9 49 8 34 7 35 -20 31 -32 -5 -38 8 -14 28
21 18 19 28 -7 32 -22 3 -22 4 7 21 l30 18 -27 -6 c-30 -6 -45 9 -29 29 9 10
7 15 -8 19 -19 5 -38 58 -26 77 3 5 19 13 34 17 24 7 26 10 16 20 -11 10 -17
10 -28 -2 -8 -8 -25 -16 -38 -19 -70 -14 -89 -15 -89 -4 0 6 -8 20 -17 30 -16
17 -15 20 3 46 23 31 113 80 122 66 4 -5 25 -9 46 -8 45 1 61 25 41 59 -7 11
-13 43 -14 70 -2 66 -8 83 -32 90 -10 4 -19 10 -19 15 0 5 6 7 14 4 11 -4 13
0 9 16 -5 19 -11 21 -74 18 l-69 -3 0 -67 0 -66 -37 -19 c-46 -22 -94 -98
-101 -158 -3 -35 1 -55 22 -94 14 -28 26 -58 26 -66 0 -9 10 -29 22 -45 l22
-30 -35 -34 c-19 -19 -45 -48 -59 -65 -14 -17 -30 -31 -36 -31 -17 0 -62 -53
-79 -92 -8 -21 -11 -38 -6 -38 5 0 35 -15 66 -32 51 -30 59 -40 96 -116 24
-49 49 -125 63 -186 l23 -104 -24 -11 c-13 -6 -37 -11 -52 -11 -25 0 -28 3
-25 28 5 43 -5 62 -32 62 -14 0 -22 4 -19 10 3 6 2 10 -4 10 -6 0 -7 15 -4 36
5 29 3 36 -8 32 -9 -3 -13 -15 -11 -32 2 -17 0 -26 -6 -22 -6 4 -9 -12 -8 -41
2 -27 0 -104 -4 -173 -7 -122 -7 -125 16 -147 20 -18 24 -32 25 -90 2 -105
-11 -256 -23 -270 -7 -9 -7 -13 1 -13 8 0 10 -8 6 -21 -5 -14 -3 -19 4 -15 6
4 16 34 23 66 14 67 24 66 37 -4 6 -35 5 -55 -5 -75 -8 -16 -15 -40 -16 -54
-2 -21 -5 -24 -19 -16 -27 14 -32 11 -27 -15 4 -19 1 -23 -11 -19 -9 4 -21 10
-27 15 -17 12 -24 -35 -8 -50 7 -7 29 -12 49 -12 49 0 45 -27 -19 -123 -10
-15 -16 -35 -13 -45 6 -26 -17 -69 -28 -52 -5 8 -1 18 10 27 16 11 16 13 3 13
-9 0 -18 -6 -21 -12 -3 -9 -13 -5 -31 11 -14 14 -26 20 -26 16 0 -5 -7 0 -15
11 -15 23 -19 118 -4 108 5 -3 9 0 9 6 0 7 -7 10 -15 7 -14 -6 -28 7 -31 31
-1 6 4 12 12 12 8 0 14 -4 14 -10 0 -5 4 -10 8 -10 16 0 -5 96 -38 175 -33 81
-64 125 -86 125 -7 0 -21 12 -32 27 -11 16 -23 25 -27 21 -8 -8 28 -80 49 -97
31 -26 88 -191 87 -253 0 -10 4 -18 10 -18 5 0 9 -7 9 -15 0 -22 -28 -18 -35
5 -3 11 -4 24 -1 28 7 12 -18 93 -43 139 -12 21 -48 95 -80 165 -33 69 -65
129 -71 133 -9 6 -9 2 -1 -13 6 -11 11 -33 10 -49 0 -25 -2 -24 -14 12 l-13
40 -1 -37 c-1 -43 -6 -47 -46 -37 -16 3 -25 8 -20 9 6 1 -6 7 -25 14 -29 11
-35 18 -36 44 -1 18 2 32 7 32 20 0 7 20 -16 26 -24 6 -24 7 -8 20 16 12 13
13 -24 14 -25 0 -43 5 -43 11 0 8 20 10 60 7 50 -4 60 -2 60 11 1 23 50 -35
50 -59 0 -25 9 -29 69 -31 28 -1 51 -5 51 -8 0 -3 10 -7 23 -7 12 -1 43 -5 69
-9 l47 -8 21 47 22 46 -35 39 c-50 56 -71 99 -57 116 9 11 7 12 -9 8 -12 -3
-21 -1 -21 4 0 19 -67 77 -115 99 -77 34 -101 58 -32 31 32 -13 67 -31 78 -40
29 -26 32 -21 25 38 -8 66 -44 148 -64 140 -7 -2 -10 0 -7 5 3 6 1 10 -6 10
-20 0 -38 33 -39 73 0 20 5 37 10 37 11 0 57 -70 53 -82 -1 -3 4 -8 11 -11 11
-4 9 7 -6 41 -11 26 -25 53 -31 60 -5 7 -7 15 -4 18 3 3 13 -8 22 -25 21 -42
29 -39 11 4 -20 46 -7 82 31 91 42 9 50 12 31 13 -10 1 -18 8 -18 16 0 25 28
72 52 89 l22 16 -21 0 c-26 0 -39 18 -24 33 16 16 14 27 -6 27 -16 1 -16 2 1
15 12 9 15 15 7 15 -8 0 -11 7 -8 19 2 10 -3 25 -13 33 -9 9 -23 36 -31 62
-11 37 -19 48 -39 52 -14 3 -31 7 -37 10 -18 5 -16 41 3 56 9 7 27 23 41 36
17 16 39 24 69 25 24 1 44 3 44 4 0 1 -5 15 -12 30 -17 40 -48 73 -69 73 -10
0 -21 5 -24 11 -9 14 -127 3 -163 -15 -52 -27 -92 -92 -92 -151 0 -20 11 -58
25 -85 14 -27 25 -56 25 -65 0 -16 20 -44 58 -80 33 -33 27 -49 -30 -78 -47
-25 -54 -26 -74 -12 -29 19 -180 36 -211 24 -14 -5 -25 -9 -26 -9 -1 0 -3 28
-5 63 -4 93 -19 389 -21 412 -1 11 -4 75 -7 142 -5 113 -4 122 14 132 19 10
179 28 307 34 33 2 8 4 -56 5 -64 1 -136 5 -161 8 l-45 6 36 37 c47 48 60 53
161 61 l85 7 -85 2 c-106 2 -117 7 -93 49 10 17 15 33 12 36 -3 3 -167 9 -364
14 -198 5 -367 11 -375 13 -8 2 -18 12 -22 22 -5 11 -18 17 -37 17 -28 0 -30
-2 -21 -25 5 -14 6 -25 2 -25 -4 0 -4 -35 -1 -77 5 -58 25 -133 79 -296 60
-180 71 -220 59 -228 -8 -5 -9 -9 -4 -9 6 -1 -16 -9 -47 -19 -35 -11 -66 -30
-81 -47 -23 -26 -31 -29 -94 -30 -76 -2 -135 -23 -171 -61 -13 -14 -25 -23
-28 -21 -2 3 -11 90 -20 194 -8 104 -18 221 -22 259 l-7 70 -47 3 c-39 3 -47
7 -52 27 -4 14 -4 42 -1 62 3 21 2 74 -2 118 l-8 80 -37 6 c-20 3 -35 2 -32
-3 3 -4 -217 -5 -488 -2 -272 3 -501 2 -511 -2 -25 -9 -23 -64 3 -71 26 -7 26
-19 -1 -26 -12 -3 -18 -10 -15 -15 3 -5 13 -83 21 -173 17 -175 33 -300 39
-307 3 -2 12 10 21 27 8 17 19 31 23 31 4 0 8 11 8 24 2 35 37 101 51 99 7 -2
10 4 7 12 -10 24 28 108 65 142 18 18 50 37 70 43 52 14 111 57 111 81 0 43
-19 61 -63 59 -23 -1 -53 -1 -67 0 -54 3 13 16 73 14 57 -2 60 -4 63 -29 1
-14 14 -46 28 -69 14 -24 23 -46 20 -48 -4 -5 26 -117 115 -433 16 -55 32
-108 36 -119 6 -13 4 -17 -5 -14 -7 2 -27 47 -43 99 -16 52 -30 95 -32 97 -1
2 -70 -22 -151 -52 -82 -30 -186 -67 -231 -82 -97 -33 -91 -12 -68 -227 9 -78
30 -272 46 -432 17 -159 33 -309 36 -332 6 -47 5 -48 -31 -32 -31 15 -43 62
-52 204 -3 60 -12 133 -20 163 -8 29 -14 61 -14 70 0 32 -44 157 -66 188 -27
36 -68 49 -86 26 -9 -11 -13 -57 -12 -156 1 -143 12 -249 41 -388 9 -43 13
-81 9 -85 -4 -5 -33 -9 -64 -10 -31 -2 -77 -7 -102 -12 -25 -5 -77 -12 -115
-16 l-70 -6 -13 103 c-16 125 -34 314 -33 347 1 14 6 28 12 32 7 4 -9 4 -35 2
-31 -4 -46 -2 -46 6 0 6 10 11 23 12 21 0 21 1 -3 11 l-25 10 29 10 c23 9 30
8 38 -6 5 -9 13 -14 17 -11 12 7 1 55 -13 52 -6 -1 -10 8 -8 21 2 13 -2 22
-10 23 -7 0 -4 4 7 9 30 13 38 12 32 -5 -4 -8 -3 -16 1 -19 14 -9 11 33 -4 45
-8 6 -14 19 -14 28 0 11 7 7 23 -13 20 -24 25 -26 30 -13 3 9 3 16 -1 14 -14
-4 -63 41 -52 48 6 4 17 1 25 -5 12 -10 15 -8 16 11 0 13 3 18 6 11 2 -6 9 -9
14 -6 6 3 4 15 -5 29 -23 34 -10 62 32 72 l37 9 -29 27 c-34 32 -29 43 13 29
29 -10 31 -9 31 12 0 13 -7 27 -16 30 -10 4 -13 13 -9 26 4 11 2 20 -4 20 -6
0 -11 5 -11 10 0 6 7 10 15 10 9 0 15 -9 15 -24 0 -26 25 -42 37 -23 4 7 6 20
4 31 -1 10 2 22 8 26 7 4 9 15 5 25 -7 17 -8 17 -15 -3 -10 -26 -29 -29 -29
-4 0 10 -7 28 -16 40 -16 24 -13 26 38 22 25 -1 27 1 24 32 -2 18 -6 41 -11
51 -4 10 -2 23 5 32 14 17 5 36 -15 28 -8 -3 -15 0 -15 6 0 6 7 11 16 11 13 0
15 7 11 33 -3 17 -8 77 -12 132 -3 55 -10 143 -15 195 -5 52 -12 129 -15 170
-14 193 -25 344 -34 445 -15 166 -23 315 -17 315 3 0 11 -19 17 -42z m8263
-189 c-8 -15 -14 -36 -15 -46 0 -16 -1 -16 -8 2 -5 11 -7 22 -5 25 1 3 -6 6
-16 7 -10 1 -21 -5 -24 -13 -3 -8 -12 -14 -20 -14 -7 0 -13 -7 -12 -16 0 -9
-5 -19 -12 -22 -9 -3 -13 3 -10 19 3 24 2 24 -72 21 -41 -1 -100 -7 -130 -12
-30 -5 -91 -12 -135 -15 l-80 -5 95 19 c52 11 142 27 200 37 58 10 134 23 170
29 92 16 91 16 74 -16z m-5834 -39 c57 -5 70 -7 38 -8 -45 -2 -79 -21 -41 -23
12 -1 10 -3 -7 -8 -16 -5 -24 -14 -23 -25 1 -17 -9 -18 -175 -12 -98 4 -190 7
-207 7 -356 4 -615 13 -615 21 0 6 53 8 135 6 l135 -3 0 27 c0 14 6 29 13 32
15 7 634 -4 747 -14z m5287 -37 c-4 -3 1 -11 10 -18 11 -8 14 -18 8 -31 -4
-10 -8 -22 -7 -25 1 -3 -11 -21 -26 -39 -24 -27 -36 -33 -77 -36 -28 -2 -72
-6 -100 -9 -27 -3 -84 -8 -125 -11 -49 -4 -78 -11 -85 -21 -20 -27 -50 -12
-53 28 -6 67 39 128 69 96 10 -11 20 -11 48 -1 20 7 83 19 141 28 58 8 106 20
108 26 2 5 7 8 12 5 4 -3 19 -1 32 4 27 11 54 14 45 4z m523 -73 c0 -5 -4 -10
-9 -10 -15 0 -22 -31 -27 -115 -5 -94 -11 -125 -24 -125 -5 0 -10 32 -12 71
l-3 71 -40 -29 c-83 -59 -114 -75 -131 -65 -16 9 -16 11 2 25 10 9 66 54 123
101 102 84 121 96 121 76z m-2286 -411 c-5 -8 6 -10 37 -5 93 13 499 19 499 7
0 -6 -12 -11 -27 -11 -71 -2 -308 -12 -311 -14 -2 -3 -66 -230 -108 -386 -14
-52 -49 -183 -79 -290 -147 -532 -175 -637 -175 -663 0 -32 -16 -68 -36 -80
-7 -4 -25 -44 -39 -90 -35 -105 -51 -124 -24 -26 32 112 33 113 9 134 -21 19
-22 19 -36 1 -15 -22 -10 -38 10 -30 24 9 25 -11 4 -45 -16 -25 -26 -31 -43
-27 -17 4 -22 2 -21 -12 0 -11 -6 -17 -19 -17 -11 -1 -19 -6 -17 -13 2 -14
-45 -6 -62 9 -6 5 -17 9 -25 9 -10 -1 -5 -7 10 -15 35 -19 45 -45 18 -45 -56
0 -133 61 -90 73 16 4 93 -5 116 -14 6 -2 11 1 13 6 1 6 -16 11 -39 13 -33 3
-49 11 -80 43 -41 43 -60 50 -52 19 3 -11 1 -20 -5 -20 -28 0 -23 44 5 55 9 3
20 0 25 -7 6 -10 8 -10 8 2 0 19 63 70 87 70 33 0 64 12 60 24 -2 6 -14 10
-25 8 -29 -4 -28 10 2 24 27 12 53 3 42 -15 -13 -21 23 -23 68 -3 45 20 45 20
70 1 28 -22 31 -20 50 52 8 30 33 117 55 194 21 77 53 192 69 255 29 110 88
321 171 610 22 74 42 150 46 168 l7 34 -49 -7 c-121 -16 -123 -16 -123 -36 0
-10 -6 -19 -14 -19 -8 0 -18 -5 -22 -12 -5 -8 0 -9 14 -6 20 6 22 2 22 -32 0
-36 -2 -40 -37 -49 -20 -6 -39 -8 -42 -6 -2 3 -12 -1 -20 -9 -30 -27 -45 -4
-44 68 l1 66 -33 0 -33 0 -6 -92 c-4 -51 -6 -126 -5 -165 2 -40 1 -75 -2 -77
-5 -5 -190 58 -243 84 -23 11 -47 20 -53 20 -14 0 -27 -36 -18 -50 8 -13 84
-46 170 -75 93 -30 169 -66 156 -74 -6 -4 -7 -12 -1 -21 6 -8 9 -28 9 -45 -1
-29 -1 -29 -9 -5 -4 14 -9 23 -9 20 -3 -9 -12 -129 -20 -255 l-8 -120 -2 111
c-1 88 -4 113 -16 117 -9 4 -18 -5 -26 -26 -12 -34 -43 -44 -66 -21 -6 6 -58
14 -115 18 -57 4 -114 8 -128 9 -21 2 -26 -5 -41 -53 -29 -96 -32 -117 -18
-102 7 6 19 12 26 12 24 0 13 -25 -27 -65 -22 -22 -44 -56 -50 -75 -6 -19 -15
-44 -20 -55 -13 -33 -40 -140 -40 -162 0 -14 11 -25 31 -34 18 -7 42 -23 54
-35 l23 -23 -31 6 c-50 9 -97 31 -97 44 0 7 -3 10 -6 6 -4 -3 -19 0 -35 8 -36
19 -56 20 -41 2 9 -10 4 -12 -23 -9 -19 2 -33 9 -32 15 2 13 -83 58 -95 50 -5
-2 -8 6 -8 18 0 16 5 20 20 16 24 -6 22 -40 33 468 4 171 10 358 13 418 l6
107 52 -5 c73 -6 152 -50 177 -97 10 -18 -29 -102 -57 -124 -8 -6 -14 -16 -14
-23 0 -6 -17 -11 -40 -11 l-40 0 0 -67 c0 -38 -3 -112 -7 -166 -6 -94 -5 -98
15 -104 11 -3 24 -12 28 -21 3 -10 6 -112 4 -229 -2 -210 -1 -211 20 -218 15
-5 26 -2 31 6 8 12 15 178 11 234 -2 15 0 17 7 6 6 -10 11 -6 20 15 l11 29 -3
-33 c-9 -89 30 33 113 353 23 88 63 237 87 330 25 94 48 180 50 191 4 19 16
23 106 33 56 6 136 14 177 18 41 3 78 11 81 16 4 5 36 13 70 17 35 4 65 8 67
9 2 0 0 -4 -4 -10z m1170 -71 c7 -33 21 -29 28 7 2 12 13 21 25 23 23 3 23 3
18 -130 -2 -73 -11 -230 -20 -348 -8 -118 -17 -264 -20 -325 -4 -60 -13 -166
-21 -235 -9 -69 -21 -188 -28 -265 -10 -124 -11 -176 -6 -318 1 -21 -3 -43 -9
-50 -10 -13 -18 -67 -25 -176 -3 -53 -2 -57 71 -163 71 -106 164 -283 178
-341 10 -38 38 -54 119 -67 38 -6 85 -18 105 -27 21 -9 66 -16 109 -16 l72 0
0 -48 c0 -26 -4 -50 -9 -53 -4 -3 -7 -16 -4 -28 2 -13 -1 -29 -6 -37 -7 -12
-14 -10 -39 10 -36 28 -39 39 -12 39 20 0 27 14 11 24 -5 3 -14 -1 -21 -9 -16
-20 -30 -19 -46 3 -13 16 -15 16 -25 0 -14 -24 -34 -22 -56 5 -10 12 -31 30
-46 40 -23 15 -31 16 -44 6 -25 -21 -46 -20 -40 2 7 24 1 24 -48 -6 -22 -14
-44 -25 -49 -25 -9 0 28 36 43 42 5 2 11 17 15 33 6 26 5 28 -6 14 -16 -20
-81 -59 -97 -59 -8 0 -7 7 3 22 24 34 20 45 -13 40 -25 -3 -30 0 -33 19 -2 16
-10 24 -23 24 -11 0 -29 11 -40 25 -26 33 -49 51 -53 40 -2 -5 -13 1 -25 13
l-22 22 -3 -22 c-2 -13 -8 -23 -14 -23 -6 0 -8 9 -5 20 8 29 -10 24 -27 -7
-12 -23 -16 -25 -21 -11 -6 15 -9 15 -38 0 -17 -10 -36 -23 -42 -30 -17 -21
-64 -22 -70 -2 -10 32 -32 30 -80 -7 -50 -40 -101 -108 -111 -151 -4 -15 -13
-36 -20 -47 -7 -11 -20 -49 -28 -83 -20 -88 -64 -119 -77 -56 -7 35 -29 78
-36 71 -2 -3 1 -15 7 -27 10 -19 9 -26 -7 -42 -11 -10 -28 -19 -39 -19 -54 0
-144 41 -144 67 0 7 -14 21 -31 30 -26 13 -36 14 -55 3 -13 -7 -27 -10 -30 -6
-4 3 5 55 19 114 14 59 28 125 32 146 4 24 10 35 17 31 7 -4 8 -3 4 4 -8 13
47 229 69 271 8 16 37 48 65 71 41 35 54 40 61 29 18 -28 15 -34 -78 -135 -50
-56 -99 -174 -79 -194 8 -8 -2 -43 -33 -110 -4 -8 -5 -23 -3 -33 6 -29 86 82
171 238 41 74 78 135 82 135 5 0 4 -11 -3 -24 -24 -55 19 -74 75 -34 43 30 56
49 53 73 -2 11 1 28 6 38 6 11 5 17 -2 17 -7 0 -10 6 -7 13 2 6 -1 23 -8 37
-40 80 -65 186 -65 274 0 54 3 67 19 76 24 12 34 13 26 1 -3 -5 3 -12 12 -15
10 -3 41 -21 70 -40 78 -51 112 -60 164 -42 39 14 44 13 55 -2 8 -9 14 -22 14
-29 0 -6 12 -21 27 -33 26 -20 28 -20 34 -3 7 19 16 128 49 648 32 488 79
1106 86 1116 10 18 22 9 28 -23z m-4610 -393 c3 -60 10 -210 16 -332 8 -161 8
-228 0 -243 -23 -43 -30 -18 -30 108 0 70 -2 251 -5 402 -4 269 7 308 19 65z
m-278 -237 c33 -37 35 -43 19 -88 -8 -23 -12 -52 -9 -65 6 -24 -16 -49 -24
-27 -2 7 -12 12 -22 12 -11 0 -24 9 -30 20 -6 10 -26 27 -45 36 -19 9 -35 23
-35 30 0 8 -7 14 -15 14 -19 0 -19 14 0 30 12 10 25 9 65 -6 37 -13 53 -15 61
-7 16 16 4 44 -21 50 -11 3 -20 12 -20 20 0 8 5 11 10 8 6 -3 10 -1 10 5 0 15
29 -2 56 -32z m6436 -70 c33 -31 35 -36 31 -85 l-5 -53 -92 0 -91 0 5 55 c5
52 7 57 50 85 25 17 50 30 56 30 6 0 27 -15 46 -32z m-1358 -185 c17 -34 50
-80 73 -102 59 -54 115 -71 240 -71 122 0 118 -3 129 130 4 44 10 80 14 80 3
0 27 -23 52 -50 45 -49 46 -52 42 -103 -7 -71 -8 -73 -41 -82 -61 -15 -66 -45
-7 -45 56 0 39 -20 -18 -21 l-53 -1 48 -10 c26 -6 47 -15 47 -20 0 -6 -11 -7
-26 -4 -15 4 -39 10 -55 13 -16 3 -29 11 -29 18 0 14 -176 50 -206 42 -12 -3
-7 -5 13 -6 17 0 34 -5 37 -10 6 -9 -98 -5 -144 6 -25 6 -25 6 5 13 47 12 142
11 212 -1 66 -12 93 -4 93 28 0 11 -8 12 -37 6 -59 -12 -164 -7 -228 11 -43
13 -69 29 -104 64 -54 54 -129 185 -103 180 9 -2 30 -31 46 -65z m-675 28 c7
-12 26 -21 55 -25 75 -12 146 -88 146 -156 0 -23 5 -33 20 -37 15 -4 20 -14
20 -40 0 -28 3 -34 16 -29 9 4 13 2 8 -5 -3 -6 -20 -9 -36 -7 -23 4 -32 0 -38
-16 -5 -12 -9 -15 -9 -8 -1 6 -8 12 -16 12 -13 0 -14 -4 -5 -20 9 -16 8 -20
-5 -20 -8 0 -15 -7 -15 -17 0 -14 -2 -14 -20 2 -16 15 -23 16 -33 6 -9 -10 -8
-11 7 -5 13 5 17 4 13 -4 -4 -6 -21 -13 -37 -17 -17 -4 -30 -13 -30 -21 0 -17
17 -19 23 -1 7 20 17 3 10 -21 -6 -26 -28 -29 -43 -4 -10 15 -10 15 -8 -3 2
-15 -4 -21 -25 -23 -16 -2 -35 2 -43 9 -11 9 -14 8 -14 -7 0 -15 -6 -12 -30
14 -16 18 -30 41 -31 50 0 12 -3 11 -9 -5 -11 -27 -60 -33 -60 -8 0 12 -7 14
-27 9 -38 -9 -40 -12 -12 -23 20 -8 14 -10 -33 -10 -43 -1 -58 -5 -58 -15 0
-16 -23 -22 -115 -31 -39 -4 -55 -3 -47 3 11 7 6 12 -17 20 -42 15 -58 50 -38
88 8 16 20 61 27 99 18 101 23 110 97 165 102 74 224 115 355 119 37 1 50 -3
57 -18z m-128 -486 c12 -19 25 -35 30 -35 13 0 59 -50 59 -64 0 -18 -23 -27
-41 -16 -8 5 -19 4 -26 -2 -10 -8 -13 -6 -13 5 0 16 -54 102 -70 112 -5 3 -17
-6 -27 -21 -16 -26 -16 -27 5 -44 30 -25 27 -55 -8 -80 -16 -12 -30 -28 -30
-35 0 -17 -30 -34 -47 -28 -17 6 -28 -26 -14 -40 18 -18 13 -34 -15 -41 -39
-10 -64 2 -64 30 0 13 5 24 10 24 21 0 9 30 -14 36 -16 4 -26 15 -30 36 -10
49 -8 55 30 92 30 29 46 36 95 42 50 6 63 11 80 35 29 41 64 39 90 -6z m2275
5 c20 0 18 -43 -11 -265 -29 -214 -49 -374 -70 -550 -8 -66 -21 -172 -30 -235
-9 -63 -20 -149 -26 -190 -6 -41 -11 -84 -13 -96 -2 -11 -7 -28 -13 -38 -9
-16 -11 -14 -16 15 -7 35 -3 106 13 268 5 52 7 97 5 101 -2 3 1 25 6 49 5 24
12 68 14 99 2 32 7 85 11 119 6 60 6 61 -22 78 l-29 16 27 -5 c24 -6 27 -3 37
42 6 26 13 74 16 107 2 33 9 91 15 130 6 38 8 75 6 82 -3 7 -2 23 3 36 5 12
12 50 16 85 6 56 5 62 -12 62 -31 0 -337 62 -353 71 -10 6 -3 8 20 4 66 -10
315 -56 331 -61 17 -5 29 20 29 65 0 17 4 22 16 17 9 -3 22 -6 30 -6z m134
-43 c14 -1 14 -18 -2 -157 -9 -85 -33 -270 -53 -410 -19 -140 -40 -291 -45
-335 -6 -44 -20 -143 -31 -220 -11 -77 -24 -176 -30 -220 -14 -98 -26 -135
-40 -114 -5 7 -9 19 -9 24 0 6 5 3 10 -5 8 -12 10 -9 10 12 0 15 -5 30 -10 33
-6 3 -8 16 -5 28 3 12 6 33 7 47 0 14 4 75 9 135 17 218 24 294 44 470 8 72
17 157 20 190 3 33 10 96 15 140 5 44 14 136 20 205 15 160 25 194 54 185 11
-4 28 -7 36 -8z m-5048 -7 c-4 -3 -7 -29 -7 -57 0 -29 -3 -53 -7 -53 -5 0 -42
0 -83 0 l-75 0 0 54 0 55 38 3 c58 5 141 4 134 -2z m113 -79 c-3 -5 9 -23 26
-39 20 -19 32 -40 33 -60 1 -17 15 -47 34 -71 29 -36 32 -46 32 -110 0 -41 -4
-71 -10 -71 -5 0 -30 20 -55 44 -48 48 -61 47 -20 -2 13 -16 21 -32 18 -36 -4
-4 0 -4 9 -1 9 4 18 0 21 -8 4 -10 -2 -13 -20 -11 -26 3 -43 19 -43 42 0 7 -5
10 -11 7 -6 -4 -8 -13 -5 -21 3 -7 -13 0 -36 16 -44 32 -64 26 -51 -15 5 -17
4 -18 -10 -7 -8 7 -33 12 -54 11 -48 -3 -63 5 -63 35 0 12 -5 27 -10 32 -7 7
1 15 25 24 25 10 35 20 34 34 -2 30 -16 84 -18 66 -1 -10 -4 -11 -9 -4 -4 6
-22 19 -40 28 -41 21 -34 33 26 42 51 7 165 54 176 73 4 6 12 11 17 11 6 0 8
-4 4 -9z m753 -33 c-3 -18 -2 -61 1 -96 4 -37 3 -66 -3 -72 -12 -12 -86 -13
-105 -1 -9 6 -18 36 -23 73 -4 35 -10 75 -14 91 -6 26 -5 27 31 27 35 0 36 -1
34 -32 -5 -78 1 -118 17 -118 14 0 16 8 11 48 -4 26 -9 59 -13 74 -5 22 -2 27
17 31 50 9 52 8 47 -25z m2593 -43 c-12 -46 -4 -78 33 -120 23 -26 47 -40 87
-50 92 -25 269 -35 323 -18 18 5 19 1 13 -48 -4 -30 -7 -65 -7 -79 -1 -47 -11
-52 -71 -35 -30 9 -63 20 -74 25 -11 4 -33 11 -50 15 -16 4 -43 17 -60 29 -33
25 -89 56 -102 56 -4 0 10 -11 32 -25 22 -13 34 -25 27 -25 -18 0 -72 41 -66
51 6 11 -66 59 -88 59 -10 0 -18 4 -18 10 0 5 -11 12 -24 16 -13 3 -34 17 -47
30 -25 27 -15 33 13 7 29 -26 30 -10 1 30 -17 24 -29 33 -34 26 -5 -8 -8 -8
-13 0 -4 6 -2 11 4 11 6 0 10 8 9 18 -1 9 3 28 8 42 10 24 11 23 39 -30 l28
-55 9 55 c12 79 17 90 28 61 6 -14 6 -37 0 -56z m-3729 -35 l15 -65 -39 -72
c-22 -40 -37 -77 -33 -82 15 -25 102 -53 167 -54 61 -1 66 -3 62 -22 -5 -25
-44 -58 -112 -91 -43 -22 -62 -26 -113 -22 -37 3 -64 10 -70 19 -17 24 -6 239
14 278 19 38 22 78 7 115 -10 29 8 58 50 80 30 15 31 13 52 -84z m984 42 c8
-53 -3 -76 -39 -80 -23 -3 -25 -6 -20 -38 5 -33 5 -34 -29 -34 l-34 0 -2 68
c-1 37 -3 81 -4 97 -3 29 -1 30 42 35 70 8 78 4 86 -48z m-2596 -36 c0 -49 -5
-65 -27 -95 -15 -20 -29 -38 -32 -41 -4 -3 -12 -15 -18 -27 -16 -28 3 -43 21
-17 12 15 17 11 56 -46 46 -68 46 -89 -1 -100 -21 -5 -25 -13 -29 -58 -3 -29
-12 -57 -19 -61 -7 -5 -13 -21 -13 -36 0 -14 -7 -29 -14 -32 -8 -3 -14 -19
-14 -38 0 -18 -8 -43 -19 -56 l-18 -23 -17 27 c-10 14 -15 31 -11 37 3 5 -14
31 -39 56 -53 52 -59 87 -26 142 13 21 23 60 27 109 6 71 9 79 43 112 34 33
90 129 90 154 0 5 10 25 21 44 28 44 39 30 39 -51z m2996 -227 c5 -8 9 -8 14
1 10 16 70 -14 70 -35 0 -8 4 -15 9 -15 13 0 6 -34 -8 -36 -6 -1 -7 0 -1 3 14
7 -17 63 -35 63 -8 0 -15 -3 -15 -8 0 -4 -10 -12 -22 -17 -13 -6 -24 -16 -24
-22 -3 -25 -4 -28 -12 -17 -5 8 -43 9 -137 3 -71 -4 -154 -8 -182 -9 l-53 0 0
40 0 40 78 1 c42 1 115 4 162 8 131 12 148 12 156 0z m2399 -74 c17 -6 73 -22
125 -34 52 -12 127 -32 165 -43 39 -12 76 -22 83 -24 6 -2 12 -8 12 -14 0 -17
-132 -11 -216 10 -43 10 -80 18 -81 16 -5 -4 206 -102 250 -116 20 -6 35 -16
32 -21 -7 -11 -80 18 -217 87 -102 51 -206 114 -166 101 10 -4 20 -2 23 3 4 6
-12 10 -37 10 -45 0 -115 14 -125 24 -12 12 4 15 39 7 30 -7 35 -6 31 6 -6 15
25 11 82 -12z m-1745 -190 c0 -8 5 -15 10 -15 14 0 13 -33 -2 -48 -8 -8 -8
-15 2 -27 12 -14 9 -21 -18 -46 -40 -37 -40 -52 -2 -79 25 -18 29 -25 19 -36
-7 -9 -25 -14 -43 -12 -23 2 -32 9 -36 28 -3 14 -11 25 -18 25 -7 0 -12 3 -12
8 0 48 1 51 9 39 7 -11 10 -10 15 3 10 26 7 42 -5 25 -8 -11 -9 -9 -3 10 4 14
11 36 17 50 5 14 10 36 11 50 1 18 6 24 19 22 9 -2 17 2 17 8 0 5 5 10 10 10
6 0 10 -7 10 -15z m2310 -460 c-23 -238 -32 -293 -42 -241 -3 14 -2 26 2 26 5
0 6 17 3 38 -3 20 2 130 11 243 9 113 16 212 16 220 1 8 8 1 17 -16 15 -28 15
-47 -7 -270z m-6155 234 c36 -52 100 -282 92 -326 -3 -18 2 -37 17 -57 27 -37
32 -75 13 -100 -13 -17 -14 -17 -32 10 -10 16 -27 37 -37 48 -18 20 -22 37
-20 91 2 40 -19 106 -30 99 -9 -6 -33 20 -38 41 -1 6 -11 27 -21 47 -10 21
-19 48 -19 62 0 14 -5 28 -10 31 -6 4 -8 11 -4 16 3 5 0 16 -6 24 -10 12 -10
15 0 15 8 0 11 3 7 6 -8 8 35 44 48 41 6 -2 24 -23 40 -48z m988 -9 c4 -29 6
-54 5 -55 -2 -2 -45 -7 -95 -12 l-93 -9 -6 36 c-3 19 -7 45 -10 57 -4 20 1 22
74 28 42 4 82 8 87 10 22 8 30 -4 38 -55z m2030 -45 c4 -10 -17 -28 -67 -60
-40 -25 -77 -45 -83 -45 -6 0 -16 -6 -22 -14 -10 -12 -6 -14 26 -12 21 1 44 5
51 9 7 5 12 3 12 -6 0 -20 -60 -78 -74 -70 -6 4 -22 6 -35 4 -21 -2 -23 0 -17
22 5 20 1 26 -15 30 -15 4 -20 11 -15 22 19 51 19 65 -4 65 -12 0 -28 6 -35
14 -13 12 -20 11 -52 -5 -20 -10 -44 -19 -53 -19 -18 0 -43 37 -35 50 10 15
45 12 51 -5 9 -21 37 -19 57 6 14 16 25 19 50 14 44 -10 47 -12 48 -43 0 -15
3 -22 5 -16 3 7 14 9 26 6 17 -4 19 -2 13 18 -7 21 -5 22 31 16 28 -4 49 0 74
14 42 23 56 25 63 5z m-216 -475 c30 0 82 -37 94 -66 2 -6 33 -30 69 -54 67
-47 109 -80 142 -115 30 -31 98 -138 92 -144 -6 -6 -18 8 -59 62 -11 15 -25
27 -32 27 -7 0 -10 6 -7 13 2 7 -5 22 -17 33 -22 19 -22 19 -10 -3 10 -19 9
-22 -4 -17 -11 5 -14 2 -9 -11 5 -11 -11 -4 -45 20 -34 25 -63 37 -86 38 -20
1 -35 6 -35 13 0 21 -28 24 -33 3 -3 -10 -10 -19 -16 -19 -14 0 -14 27 -1 35
11 7 -12 32 -64 69 -14 10 -24 21 -21 24 3 3 -7 14 -22 24 -31 20 -24 23 26 8
58 -16 46 -4 -31 35 l-73 36 55 -5 c30 -3 69 -6 87 -6z m-787 -226 c0 -20 7
-42 15 -50 13 -14 13 -19 -4 -52 -23 -46 -45 -119 -60 -197 -25 -125 -85 -352
-97 -364 -3 -3 -12 3 -20 13 -13 19 -14 19 -14 2 0 -15 -3 -16 -14 -7 -8 7
-20 11 -28 10 -7 -1 -24 3 -38 9 -14 7 -50 20 -80 30 l-55 17 0 235 1 235 48
8 c27 4 52 4 56 0 4 -4 1 -35 -7 -67 -14 -53 -14 -62 1 -93 22 -46 21 -55 -15
-121 -21 -39 -29 -67 -27 -89 2 -18 -1 -34 -7 -37 -20 -7 11 -41 46 -49 40 -9
110 10 117 32 3 9 0 12 -11 8 -30 -11 -26 7 9 37 28 25 38 44 50 96 8 36 17
89 20 119 3 38 10 58 25 70 l21 17 -21 34 c-16 28 -21 51 -21 112 l0 77 48 3
c61 4 62 3 62 -38z m-1072 -20 c2 -1 -2 -29 -8 -61 -8 -36 -10 -95 -7 -158 4
-59 1 -134 -6 -184 -9 -57 -10 -110 -4 -165 10 -96 1 -336 -13 -350 -6 -6 -10
-18 -10 -28 0 -10 -6 -18 -12 -18 -9 0 -8 -4 2 -10 10 -6 11 -10 3 -10 -7 0
-12 -3 -12 -7 4 -27 -3 -93 -10 -93 -4 0 -7 11 -6 25 2 14 -2 25 -8 25 -7 0
-12 -13 -12 -30 -1 -22 4 -30 16 -30 19 0 27 -15 24 -48 -1 -19 3 -23 24 -20
14 1 32 -1 39 -6 14 -9 13 -65 -2 -85 -8 -10 -8 -15 2 -18 7 -3 12 -25 12 -59
0 -37 4 -53 11 -49 6 4 9 29 8 55 -4 63 16 85 56 64 29 -15 45 -11 45 12 0 8
4 14 9 14 15 0 65 49 57 57 -3 4 7 12 24 19 46 20 48 40 7 80 -37 36 -72 98
-63 113 3 5 -1 12 -10 15 -8 3 -12 11 -8 17 3 6 2 14 -4 18 -6 3 -8 18 -5 32
l5 26 36 -19 c41 -21 75 -23 121 -7 34 12 42 39 11 39 -11 0 -20 5 -20 10 0 6
-11 10 -24 10 -14 0 -28 -4 -31 -10 -8 -14 -45 -13 -45 1 0 6 -9 9 -20 6 -21
-5 -29 16 -10 28 6 3 10 15 10 25 0 10 9 22 21 25 11 4 18 13 15 20 -6 18 25
45 53 45 14 0 20 4 15 11 -4 8 0 8 15 0 11 -7 21 -8 22 -4 6 59 4 111 -5 126
-9 14 -8 20 7 28 14 8 17 25 18 92 0 82 4 83 27 7 10 -32 13 -59 11 -115 -2
-59 9 -128 22 -136 8 -5 29 -9 47 -9 39 0 44 -20 5 -21 -16 0 -37 -4 -48 -9
-15 -6 -8 -9 27 -9 26 -1 49 -5 52 -10 6 -9 44 -8 127 4 20 3 62 -2 93 -10 31
-8 72 -15 90 -15 51 0 51 -23 0 -65 -29 -24 -43 -43 -39 -53 8 -20 -82 -102
-114 -103 -17 -1 -20 -3 -8 -6 27 -7 22 -50 -8 -57 -37 -9 -30 -33 8 -27 4 0
7 -4 7 -9 0 -6 -11 -10 -25 -10 -14 0 -25 5 -25 11 0 8 -5 8 -15 -1 -12 -10
-15 -9 -16 6 -1 19 -1 22 9 59 4 16 2 18 -9 8 -7 -8 -13 -34 -13 -63 0 -42 -3
-50 -18 -50 -10 0 -20 1 -22 3 -3 1 -15 -7 -28 -18 -35 -30 -66 -46 -72 -36
-8 12 18 32 72 57 25 11 41 23 36 26 -21 12 -75 -16 -140 -72 -38 -33 -86 -71
-107 -85 -21 -14 -40 -34 -43 -43 -3 -9 -20 -46 -37 -81 -27 -58 -31 -62 -38
-42 -10 26 -29 19 -29 -10 0 -10 -7 -19 -15 -19 -21 0 -19 -37 2 -49 10 -5 14
-13 10 -17 -5 -5 -12 -3 -16 4 -12 20 -27 -5 -41 -70 -7 -32 -17 -58 -22 -58
-4 0 -8 -6 -8 -13 0 -8 -9 -22 -20 -32 -11 -10 -20 -29 -20 -42 0 -15 -5 -23
-12 -20 -9 2 -13 26 -14 67 -2 81 27 157 62 166 29 8 30 14 3 37 -20 17 -24
16 -133 -41 l-114 -59 -26 41 c-14 22 -27 50 -28 63 -1 13 -2 38 -4 56 -1 17
5 42 13 55 10 16 16 60 18 133 2 60 6 113 10 118 3 5 1 12 -4 16 -14 8 -9 45
6 45 27 0 19 15 -9 17 -37 3 -45 10 -30 25 17 17 15 55 -4 66 -15 8 -15 11 1
36 94 144 113 224 76 333 -28 84 -27 109 13 205 19 46 39 103 46 128 6 25 25
89 41 142 l29 97 38 -6 c20 -3 39 -7 40 -9z m-341 -211 c9 -7 24 -11 32 -8 35
10 68 -41 46 -71 -13 -18 -15 -18 -43 -1 -40 23 -45 22 -27 -7 8 -13 13 -30 9
-39 -3 -9 1 -26 10 -39 30 -42 12 -78 -23 -45 -11 9 -14 9 -18 0 -6 -18 -41 2
-53 30 -6 12 -15 29 -21 38 -16 22 -3 129 16 129 7 0 23 -12 34 -26 23 -29 28
-16 9 19 -6 12 -12 42 -14 67 l-3 45 14 -40 c8 -22 22 -45 32 -52z m5739 -435
c52 -6 94 -14 94 -17 0 -3 -4 -20 -8 -36 -8 -28 -5 -33 49 -75 57 -44 78 -71
40 -50 -11 5 -30 10 -42 10 -12 0 -60 20 -106 45 -122 66 -222 103 -260 98
-20 -3 -33 -1 -33 5 0 13 38 20 153 30 10 1 61 -3 113 -10z m897 -165 c4 -3 2
-12 -4 -19 -14 -17 8 -29 26 -14 15 13 39 4 30 -11 -11 -17 6 -31 21 -18 22
18 39 -3 23 -29 -9 -14 -28 -22 -66 -27 -57 -7 -62 -19 -13 -30 39 -9 38 -31
-1 -39 -37 -7 -171 -7 -149 1 43 14 40 18 -20 23 l-65 6 43 8 c59 12 65 28 8
23 -72 -6 -73 23 -3 50 30 12 29 12 -20 7 -32 -4 -53 -2 -53 4 0 15 48 31 122
41 37 5 75 14 85 20 21 12 28 13 36 4z m-3752 -935 c7 -18 21 -41 32 -50 10
-9 18 -20 19 -25 0 -4 5 -7 10 -5 6 2 8 -4 5 -13 -4 -8 -2 -15 3 -15 6 0 9 -3
9 -7 -3 -21 3 -33 17 -33 8 0 12 5 9 11 -4 6 9 0 29 -13 20 -13 45 -41 56 -65
10 -23 28 -48 40 -56 11 -7 17 -16 14 -19 -3 -4 4 -9 15 -13 24 -7 35 -37 27
-70 -5 -19 -11 -22 -38 -19 -163 18 -161 18 -197 -15 -18 -17 -40 -31 -48 -31
-26 0 -73 33 -73 52 0 9 -4 19 -8 22 -15 9 -51 -6 -55 -23 -4 -14 -5 -14 -6 2
0 10 9 22 22 27 12 5 18 9 12 10 -5 0 -4 4 3 9 9 5 12 21 9 42 -4 30 -5 32
-12 12 -10 -30 -51 -31 -60 -2 -8 25 11 75 32 83 8 4 13 13 10 21 -4 9 -1 12
9 8 24 -9 64 6 90 34 20 22 26 24 39 13 16 -13 9 10 -39 123 -14 31 -14 37 -2
37 7 0 19 -15 27 -32z"/>
<path d="M2642 6287 c2 -12 9 -21 16 -19 7 1 249 2 540 2 565 1 749 12 382 23
-118 4 -378 9 -578 11 l-363 4 3 -21z"/>
<path d="M4560 6267 c3 -3 27 -7 52 -8 39 -2 47 -6 45 -20 -2 -10 -11 -27 -22
-39 -18 -20 -18 -20 8 -20 l27 0 0 -100 0 -100 45 0 45 0 2 -112 c1 -66 5 -16
8 117 l5 230 80 16 c73 14 77 16 45 22 -48 8 -346 21 -340 14z"/>
<path d="M7832 5163 c-6 -16 -13 -62 -16 -103 -2 -41 -14 -178 -25 -305 -30
-329 -31 -469 -6 -443 15 15 73 878 59 878 -1 0 -6 -12 -12 -27z"/>
<path d="M3974 7643 c-9 -21 -18 -45 -19 -53 -2 -8 -10 -35 -18 -60 -9 -25
-21 -70 -27 -100 -22 -111 -67 -249 -86 -265 -6 -5 -14 -39 -17 -74 -3 -35
-10 -68 -16 -74 -6 -6 -11 -24 -11 -39 0 -17 -5 -27 -12 -26 -18 4 -18 -104 0
-110 10 -3 12 4 7 31 -4 21 -3 37 4 41 6 4 11 19 11 34 1 25 39 110 39 87 1
-5 -10 -45 -23 -87 -14 -43 -21 -78 -18 -78 4 0 26 50 50 110 55 141 110 259
136 288 13 15 15 22 6 22 -9 0 -8 6 5 20 10 11 19 29 20 39 1 11 7 26 13 34 7
8 12 19 11 23 -2 9 8 36 36 99 7 16 21 55 31 85 10 30 22 59 26 65 12 14 10
25 -5 25 -7 0 -20 -22 -30 -50 -10 -27 -22 -50 -28 -50 -11 0 -1 50 12 65 21
22 8 35 -36 35 -42 0 -46 -2 -61 -37z"/>
<path d="M10015 5045 c-32 -9 -99 -43 -124 -61 -2 -2 -5 -14 -6 -26 -1 -13 -3
-28 -4 -34 0 -5 -18 -11 -38 -11 -44 -1 -74 -31 -47 -46 9 -5 27 -7 40 -4 17
3 28 -3 40 -20 14 -23 14 -26 -3 -39 -16 -12 -14 -14 22 -15 39 -1 39 -2 10
-9 -28 -7 -27 -8 13 -9 38 -1 42 1 42 23 0 13 9 35 21 50 22 28 21 29 -39 28
-21 0 -35 6 -42 18 -13 24 -5 28 50 26 49 -3 60 5 60 45 0 23 4 26 30 25 28
-1 30 -4 30 -38 0 -36 1 -37 25 -26 16 7 29 24 35 47 14 50 14 48 -29 56 -22
4 -41 12 -43 20 -2 10 -11 10 -43 0z"/>
</g>
</svg>
